<svg preserveAspectRatio="xMidYMid meet" width="48" height="48" viewBox="0 0 48 48" fill="none" xmlns="http://www.w3.org/2000/svg">
<g clip-path="url(#clip0_1_34029)">
<path d="M25.9996 38L25.9996 15.66L35.7596 25.42C36.5396 26.2 37.8196 26.2 38.5996 25.42C39.3796 24.64 39.3796 23.38 38.5996 22.6L25.4196 9.41999C24.6396 8.63999 23.3796 8.63999 22.5996 9.41999L9.41957 22.6C8.63957 23.38 8.63957 24.64 9.41957 25.42C10.1996 26.2 11.4596 26.2 12.2396 25.42L21.9996 15.66L21.9996 38C21.9996 39.1 22.8996 40 23.9996 40C25.0996 40 25.9996 39.1 25.9996 38Z" fill="black"/>
</g>
<defs>
<clipPath id="clip0_1_34029">
<rect width="48" height="48" fill="white" transform="translate(48) rotate(90)"/>
</clipPath>
</defs>
</svg>
