<svg preserveAspectRatio="xMidYMid meet" width="48" height="48" viewBox="0 0 24 24" fill="none" xmlns="http://www.w3.org/2000/svg">
<path transform="translate(4 4.425)" d="M7.3 14.875C7.11667 14.6917 7.02083 14.4583 7.0125 14.175C7.00417 13.8917 7.09167 13.6583 7.275 13.475L12.175 8.575H1C0.716667 8.575 0.479167 8.47917 0.2875 8.2875C0.0958333 8.09583 0 7.85833 0 7.575C0 7.29167 0.0958333 7.05417 0.2875 6.8625C0.479167 6.67083 0.716667 6.575 1 6.575H12.175L7.275 1.675C7.09167 1.49167 7.00417 1.25833 7.0125 0.975C7.02083 0.691667 7.11667 0.458333 7.3 0.275C7.48333 0.0916667 7.71667 0 8 0C8.28333 0 8.51667 0.0916667 8.7 0.275L15.3 6.875C15.4 6.95833 15.4708 7.0625 15.5125 7.1875C15.5542 7.3125 15.575 7.44167 15.575 7.575C15.575 7.70833 15.5542 7.83333 15.5125 7.95C15.4708 8.06667 15.4 8.175 15.3 8.275L8.7 14.875C8.51667 15.0583 8.28333 15.15 8 15.15C7.71667 15.15 7.48333 15.0583 7.3 14.875Z" fill="#E40046"/>
</svg>
