<svg preserveAspectRatio="xMidYMid meet" width="48" height="48" viewBox="0 0 48 48" fill="none" xmlns="http://www.w3.org/2000/svg">
<path d="M26.9496 34.9L17.0496 25C16.8829 24.8333 16.7663 24.6667 16.6996 24.5C16.6329 24.3333 16.5996 24.15 16.5996 23.95C16.5996 23.75 16.6329 23.5667 16.6996 23.4C16.7663 23.2333 16.8829 23.0667 17.0496 22.9L26.9996 12.95C27.2996 12.65 27.6579 12.5 28.0746 12.5C28.4913 12.5 28.8496 12.65 29.1496 12.95C29.4496 13.25 29.5913 13.6167 29.5746 14.05C29.5579 14.4833 29.3996 14.85 29.0996 15.15L20.2996 23.95L29.1496 32.8C29.4496 33.1 29.5996 33.45 29.5996 33.85C29.5996 34.25 29.4496 34.6 29.1496 34.9C28.8496 35.2 28.4829 35.35 28.0496 35.35C27.6163 35.35 27.2496 35.2 26.9496 34.9Z" fill="black"/>
</svg>
