<svg preserveAspectRatio="xMidYMid meet" width="48" height="48" viewBox="0 0 48 48" fill="none" xmlns="http://www.w3.org/2000/svg">
<path d="M13.1003 29.65C12.8003 29.35 12.642 29 12.6253 28.6C12.6087 28.2 12.7503 27.85 13.0503 27.55L22.9503 17.65C23.117 17.4833 23.2837 17.3667 23.4503 17.3C23.617 17.2333 23.8003 17.2 24.0003 17.2C24.2003 17.2 24.3837 17.2333 24.5503 17.3C24.717 17.3667 24.8837 17.4833 25.0503 17.65L34.9503 27.5C35.2503 27.7667 35.4003 28.1083 35.4003 28.525C35.4003 28.9417 35.2503 29.3 34.9503 29.6C34.6503 29.9 34.292 30.05 33.8753 30.05C33.4587 30.05 33.1003 29.9 32.8003 29.6L24.0003 20.85L15.2003 29.7C14.9337 30 14.592 30.1417 14.1753 30.125C13.7587 30.1083 13.4003 29.95 13.1003 29.65Z" fill="black"/>
</svg>
