<svg preserveAspectRatio="xMidYMid meet" width="48" height="48" viewBox="0 0 48 48" fill="none" xmlns="http://www.w3.org/2000/svg">
<path d="M36.6004 11.42C35.8204 10.64 34.5604 10.64 33.7804 11.42L24.0004 21.18L14.2204 11.4C13.4404 10.62 12.1804 10.62 11.4004 11.4C10.6204 12.18 10.6204 13.44 11.4004 14.22L21.1804 24L11.4004 33.78C10.6204 34.56 10.6204 35.82 11.4004 36.6C12.1804 37.38 13.4404 37.38 14.2204 36.6L24.0004 26.82L33.7804 36.6C34.5604 37.38 35.8204 37.38 36.6004 36.6C37.3804 35.82 37.3804 34.56 36.6004 33.78L26.8204 24L36.6004 14.22C37.3604 13.46 37.3604 12.18 36.6004 11.42Z" fill="black"/>
</svg>
