<svg preserveAspectRatio="xMidYMid meet" width="48" height="48" viewBox="0 0 48 48" fill="none" xmlns="http://www.w3.org/2000/svg">
<path d="M24 4C12.94 4 4 12.94 4 24C4 35.06 12.94 44 24 44C35.06 44 44 35.06 44 24C44 12.94 35.06 4 24 4ZM32.6 32.6C31.82 33.38 30.56 33.38 29.78 32.6L24 26.82L18.22 32.6C17.44 33.38 16.18 33.38 15.4 32.6C14.62 31.82 14.62 30.56 15.4 29.78L21.18 24L15.4 18.22C14.62 17.44 14.62 16.18 15.4 15.4C16.18 14.62 17.44 14.62 18.22 15.4L24 21.18L29.78 15.4C30.56 14.62 31.82 14.62 32.6 15.4C33.38 16.18 33.38 17.44 32.6 18.22L26.82 24L32.6 29.78C33.36 30.54 33.36 31.82 32.6 32.6Z" fill="black"/>
</svg>
