<svg preserveAspectRatio="xMidYMid meet" width="48" height="48" viewBox="0 0 48 48" fill="none" xmlns="http://www.w3.org/2000/svg">
<path d="M13.05 42C12.25 42 11.55 41.7 10.95 41.1C10.35 40.5 10.05 39.8 10.05 39V10.5H9.5C9.06667 10.5 8.70833 10.3583 8.425 10.075C8.14167 9.79167 8 9.43333 8 9C8 8.56667 8.14167 8.20833 8.425 7.925C8.70833 7.64167 9.06667 7.5 9.5 7.5H17.4C17.4 7.06667 17.5417 6.70833 17.825 6.425C18.1083 6.14167 18.4667 6 18.9 6H29.1C29.5333 6 29.8917 6.14167 30.175 6.425C30.4583 6.70833 30.6 7.06667 30.6 7.5H38.5C38.9333 7.5 39.2917 7.64167 39.575 7.925C39.8583 8.20833 40 8.56667 40 9C40 9.43333 39.8583 9.79167 39.575 10.075C39.2917 10.3583 38.9333 10.5 38.5 10.5H37.95V39C37.95 39.8 37.65 40.5 37.05 41.1C36.45 41.7 35.75 42 34.95 42H13.05ZM18.35 33.2C18.35 33.6333 18.4917 33.9917 18.775 34.275C19.0583 34.5583 19.4167 34.7 19.85 34.7C20.2833 34.7 20.6417 34.5583 20.925 34.275C21.2083 33.9917 21.35 33.6333 21.35 33.2V16.25C21.35 15.8167 21.2083 15.4583 20.925 15.175C20.6417 14.8917 20.2833 14.75 19.85 14.75C19.4167 14.75 19.0583 14.8917 18.775 15.175C18.4917 15.4583 18.35 15.8167 18.35 16.25V33.2ZM26.65 33.2C26.65 33.6333 26.7917 33.9917 27.075 34.275C27.3583 34.5583 27.7167 34.7 28.15 34.7C28.5833 34.7 28.9417 34.5583 29.225 34.275C29.5083 33.9917 29.65 33.6333 29.65 33.2V16.25C29.65 15.8167 29.5083 15.4583 29.225 15.175C28.9417 14.8917 28.5833 14.75 28.15 14.75C27.7167 14.75 27.3583 14.8917 27.075 15.175C26.7917 15.4583 26.65 15.8167 26.65 16.25V33.2Z" fill="black"/>
</svg>
