<svg preserveAspectRatio="xMidYMid meet" width="48" height="48" viewBox="0 0 48 48" fill="none" xmlns="http://www.w3.org/2000/svg">
<path d="M24 4C12.96 4 4 12.96 4 24C4 35.04 12.96 44 24 44C35.04 44 44 35.04 44 24C44 12.96 35.04 4 24 4ZM26 38H22V34H26V38ZM30.14 22.5L28.34 24.34C26.9 25.8 26 27 26 30H22V29C22 26.8 22.9 24.8 24.34 23.34L26.82 20.82C27.56 20.1 28 19.1 28 18C28 15.8 26.2 14 24 14C21.8 14 20 15.8 20 18H16C16 13.58 19.58 10 24 10C28.42 10 32 13.58 32 18C32 19.76 31.28 21.36 30.14 22.5Z" fill="black"/>
</svg>
