<svg preserveAspectRatio="xMidYMid meet" width="48" height="48" viewBox="0 0 48 48" fill="none" xmlns="http://www.w3.org/2000/svg">
<path d="M24 10V6.42C24 5.52 22.92 5.08 22.3 5.72L16.7 11.3C16.3 11.7 16.3 12.32 16.7 12.72L22.28 18.3C22.92 18.92 24 18.48 24 17.58V14C30.62 14 36 19.38 36 26C36 31.44 32.34 36.04 27.38 37.5C26.54 37.74 26 38.54 26 39.4C26 40.7 27.24 41.72 28.5 41.34C35.14 39.4 40 33.28 40 26C40 17.16 32.84 10 24 10Z" fill="black"/>
<path d="M12 26C12 23.32 12.88 20.84 14.38 18.82C14.98 18.02 14.9 16.92 14.2 16.2C13.36 15.36 11.92 15.44 11.2 16.4C9.2 19.08 8 22.4 8 26C8 33.28 12.86 39.4 19.5 41.34C20.76 41.72 22 40.7 22 39.4C22 38.54 21.46 37.74 20.62 37.5C15.66 36.04 12 31.44 12 26Z" fill="black"/>
</svg>
