<svg preserveAspectRatio="xMidYMid meet" width="48" height="48" viewBox="0 0 48 48" fill="none" xmlns="http://www.w3.org/2000/svg">
<path fill-rule="evenodd" clip-rule="evenodd" d="M4 24C4 35.0457 12.9543 44 24 44C35.0457 44 44 35.0457 44 24C44 12.9543 35.0457 4 24 4C12.9543 4 4 12.9543 4 24ZM29.3848 31.7927C30.1648 32.5727 30.1648 33.8327 29.3848 34.6127C28.6048 35.3927 27.3248 35.3927 26.5648 34.6327L17.3848 25.4527C16.6048 24.6727 16.6048 23.4127 17.3848 22.6327L26.5648 13.4527C27.3448 12.6727 28.6048 12.6727 29.3848 13.4527C30.1648 14.2327 30.1648 15.4927 29.3848 16.2727L21.6248 24.0327L29.3848 31.7927Z" fill="black"/>
</svg>
