<svg preserveAspectRatio="xMidYMid meet" width="48" height="48" viewBox="0 0 48 48" fill="none" xmlns="http://www.w3.org/2000/svg">
<path fill-rule="evenodd" clip-rule="evenodd" d="M24 4C12.9543 4 4 12.9543 4 24C4 35.0457 12.9543 44 24 44C35.0457 44 44 35.0457 44 24C44 12.9543 35.0457 4 24 4ZM16.2073 29.3848C15.4273 30.1648 14.1673 30.1648 13.3873 29.3848C12.6073 28.6048 12.6073 27.3248 13.3673 26.5648L22.5473 17.3848C23.3273 16.6048 24.5873 16.6048 25.3673 17.3848L34.5473 26.5648C35.3273 27.3448 35.3273 28.6048 34.5473 29.3848C33.7673 30.1648 32.5073 30.1648 31.7273 29.3848L23.9673 21.6248L16.2073 29.3848Z" fill="black"/>
</svg>
