<svg preserveAspectRatio="xMidYMid meet" width="48" height="48" viewBox="0 0 48 48" fill="none" xmlns="http://www.w3.org/2000/svg">
<path fill-rule="evenodd" clip-rule="evenodd" d="M24 44C35.0457 44 44 35.0457 44 24C44 12.9543 35.0457 4 24 4C12.9543 4 4 12.9543 4 24C4 35.0457 12.9543 44 24 44ZM31.7927 18.6152C32.5727 17.8352 33.8327 17.8352 34.6127 18.6152C35.3927 19.3952 35.3927 20.6752 34.6327 21.4352L25.4527 30.6152C24.6727 31.3952 23.4127 31.3952 22.6327 30.6152L13.4527 21.4352C12.6727 20.6552 12.6727 19.3952 13.4527 18.6152C14.2327 17.8352 15.4927 17.8352 16.2727 18.6152L24.0327 26.3752L31.7927 18.6152Z" fill="black"/>
</svg>
