<svg preserveAspectRatio="xMidYMid meet" width="48" height="48" viewBox="0 0 48 48" fill="none" xmlns="http://www.w3.org/2000/svg">
<path fill-rule="evenodd" clip-rule="evenodd" d="M44 24C44 12.9543 35.0457 4 24 4C12.9543 4 4 12.9543 4 24C4 35.0457 12.9543 44 24 44C35.0457 44 44 35.0457 44 24ZM18.6152 16.2073C17.8352 15.4273 17.8352 14.1673 18.6152 13.3873C19.3952 12.6073 20.6752 12.6073 21.4352 13.3673L30.6152 22.5473C31.3952 23.3273 31.3952 24.5873 30.6152 25.3673L21.4352 34.5473C20.6552 35.3273 19.3952 35.3273 18.6152 34.5473C17.8352 33.7673 17.8352 32.5073 18.6152 31.7273L26.3752 23.9673L18.6152 16.2073Z" fill="black"/>
</svg>
