<svg preserveAspectRatio="xMidYMid meet" width="48" height="48" viewBox="0 0 48 48" fill="none" xmlns="http://www.w3.org/2000/svg">
<path d="M30 42L18 37.8L8.7 41.4C8.03333 41.6667 7.41667 41.5917 6.85 41.175C6.28333 40.7583 6 40.2 6 39.5V11.5C6 11.0667 6.125 10.6833 6.375 10.35C6.625 10.0167 6.96667 9.76667 7.4 9.6L18 6L30 10.2L39.3 6.6C39.9667 6.33333 40.5833 6.40833 41.15 6.825C41.7167 7.24167 42 7.8 42 8.5V36.5C42 36.9333 41.875 37.3167 41.625 37.65C41.375 37.9833 41.0333 38.2333 40.6 38.4L30 42ZM28 37.1V13.7L20 10.9V34.3L28 37.1ZM32 37.1L38 35.1V11.4L32 13.7V37.1ZM10 36.6L16 34.3V10.9L10 12.9V36.6Z" fill="black"/>
</svg>
