<svg preserveAspectRatio="xMidYMid meet" width="48" height="48" viewBox="0 0 48 48" fill="none" xmlns="http://www.w3.org/2000/svg">
<path d="M24 16C19.58 16 16 19.58 16 24C16 28.42 19.58 32 24 32C28.42 32 32 28.42 32 24C32 19.58 28.42 16 24 16ZM41.88 22C40.96 13.66 34.34 7.04 26 6.12V4C26 2.9 25.1 2 24 2C22.9 2 22 2.9 22 4V6.12C13.66 7.04 7.04 13.66 6.12 22H4C2.9 22 2 22.9 2 24C2 25.1 2.9 26 4 26H6.12C7.04 34.34 13.66 40.96 22 41.88V44C22 45.1 22.9 46 24 46C25.1 46 26 45.1 26 44V41.88C34.34 40.96 40.96 34.34 41.88 26H44C45.1 26 46 25.1 46 24C46 22.9 45.1 22 44 22H41.88ZM24 38C16.26 38 10 31.74 10 24C10 16.26 16.26 10 24 10C31.74 10 38 16.26 38 24C38 31.74 31.74 38 24 38Z" fill="black"/>
</svg>
