<svg preserveAspectRatio="xMidYMid meet" width="48" height="48" viewBox="0 0 48 48" fill="none" xmlns="http://www.w3.org/2000/svg">
<path d="M16 42C14.9 42 13.9583 41.6083 13.175 40.825C12.3917 40.0417 12 39.1 12 38V34H8C6.9 34 5.95833 33.6083 5.175 32.825C4.39167 32.0417 4 31.1 4 30V22C4 20.3 4.58333 18.875 5.75 17.725C6.91667 16.575 8.33333 16 10 16H38C39.7 16 41.125 16.575 42.275 17.725C43.425 18.875 44 20.3 44 22V30C44 31.1 43.6083 32.0417 42.825 32.825C42.0417 33.6083 41.1 34 40 34H36V38C36 39.1 35.6083 40.0417 34.825 40.825C34.0417 41.6083 33.1 42 32 42H16ZM8 30H12C12 28.9 12.3917 27.9583 13.175 27.175C13.9583 26.3917 14.9 26 16 26H32C33.1 26 34.0417 26.3917 34.825 27.175C35.6083 27.9583 36 28.9 36 30H40V22C40 21.4333 39.8083 20.9583 39.425 20.575C39.0417 20.1917 38.5667 20 38 20H10C9.43333 20 8.95833 20.1917 8.575 20.575C8.19167 20.9583 8 21.4333 8 22V30ZM32 16V10H16V16H12V10C12 8.9 12.3917 7.95833 13.175 7.175C13.9583 6.39167 14.9 6 16 6H32C33.1 6 34.0417 6.39167 34.825 7.175C35.6083 7.95833 36 8.9 36 10V16H32ZM36 25C36.5667 25 37.0417 24.8083 37.425 24.425C37.8083 24.0417 38 23.5667 38 23C38 22.4333 37.8083 21.9583 37.425 21.575C37.0417 21.1917 36.5667 21 36 21C35.4333 21 34.9583 21.1917 34.575 21.575C34.1917 21.9583 34 22.4333 34 23C34 23.5667 34.1917 24.0417 34.575 24.425C34.9583 24.8083 35.4333 25 36 25ZM32 38V30H16V38H32Z" fill="black"/>
</svg>
