<svg preserveAspectRatio="xMidYMid meet" width="48" height="48" viewBox="0 0 48 48" fill="none" xmlns="http://www.w3.org/2000/svg">
<path d="M10.2 31.3168C9.46667 30.1726 8.91667 28.9983 8.55 27.7939C8.18333 26.5895 8 25.355 8 24.0903C8 20.0555 9.55 16.623 12.65 13.7926C15.75 10.9622 19.5333 9.54705 24 9.54705H24.35L21.15 6.65646L23.95 4.1272L31.95 11.3537L23.95 18.5801L21.15 16.0509L24.35 13.1603H24C20.6667 13.1603 17.8333 14.2217 15.5 16.3445C13.1667 18.4672 12 21.0492 12 24.0903C12 24.8732 12.1 25.641 12.3 26.3938C12.5 27.1465 12.8 27.8842 13.2 28.6069L10.2 31.3168ZM24.05 43.8728L16.05 36.6463L24.05 29.4199L26.85 31.9491L23.65 34.8397H24C27.3333 34.8397 30.1667 33.7783 32.5 31.6555C34.8333 29.5328 36 26.9508 36 23.9097C36 23.1268 35.9 22.359 35.7 21.6062C35.5 20.8535 35.2 20.1158 34.8 19.3931L37.8 16.6832C38.5333 17.8274 39.0833 19.0017 39.45 20.2061C39.8167 21.4105 40 22.645 40 23.9097C40 27.9445 38.45 31.377 35.35 34.2074C32.25 37.0378 28.4667 38.4529 24 38.4529H23.65L26.85 41.3435L24.05 43.8728Z" fill="black"/>
</svg>
