<svg preserveAspectRatio="xMidYMid meet" width="48" height="48" viewBox="0 0 48 48" fill="none" xmlns="http://www.w3.org/2000/svg">
<path d="M10.585 31.42L19.745 40.58C20.525 41.36 21.805 41.36 22.585 40.58C23.365 39.8 23.365 38.52 22.585 37.74L16.825 32H37.165C38.265 32 39.165 31.1 39.165 30V10C39.165 8.9 38.265 8 37.165 8C36.065 8 35.165 8.9 35.165 10V28H16.825L22.585 22.26C23.365 21.48 23.365 20.2 22.585 19.42C21.805 18.64 20.525 18.64 19.745 19.42L10.585 28.58C9.805 29.36 9.805 30.64 10.585 31.42Z" fill="black"/>
</svg>
