<svg preserveAspectRatio="xMidYMid meet" width="48" height="48" viewBox="0 0 48 48" fill="none" xmlns="http://www.w3.org/2000/svg">
<path d="M30.9998 28H29.4198L28.8598 27.46C31.2598 24.66 32.4998 20.84 31.8198 16.78C30.8798 11.22 26.2398 6.78003 20.6398 6.10003C12.1798 5.06003 5.05979 12.18 6.09979 20.64C6.77979 26.24 11.2198 30.88 16.7798 31.82C20.8398 32.5 24.6598 31.26 27.4598 28.86L27.9998 29.42V31L36.4998 39.5C37.3198 40.32 38.6598 40.32 39.4798 39.5C40.2998 38.68 40.2998 37.34 39.4798 36.52L30.9998 28ZM18.9998 28C14.0198 28 9.99979 23.98 9.99979 19C9.99979 14.02 14.0198 10 18.9998 10C23.9798 10 27.9998 14.02 27.9998 19C27.9998 23.98 23.9798 28 18.9998 28Z" fill="black"/>
</svg>
