<svg preserveAspectRatio="xMidYMid meet" width="48" height="48" viewBox="0 0 48 48" fill="none" xmlns="http://www.w3.org/2000/svg">
<path d="M38.2802 25.872C38.3522 25.272 38.4002 24.648 38.4002 24C38.4002 23.352 38.3522 22.728 38.2562 22.128L42.3122 18.96C42.6722 18.672 42.7682 18.144 42.5522 17.736L38.7122 11.088C38.4722 10.656 37.9682 10.512 37.5362 10.656L32.7602 12.576C31.7522 11.808 30.6962 11.184 29.5202 10.704L28.8002 5.61599C28.7282 5.13599 28.3202 4.79999 27.8402 4.79999H20.1602C19.6802 4.79999 19.2962 5.13599 19.2242 5.61599L18.5042 10.704C17.3282 11.184 16.2482 11.832 15.2642 12.576L10.4882 10.656C10.0562 10.488 9.55221 10.656 9.31221 11.088L5.47221 17.736C5.23221 18.168 5.32821 18.672 5.71221 18.96L9.76821 22.128C9.67221 22.728 9.60021 23.376 9.60021 24C9.60021 24.624 9.64821 25.272 9.74421 25.872L5.68821 29.04C5.32821 29.328 5.23221 29.856 5.44821 30.264L9.28821 36.912C9.52821 37.344 10.0322 37.488 10.4642 37.344L15.2402 35.424C16.2482 36.192 17.3042 36.816 18.4802 37.296L19.2002 42.384C19.2962 42.864 19.6802 43.2 20.1602 43.2H27.8402C28.3202 43.2 28.7282 42.864 28.7762 42.384L29.4962 37.296C30.6722 36.816 31.7522 36.168 32.7362 35.424L37.5122 37.344C37.9442 37.512 38.4482 37.344 38.6882 36.912L42.5282 30.264C42.7682 29.832 42.6722 29.328 42.2882 29.04L38.2802 25.872ZM24.0002 31.2C20.0402 31.2 16.8002 27.96 16.8002 24C16.8002 20.04 20.0402 16.8 24.0002 16.8C27.9602 16.8 31.2002 20.04 31.2002 24C31.2002 27.96 27.9602 31.2 24.0002 31.2Z" fill="black"/>
</svg>
