<svg preserveAspectRatio="xMidYMid meet" width="48" height="48" viewBox="0 0 48 48" fill="none" xmlns="http://www.w3.org/2000/svg">
<path d="M14.3498 43.95C13.3498 43.95 12.4998 43.6 11.7998 42.9C11.0998 42.2 10.7498 41.35 10.7498 40.35C10.7498 39.35 11.0998 38.5 11.7998 37.8C12.4998 37.1 13.3498 36.75 14.3498 36.75C15.3498 36.75 16.1998 37.1 16.8998 37.8C17.5998 38.5 17.9498 39.35 17.9498 40.35C17.9498 41.35 17.5998 42.2 16.8998 42.9C16.1998 43.6 15.3498 43.95 14.3498 43.95ZM34.3498 43.95C33.3498 43.95 32.4998 43.6 31.7998 42.9C31.0998 42.2 30.7498 41.35 30.7498 40.35C30.7498 39.35 31.0998 38.5 31.7998 37.8C32.4998 37.1 33.3498 36.75 34.3498 36.75C35.3498 36.75 36.1998 37.1 36.8998 37.8C37.5998 38.5 37.9498 39.35 37.9498 40.35C37.9498 41.35 37.5998 42.2 36.8998 42.9C36.1998 43.6 35.3498 43.95 34.3498 43.95ZM10.2498 7.95H39.6998C40.4665 7.95 41.0498 8.3 41.4498 9C41.8498 9.7 41.8498 10.4 41.4498 11.1L34.6998 23.25C34.3331 23.8833 33.8581 24.3917 33.2748 24.775C32.6915 25.1583 32.0498 25.35 31.3498 25.35H16.1998L13.3998 30.55H37.9498V33.55H13.8498C12.4498 33.55 11.4415 33.0833 10.8248 32.15C10.2081 31.2167 10.2165 30.1667 10.8498 29L14.0498 23.1L6.4498 7H2.5498V4H8.3998L10.2498 7.95Z" fill="black"/>
</svg>
