<svg preserveAspectRatio="xMidYMid meet" width="48" height="48" viewBox="0 0 56 56" fill="none" xmlns="http://www.w3.org/2000/svg">
<path d="M4.01441 28.8377C3.90441 25.6879 4.4159 22.5473 5.51965 19.5952C6.62341 16.643 8.29783 13.9372 10.4473 11.6322C12.5968 9.32717 15.1792 7.46808 18.0471 6.16109C20.9151 4.85409 24.0124 4.12477 27.1622 4.01478C30.312 3.90478 33.4526 4.41627 36.4048 5.52002C39.3569 6.62378 42.0627 8.2982 44.3677 10.4477C46.6728 12.5971 48.5319 15.1796 49.8389 18.0475C51.1459 20.9155 51.8752 24.0128 51.9852 27.1626C52.0952 30.3124 51.5837 33.453 50.4799 36.4051C49.3762 39.3573 47.7017 42.0631 45.5523 44.3681C43.4028 46.6731 40.8204 48.5322 37.9524 49.8392C35.0845 51.1462 31.9872 51.8755 28.8374 51.9855C25.6876 52.0955 22.5469 51.584 19.5948 50.4803C16.6427 49.3765 13.9368 47.7021 11.6318 45.5526C9.3268 43.4032 7.46771 40.8207 6.16071 37.9528C4.85371 35.0848 4.1244 31.9875 4.01441 28.8377Z" stroke="#D5D1DA" stroke-width="8"/>
<path d="M4.01441 28.8377C3.88223 25.0526 4.64775 21.2899 6.2484 17.8573C7.84904 14.4247 10.2394 11.4197 13.2239 9.0879C16.2085 6.75611 19.7025 5.16378 23.4204 4.4411C27.1382 3.71842 30.9744 3.88591 34.6151 4.92988" stroke="#2E1A47" stroke-width="8" stroke-linecap="round"/>
</svg>
