<svg preserveAspectRatio="xMidYMid meet" width="48" height="48" viewBox="0 0 48 48" fill="none" xmlns="http://www.w3.org/2000/svg">
<path d="M24 42C23.4333 42 22.9583 41.8083 22.575 41.425C22.1917 41.0417 22 40.5667 22 40V32C22 31.4333 22.1917 30.9583 22.575 30.575C22.9583 30.1917 23.4333 30 24 30C24.5667 30 25.0417 30.1917 25.425 30.575C25.8083 30.9583 26 31.4333 26 32V34H40C40.5667 34 41.0417 34.1917 41.425 34.575C41.8083 34.9583 42 35.4333 42 36C42 36.5667 41.8083 37.0417 41.425 37.425C41.0417 37.8083 40.5667 38 40 38H26V40C26 40.5667 25.8083 41.0417 25.425 41.425C25.0417 41.8083 24.5667 42 24 42ZM8 38C7.43333 38 6.95833 37.8083 6.575 37.425C6.19167 37.0417 6 36.5667 6 36C6 35.4333 6.19167 34.9583 6.575 34.575C6.95833 34.1917 7.43333 34 8 34H16C16.5667 34 17.0417 34.1917 17.425 34.575C17.8083 34.9583 18 35.4333 18 36C18 36.5667 17.8083 37.0417 17.425 37.425C17.0417 37.8083 16.5667 38 16 38H8ZM16 30C15.4333 30 14.9583 29.8083 14.575 29.425C14.1917 29.0417 14 28.5667 14 28V26H8C7.43333 26 6.95833 25.8083 6.575 25.425C6.19167 25.0417 6 24.5667 6 24C6 23.4333 6.19167 22.9583 6.575 22.575C6.95833 22.1917 7.43333 22 8 22H14V20C14 19.4333 14.1917 18.9583 14.575 18.575C14.9583 18.1917 15.4333 18 16 18C16.5667 18 17.0417 18.1917 17.425 18.575C17.8083 18.9583 18 19.4333 18 20V28C18 28.5667 17.8083 29.0417 17.425 29.425C17.0417 29.8083 16.5667 30 16 30ZM24 26C23.4333 26 22.9583 25.8083 22.575 25.425C22.1917 25.0417 22 24.5667 22 24C22 23.4333 22.1917 22.9583 22.575 22.575C22.9583 22.1917 23.4333 22 24 22H40C40.5667 22 41.0417 22.1917 41.425 22.575C41.8083 22.9583 42 23.4333 42 24C42 24.5667 41.8083 25.0417 41.425 25.425C41.0417 25.8083 40.5667 26 40 26H24ZM32 18C31.4333 18 30.9583 17.8083 30.575 17.425C30.1917 17.0417 30 16.5667 30 16V8C30 7.43333 30.1917 6.95833 30.575 6.575C30.9583 6.19167 31.4333 6 32 6C32.5667 6 33.0417 6.19167 33.425 6.575C33.8083 6.95833 34 7.43333 34 8V10H40C40.5667 10 41.0417 10.1917 41.425 10.575C41.8083 10.9583 42 11.4333 42 12C42 12.5667 41.8083 13.0417 41.425 13.425C41.0417 13.8083 40.5667 14 40 14H34V16C34 16.5667 33.8083 17.0417 33.425 17.425C33.0417 17.8083 32.5667 18 32 18ZM8 14C7.43333 14 6.95833 13.8083 6.575 13.425C6.19167 13.0417 6 12.5667 6 12C6 11.4333 6.19167 10.9583 6.575 10.575C6.95833 10.1917 7.43333 10 8 10H24C24.5667 10 25.0417 10.1917 25.425 10.575C25.8083 10.9583 26 11.4333 26 12C26 12.5667 25.8083 13.0417 25.425 13.425C25.0417 13.8083 24.5667 14 24 14H8Z" fill="black"/>
</svg>
