<svg preserveAspectRatio="xMidYMid meet" width="120" height="88" viewBox="0 0 120 88" fill="none" xmlns="http://www.w3.org/2000/svg">
<rect x="0.5" y="0.5" width="119" height="87" rx="4.5" stroke="#9747FF" stroke-dasharray="10 5"/>
<path d="M32 27C34.76 27 37 29.24 37 32C37 32.65 36.87 33.26 36.64 33.83L39.56 36.75C41.07 35.49 42.26 33.86 42.99 32C41.26 27.61 36.99 24.5 31.99 24.5C30.59 24.5 29.25 24.75 28.01 25.2L30.17 27.36C30.74 27.13 31.35 27 32 27ZM22 24.27L24.28 26.55L24.74 27.01C23.08 28.3 21.78 30.02 21 32C22.73 36.39 27 39.5 32 39.5C33.55 39.5 35.03 39.2 36.38 38.66L36.8 39.08L39.73 42L41 40.73L23.27 23L22 24.27ZM27.53 29.8L29.08 31.35C29.03 31.56 29 31.78 29 32C29 33.66 30.34 35 32 35C32.22 35 32.44 34.97 32.65 34.92L34.2 36.47C33.53 36.8 32.79 37 32 37C29.24 37 27 34.76 27 32C27 31.21 27.2 30.47 27.53 29.8ZM31.84 29.02L34.99 32.17L35.01 32.01C35.01 30.35 33.67 29.01 32.01 29.01L31.84 29.02Z" fill="black"/>
<path d="M76 34C81.52 34 86 38.48 86 44C86 45.3 85.74 46.52 85.28 47.66L91.12 53.5C94.14 50.98 96.52 47.72 97.98 44C94.52 35.22 85.98 29 75.98 29C73.18 29 70.5 29.5 68.02 30.4L72.34 34.72C73.48 34.26 74.7 34 76 34ZM56 28.54L60.56 33.1L61.48 34.02C58.16 36.6 55.56 40.04 54 44C57.46 52.78 66 59 76 59C79.1 59 82.06 58.4 84.76 57.32L85.6 58.16L91.46 64L94 61.46L58.54 26L56 28.54ZM67.06 39.6L70.16 42.7C70.06 43.12 70 43.56 70 44C70 47.32 72.68 50 76 50C76.44 50 76.88 49.94 77.3 49.84L80.4 52.94C79.06 53.6 77.58 54 76 54C70.48 54 66 49.52 66 44C66 42.42 66.4 40.94 67.06 39.6ZM75.68 38.04L81.98 44.34L82.02 44.02C82.02 40.7 79.34 38.02 76.02 38.02L75.68 38.04Z" fill="black"/>
</svg>
