<svg width="120" height="120" viewBox="0 0 120 120" fill="none" xmlns="http://www.w3.org/2000/svg">
<path d="M74.4313 70.9545C67.4663 76.0041 57.3709 78.6983 48.6788 78.6983C36.4912 78.6983 25.5193 74.2644 17.2186 66.8902C16.5664 66.3103 17.1508 65.52 17.9334 65.9715C26.8915 71.0982 37.9677 74.1824 49.4092 74.1824C57.1256 74.1824 65.6142 72.612 73.4192 69.3534C74.5983 68.8607 75.5844 70.1129 74.4313 70.9545Z" fill="#FF9900"/>
<path d="M77.3245 67.6956C76.4375 66.5769 71.4394 67.1671 69.1959 67.4288C68.5125 67.5109 68.4081 66.9259 69.0238 66.5051C73.0046 63.7493 79.5365 64.5447 80.2983 65.4685C81.0601 66.3972 80.1001 72.8376 76.3593 75.9115C75.7853 76.3836 75.2375 76.1322 75.4931 75.5061C76.3331 73.4431 78.2167 68.8195 77.3245 67.6956Z" fill="#FF9900"/>
<path d="M69.3512 47.0515V44.3727C69.3512 43.9673 69.6641 43.6953 70.0399 43.6953H82.2326C82.6239 43.6953 82.937 43.9724 82.937 44.3727V46.6666C82.9317 47.0515 82.603 47.5544 82.0187 48.3498L75.7006 57.2226C78.0483 57.1661 80.5265 57.51 82.6552 58.6902C83.1352 58.9571 83.2657 59.347 83.3021 59.732V62.5903C83.3021 62.9803 82.8639 63.437 82.4048 63.2011C78.6536 61.2664 73.6711 61.056 69.5233 63.2215C69.1007 63.4474 68.6572 62.9957 68.6572 62.6058V59.891C68.6572 59.4549 68.6625 58.7108 69.1059 58.0487L76.4258 47.7237H70.0555C69.6641 47.7237 69.3512 47.4517 69.3512 47.0515Z" fill="#221F1F"/>
<path d="M24.876 63.7656H21.1665C20.8118 63.7399 20.5301 63.4782 20.5039 63.1446V44.419C20.5039 44.0443 20.8221 43.7467 21.2187 43.7467H24.6777C25.0377 43.7621 25.3247 44.0341 25.3508 44.3728V46.8206H25.4186C26.3213 44.4549 28.0169 43.3516 30.302 43.3516C32.6237 43.3516 34.0741 44.4549 35.1175 46.8206C36.015 44.4549 38.0549 43.3516 40.2409 43.3516C41.7956 43.3516 43.4965 43.9828 44.5347 45.3991C45.7086 46.9746 45.4686 49.2633 45.4686 51.2698L45.4634 63.0882C45.4634 63.4628 45.1452 63.7656 44.7487 63.7656H41.0444C40.674 63.7399 40.3766 63.4474 40.3766 63.0882V53.1634C40.3766 52.3731 40.4496 50.4026 40.2722 49.6533C39.9957 48.3961 39.1662 48.042 38.0915 48.042C37.194 48.042 36.255 48.6321 35.8741 49.5764C35.4932 50.5206 35.5297 52.1012 35.5297 53.1634V63.0882C35.5297 63.4628 35.2115 63.7656 34.815 63.7656H31.1107C30.735 63.7399 30.4429 63.4474 30.4429 63.0882L30.4376 53.1634C30.4376 51.0748 30.7872 48.0009 28.1525 48.0009C25.4864 48.0009 25.5908 50.9978 25.5908 53.1634V63.0882C25.5908 63.4628 25.2726 63.7656 24.876 63.7656Z" fill="#221F1F"/>
<path d="M93.4336 43.3516C98.9379 43.3516 101.917 48.0009 101.917 53.9127C101.917 59.6243 98.6248 64.1556 93.4336 64.1556C88.0286 64.1556 85.0859 59.5063 85.0859 53.7125C85.0859 47.8829 88.0651 43.3516 93.4336 43.3516ZM93.4649 47.1747C90.7311 47.1747 90.5589 50.8388 90.5589 53.1224C90.5589 55.4112 90.5224 60.2965 93.4336 60.2965C96.3083 60.2965 96.4441 56.3553 96.4441 53.9537C96.4441 52.3731 96.3763 50.4847 95.891 48.9862C95.4736 47.6827 94.6441 47.1747 93.4649 47.1747Z" fill="#221F1F"/>
<path d="M109.059 63.7656H105.365C104.995 63.7399 104.698 63.4474 104.698 63.0882L104.692 44.3574C104.724 44.0136 105.031 43.7467 105.407 43.7467H108.845C109.169 43.7621 109.435 43.9776 109.508 44.2701V47.1336H109.576C110.614 44.5729 112.07 43.3516 114.631 43.3516C116.296 43.3516 117.918 43.9417 118.962 45.5582C119.932 47.0567 119.932 49.5764 119.932 51.3879V63.1754C119.89 63.5039 119.582 63.7656 119.217 63.7656H115.497C115.158 63.7399 114.877 63.4936 114.84 63.1754V53.0043C114.84 50.9568 115.08 47.9599 112.518 47.9599C111.616 47.9599 110.786 48.5551 110.374 49.4583C109.852 50.6027 109.784 51.742 109.784 53.0043V63.0882C109.779 63.4628 109.456 63.7656 109.059 63.7656Z" fill="#221F1F"/>
<path d="M59.6363 54.8209V54.0306C56.9546 54.0306 54.1217 54.5951 54.1217 57.7049C54.1217 59.2804 54.9512 60.3478 56.3755 60.3478C57.419 60.3478 58.3529 59.7166 58.9424 58.6902C59.6729 57.4278 59.6363 56.2424 59.6363 54.8209ZM63.3771 63.7142C63.1319 63.9297 62.7771 63.9451 62.5005 63.8014C61.2693 62.7956 61.0502 62.3286 60.372 61.369C58.3373 63.4115 56.8973 64.0221 54.2573 64.0221C51.1374 64.0221 48.7061 62.1285 48.7061 58.3361C48.7061 55.3752 50.3391 53.3584 52.6608 52.3731C54.6746 51.5007 57.4868 51.3467 59.6363 51.1055V50.6334C59.6363 49.7661 59.7042 48.7398 59.1876 47.9906C58.7337 47.3183 57.8677 47.0412 57.1059 47.0412C55.6921 47.0412 54.4295 47.7545 54.1217 49.2325C54.059 49.5609 53.8139 49.8842 53.4799 49.8996L49.88 49.5198C49.5774 49.4531 49.2435 49.2119 49.3269 48.7552C50.1565 44.4651 54.0955 43.1719 57.6224 43.1719C59.4276 43.1719 61.7858 43.644 63.2101 44.9885C65.0154 46.6461 64.8432 48.8578 64.8432 51.2646V56.9505C64.8432 58.6595 65.5632 59.4086 66.2414 60.3324C66.4814 60.6609 66.5336 61.0559 66.231 61.3022C65.4745 61.9232 64.1283 63.0779 63.3876 63.7245L63.3771 63.7142Z" fill="#221F1F"/>
<path d="M11.0034 54.8209V54.0306C8.32177 54.0306 5.48879 54.5951 5.48879 57.7049C5.48879 59.2804 6.31832 60.3478 7.74265 60.3478C8.7861 60.3478 9.72 59.7166 10.3095 58.6902C11.04 57.4278 11.0034 56.2424 11.0034 54.8209ZM14.7443 63.7142C14.499 63.9297 14.1443 63.9451 13.8678 63.8014C12.6365 62.7956 12.4173 62.3286 11.7391 61.369C9.70434 63.4115 8.26437 64.0221 5.62443 64.0221C2.50449 64.0221 0.0732422 62.1285 0.0732422 58.3361C0.0732422 55.3752 1.70625 53.3584 4.02794 52.3731C6.04182 51.5007 8.85392 51.3467 11.0034 51.1055V50.6334C11.0034 49.7661 11.0713 48.7398 10.5548 47.9906C10.1009 47.3183 9.23479 47.0412 8.47307 47.0412C7.05919 47.0412 5.7966 47.7545 5.48879 49.2325C5.42617 49.5609 5.18096 49.8842 4.84705 49.8996L1.24713 49.5198C0.944528 49.4531 0.610622 49.2119 0.694098 48.7552C1.52365 44.4651 5.4627 43.1719 8.98958 43.1719C10.7948 43.1719 13.1529 43.644 14.5773 44.9885C16.3825 46.6461 16.2103 48.8578 16.2103 51.2646V56.9505C16.2103 58.6595 16.9303 59.4086 17.6085 60.3324C17.8485 60.6609 17.9007 61.0559 17.5981 61.3022C16.8416 61.9232 15.4956 63.0779 14.7547 63.7245L14.7443 63.7142Z" fill="#221F1F"/>
</svg>
