<svg width="80" height="80" viewBox="0 0 80 80" fill="none" xmlns="http://www.w3.org/2000/svg">
<g transform="translate(11.25 11.25)">

<g id="Design" clip-path="url(#clip0_0_60)">
<path id="Vector" d="M33.2555 57.348C43.7062 56.9048 51.3584 55.4992 51.3584 53.8151V48.2563C47.2487 49.32 39.5839 50.0544 30.709 50.1304C31.6166 52.9794 32.4991 55.3979 33.2681 57.348H33.2555Z" fill="var(--fill-0, #F9B38B)"/>
<path id="Vector_2" d="M29.4235 42.799C29.1462 42.799 28.8815 42.799 28.6041 42.799C28.6041 42.799 28.6041 42.8117 28.6041 42.8243C41.3619 43.0016 51.3462 44.5717 51.3462 46.4838V48.2818C53.401 47.75 54.5734 47.1422 54.5734 46.4838V39.1269C54.5734 41.1529 43.3159 42.799 29.4235 42.799Z" fill="var(--fill-0, #F9B38B)"/>
<path id="Vector_3" d="M30.684 50.0925C30.684 50.0925 30.684 50.1305 30.6966 50.1432C39.5715 50.0799 47.2363 49.3455 51.346 48.2692V46.4711C51.346 48.2818 42.4206 49.776 30.6714 50.0799L30.684 50.0925Z" fill="var(--fill-0, #F9B38B)"/>
<path id="Vector_4" d="M51.3462 46.471C51.3462 44.559 41.3619 42.9889 28.6041 42.8116C28.9319 44.0778 29.2597 45.3061 29.5874 46.471H51.3462Z" fill="var(--fill-0, #F9B38B)"/>
<path id="Vector_5" d="M30.6841 50.0926C42.4333 49.7887 51.3587 48.2818 51.3587 46.4838H29.5999C29.9655 47.75 30.3311 48.9656 30.6841 50.0926Z" fill="var(--fill-0, #F9B38B)"/>
<path id="Vector_6" d="M49.5181 39.1268H54.5859C54.5859 38.3671 53.0101 37.658 50.3123 37.0755V38.2151C50.3123 38.5317 50.0224 38.8229 49.5181 39.1141V39.1268Z" fill="var(--fill-0, #FBE3D7)"/>
<path id="Vector_7" d="M49.5181 39.1269C47.022 40.5704 38.6765 41.672 28.3771 41.862C28.4527 42.1785 28.5284 42.4824 28.6166 42.7863C28.8939 42.7863 29.1587 42.7863 29.436 42.7863C43.3283 42.7863 54.5859 41.1402 54.5859 39.1142H49.5181V39.1269Z" fill="var(--fill-0, #FBE3D7)"/>
<path id="Vector_8" d="M26.7886 34.5303C26.8517 34.8342 26.9021 35.1634 26.9651 35.4673C27.7719 35.4673 28.5914 35.4547 29.4234 35.4547C38.1218 35.4547 45.7866 36.1005 50.3123 37.0755V32.0232C49.6441 32.1371 48.913 32.2511 48.144 32.3524C44.4377 33.568 36.3443 34.4417 26.7886 34.5303Z" fill="var(--fill-0, #F9B38B)"/>
<path id="Vector_9" d="M26.9653 35.4674C27.2175 36.7336 27.4696 37.9365 27.7343 39.1268H49.5183C50.0225 38.8356 50.3125 38.5317 50.3125 38.2278V37.0882C45.7994 36.1005 38.122 35.4674 29.4236 35.4674C28.5916 35.4674 27.7721 35.4674 26.9653 35.48V35.4674Z" fill="var(--fill-0, #F9B38B)"/>
<path id="Vector_10" d="M49.518 39.1269H27.7341C27.9484 40.0639 28.1501 40.9756 28.377 41.862C38.6765 41.672 47.0219 40.5704 49.518 39.1269Z" fill="var(--fill-0, #F9B38B)"/>
<path id="Vector_11" d="M26.5488 33.2768C26.6245 33.7073 26.7001 34.1252 26.7884 34.5304C36.344 34.4417 44.45 33.568 48.1437 32.3524C43.6558 32.9602 37.6803 33.3274 31.0872 33.3274C29.5366 33.3274 28.0238 33.3021 26.5488 33.2641V33.2768Z" fill="var(--fill-0, #FBE3D7)"/>
<path id="Vector_12" d="M31.0875 25.9832C29.1335 25.9832 27.2552 25.9452 25.4272 25.8819C25.4777 26.3251 25.5407 26.7556 25.6037 27.1861C39.2943 27.2241 50.3124 28.8449 50.3124 30.8582V32.0232C54.0061 31.3774 56.25 30.5543 56.25 29.6553V22.2984C56.25 24.3244 44.9925 25.9705 31.1002 25.9705L31.0875 25.9832Z" fill="var(--fill-0, #F9B38B)"/>
<path id="Vector_13" d="M48.1439 32.3525C48.9129 32.2512 49.6315 32.1372 50.3122 32.0232V30.8583C50.3122 31.3901 49.5306 31.8966 48.1439 32.3398V32.3525Z" fill="var(--fill-0, #F9B38B)"/>
<path id="Vector_14" d="M50.3123 30.8709C50.3123 28.8576 39.2816 27.2368 25.6036 27.1988C25.7675 28.4524 25.9566 29.6806 26.1457 30.8709H50.3123Z" fill="var(--fill-0, #F9B38B)"/>
<path id="Vector_15" d="M26.1459 30.871C26.272 31.6814 26.4107 32.4918 26.5493 33.2768C28.0243 33.3148 29.5371 33.3401 31.0877 33.3401C37.6808 33.3401 43.6563 32.9729 48.1442 32.3651C49.5309 31.9093 50.3125 31.4028 50.3125 30.8836H26.1459V30.871Z" fill="var(--fill-0, #F9B38B)"/>
<path id="Vector_16" d="M47.4002 22.2985H56.2499C56.2499 21.4881 54.422 20.741 51.3586 20.1205V20.3231C51.3586 21.0449 49.8963 21.7287 47.4002 22.2985Z" fill="var(--fill-0, #FBE3D7)"/>
<path id="Vector_17" d="M47.4004 22.2984C42.9377 23.3241 35.1217 23.9952 26.1963 23.9952C25.8685 23.9952 25.5408 23.9952 25.213 23.9952C25.2887 24.6283 25.3643 25.2614 25.4399 25.8819C27.2679 25.9452 29.1462 25.9832 31.1002 25.9832C44.9925 25.9832 56.2501 24.3371 56.2501 22.3111H47.4004V22.2984Z" fill="var(--fill-0, #FBE3D7)"/>
<path id="Vector_18" d="M26.1963 16.6511C25.6417 16.6511 25.0996 16.6511 24.5575 16.6511C24.6079 17.3602 24.6583 18.0566 24.7088 18.7657C26.751 18.6897 28.8815 18.6391 31.0876 18.6391C39.4079 18.6391 46.7701 19.2342 51.3462 20.1459V12.9916C51.3462 15.0176 40.0886 16.6637 26.1963 16.6637V16.6511Z" fill="var(--fill-0, #F9B38B)"/>
<path id="Vector_19" d="M24.7086 18.753C24.7968 19.956 24.8977 21.1462 25.0237 22.3112H47.4002C49.8963 21.7414 51.3586 21.0702 51.3586 20.3358V20.1332C46.7825 19.2215 39.4203 18.6264 31.1 18.6264C28.8939 18.6264 26.7634 18.6771 24.7212 18.753H24.7086Z" fill="var(--fill-0, #F9B38B)"/>
<path id="Vector_20" d="M26.1962 24.0079C35.109 24.0079 42.925 23.3241 47.4003 22.3111H25.0238C25.0868 22.8809 25.1499 23.438 25.2129 24.0079C25.5407 24.0079 25.8684 24.0079 26.1962 24.0079Z" fill="var(--fill-0, #F9B38B)"/>
<path id="Vector_21" d="M51.3462 12.9789C51.3462 12.9156 51.2958 12.8396 51.2706 12.7763C51.0184 12.8396 50.7159 12.9156 50.4385 12.9789H51.3462Z" fill="var(--fill-0, #FBE3D7)"/>
<path id="Vector_22" d="M50.4384 12.979C45.9883 14.0173 38.1219 14.7011 29.1461 14.7011C27.5451 14.7011 25.9693 14.6757 24.4565 14.6377C24.4943 15.3089 24.5195 15.98 24.5573 16.6384C25.0994 16.6384 25.6415 16.6384 26.1962 16.6384C40.0885 16.6384 51.3461 14.9923 51.3461 12.9663H50.4384V12.979Z" fill="var(--fill-0, #FBE3D7)"/>
<path id="Vector_23" d="M29.1461 7.35679C27.3938 7.35679 25.692 7.33146 24.0405 7.28081L24.2674 7.35679C24.2674 8.01523 24.2674 8.67368 24.2927 9.31946C24.923 9.31946 25.5533 9.3068 26.1962 9.3068C39.6221 9.3068 50.5645 10.8516 51.2831 12.7763C53.2119 12.2571 54.3086 11.662 54.3086 11.0289V3.67203C54.3086 5.69801 43.0511 7.34413 29.1587 7.34413L29.1461 7.35679Z" fill="var(--fill-0, #F9B38B)"/>
<path id="Vector_24" d="M26.1962 9.30695C25.5532 9.30695 24.9229 9.30695 24.2926 9.31961C24.3052 10.5605 24.343 11.7761 24.3808 12.979H50.451C50.7409 12.9157 51.0309 12.8524 51.283 12.7764C50.5645 10.8391 39.6221 9.30695 26.1962 9.30695Z" fill="var(--fill-0, #F9B38B)"/>
<path id="Vector_25" d="M29.1461 14.7011C38.1345 14.7011 45.9884 14.0046 50.4384 12.979H24.3683C24.3935 13.5361 24.4187 14.0933 24.4439 14.6377C25.9693 14.6757 27.5325 14.7011 29.1335 14.7011H29.1461Z" fill="var(--fill-0, #F9B38B)"/>
<path id="Vector_26" d="M29.1461 1.54481C39.433 1.54481 47.7659 2.49449 47.7659 3.6721H54.296C54.296 1.64611 43.0385 0 29.1461 0C20.0947 0 12.1905 0.696433 7.75299 1.74741L11.4593 3.00099C13.9049 2.15261 20.8889 1.53215 29.1335 1.53215L29.1461 1.54481Z" fill="var(--fill-0, #FBE3D7)"/>
<path id="Vector_27" d="M29.1461 5.81197C25.2381 5.81197 21.6074 5.67269 18.6197 5.4321L24.0405 7.26815C25.6919 7.3188 27.3938 7.34413 29.1461 7.34413C43.0384 7.34413 54.296 5.69801 54.296 3.67203H47.7658C47.7658 4.84963 39.4329 5.79931 29.1461 5.79931V5.81197Z" fill="var(--fill-0, #FBE3D7)"/>
<path id="Vector_28" d="M29.4236 50.1559C28.8815 50.1559 28.3394 50.1559 27.81 50.1559C27.2679 50.1559 26.7384 50.1559 26.1963 50.1559C12.304 50.1559 1.04645 48.5098 1.04645 46.4838V53.8406C1.04645 55.8666 12.304 57.5127 26.1963 57.5127C28.6546 57.5127 31.012 57.4621 33.2559 57.3608C32.4869 55.4108 31.6045 52.9922 30.6968 50.1432C30.2682 50.1432 29.8522 50.1432 29.4236 50.1432V50.1559Z" fill="var(--fill-0, #AF7D64)"/>
<path id="Vector_29" d="M4.2737 46.4711V44.673C2.21885 45.2048 1.04645 45.8126 1.04645 46.4711H4.2737Z" fill="var(--fill-0, #FBE3D7)"/>
<path id="Vector_30" d="M4.27349 46.4711H1.03363C1.03363 48.4971 12.2912 50.1432 26.1835 50.1432C26.7256 50.1432 27.2677 50.1432 27.7971 50.1432C14.6612 50.0166 4.26088 48.4338 4.26088 46.4838L4.27349 46.4711Z" fill="var(--fill-0, #FBE3D7)"/>
<path id="Vector_31" d="M29.4234 50.1551C29.852 50.1551 30.268 50.1551 30.6966 50.1551C30.6966 50.1426 30.6966 50.1176 30.684 50.1051C29.7511 50.1301 28.7931 50.1426 27.8098 50.1551C28.3518 50.1551 28.8813 50.1551 29.4234 50.1551Z" fill="var(--fill-0, #F8AC88)"/>
<path id="Vector_32" d="M29.5872 46.471C29.2594 45.3061 28.9317 44.0905 28.6039 42.8116C28.6039 42.8116 28.6039 42.7989 28.6039 42.7863C19.023 42.7356 10.8162 41.9126 6.84515 40.7223C5.91228 40.5703 5.02982 40.4184 4.27344 40.2538V46.4584C4.27344 48.4084 14.6738 50.0038 27.8097 50.1178C28.7804 50.1178 29.7385 50.0925 30.684 50.0672C30.3184 48.9275 29.9654 47.7246 29.5998 46.4584L29.5872 46.471Z" fill="var(--fill-0, #AF7D64)"/>
<path id="Vector_33" d="M6.84519 40.735C10.8162 41.9253 19.023 42.7483 28.6039 42.799C28.5283 42.4951 28.4526 42.1785 28.3644 41.8746C27.3055 41.9 26.2465 41.9126 25.1498 41.9126C17.9263 41.9126 11.4213 41.4694 6.83258 40.7477L6.84519 40.735Z" fill="var(--fill-0, #FBE3D7)"/>
<path id="Vector_34" d="M27.7341 39.1269C27.4694 37.9366 27.2046 36.7337 26.9651 35.4674C26.9021 35.1635 26.8517 34.847 26.7886 34.5304C26.2465 34.5304 25.7045 34.5304 25.1624 34.5304C11.2701 34.5304 0.0125122 32.8843 0.0125122 30.8583V38.2152C0.0125122 38.9749 1.58832 39.684 4.2861 40.2665C5.05509 40.4311 5.92494 40.583 6.85782 40.735C11.4466 41.4441 17.9389 41.8999 25.175 41.8999C26.2718 41.8999 27.3307 41.8873 28.3896 41.8619C28.1753 40.9756 27.961 40.0639 27.7467 39.1269H27.7341Z" fill="var(--fill-0, #AF7D64)"/>
<path id="Vector_35" d="M5.93764 29.6554V28.4904C2.24395 29.1362 0 29.9593 0 30.8583H7.34956C6.4419 30.4784 5.92503 30.0732 5.92503 29.6554H5.93764Z" fill="var(--fill-0, #FBE3D7)"/>
<path id="Vector_36" d="M7.34956 30.871H0C0 32.897 11.2576 34.5431 25.1499 34.5431C25.7046 34.5431 26.234 34.5431 26.7761 34.5431C26.7005 34.1252 26.6122 33.7074 26.5366 33.2895C17.5734 33.0489 10.2743 32.1119 7.33696 30.8836L7.34956 30.871Z" fill="var(--fill-0, #FBE3D7)"/>
<path id="Vector_37" d="M26.1457 30.8709C25.9566 29.6807 25.7675 28.4524 25.6037 27.1988C25.5406 26.7683 25.4902 26.3251 25.4272 25.8946C14.7243 25.54 6.65616 24.1725 6.00063 22.5264C5.97541 22.5264 5.9502 22.5264 5.92499 22.5137V29.668C5.92499 30.0859 6.44185 30.5037 7.34952 30.8709C10.2868 32.0992 17.586 33.0362 26.5491 33.2768C26.4105 32.4917 26.2718 31.6813 26.1457 30.8709Z" fill="var(--fill-0, #AF7D64)"/>
<path id="Vector_38" d="M6.01318 22.5137C6.66872 24.1598 14.7368 25.5147 25.4397 25.8819C25.3641 25.2615 25.2885 24.6284 25.2128 23.9952C17.3464 23.9446 10.4128 23.3748 6.01318 22.5137Z" fill="var(--fill-0, #FBE3D7)"/>
<path id="Vector_39" d="M5.9375 22.2984V22.501C5.9375 22.501 5.9875 22.501 6.0125 22.5137C5.9875 22.4377 5.9375 22.3744 5.9375 22.2984Z" fill="var(--fill-0, #F8AC88)"/>
<path id="Vector_40" d="M25.0237 22.2985C24.9103 21.1336 24.8094 19.9433 24.7086 18.7404C24.6581 18.0439 24.5951 17.3475 24.5573 16.6257C11.434 16.4991 1.03363 14.9163 1.03363 12.9663V20.3232C1.03363 21.1336 2.86157 21.8806 5.92493 22.5011V22.2985C5.92493 22.3745 5.97536 22.4378 6.00057 22.5138C10.4002 23.3748 17.3338 23.9573 25.2002 23.9953C25.1372 23.4381 25.0741 22.8683 25.0111 22.2985H25.0237Z" fill="var(--fill-0, #AF7D64)"/>
<path id="Vector_41" d="M4.05918 11.2315C2.13039 11.7507 1.03363 12.3458 1.03363 12.9789H7.84112C5.63499 12.4725 4.2861 11.8773 4.04657 11.2315H4.05918Z" fill="var(--fill-0, #FBE3D7)"/>
<path id="Vector_42" d="M24.5573 16.6384C24.5195 15.98 24.4816 15.3089 24.4564 14.6377C17.4598 14.4478 11.5096 13.8274 7.85372 12.979H1.03363C1.03363 14.929 11.4213 16.5244 24.5573 16.6384Z" fill="var(--fill-0, #FBE3D7)"/>
<path id="Vector_43" d="M24.381 12.9789C24.3306 11.776 24.3054 10.5477 24.2928 9.31946C24.2928 8.66102 24.2675 8.01524 24.2675 7.35679L24.0406 7.28082C12.594 6.93893 3.98376 5.45743 3.98376 3.68469V11.0416C3.98376 11.1049 4.03419 11.1808 4.0594 11.2442C4.29893 11.8899 5.64782 12.4851 7.85395 12.9916C11.5098 13.8399 17.4601 14.4604 24.4566 14.6503C24.4314 14.1059 24.4062 13.5487 24.381 12.9916V12.9789Z" fill="var(--fill-0, #AF7D64)"/>
<path id="Vector_44" d="M18.6198 5.4322C13.7285 5.05233 10.5264 4.40654 10.5264 3.67212C10.5264 3.4442 10.8668 3.21628 11.4719 3.00101L7.76561 1.74744C5.39559 2.30458 3.99628 2.96303 3.99628 3.67212C3.99628 5.44486 12.6065 6.92636 24.0531 7.26825L18.6324 5.4322H18.6198Z" fill="var(--fill-0, #FBE3D7)"/>
<path id="Vector_45" d="M29.1462 1.5448C20.9015 1.5448 13.9176 2.16526 11.4719 3.01364C10.8668 3.2289 10.5264 3.44416 10.5264 3.68475C10.5264 4.41917 13.7411 5.06495 18.6198 5.44482C21.6201 5.68541 25.2382 5.82469 29.1462 5.82469C39.433 5.82469 47.7659 4.87501 47.7659 3.69741C47.7659 2.51981 39.433 1.57012 29.1462 1.57012V1.5448Z" fill="var(--fill-0, #B5B5B5)"/>
</g>
<defs>
<clipPath id="clip0_0_60">
<rect width="56.25" height="57.5" fill="white"/>
</clipPath>
</defs>

</g>
</svg>