<svg width="120" height="120" viewBox="0 0 120 120" fill="none" xmlns="http://www.w3.org/2000/svg">
<g clip-path="url(#clip0_1_1631)">
<path d="M32.7533 52.7588C32.7533 52.7588 27.7276 55.6218 32.7533 59.2657C32.885 59.3958 28.5181 62.2031 28.8946 64.4712C28.7628 64.7315 28.7628 66.5535 32.7344 67.2042C32.7344 66.9439 27.8593 69.5466 28.5746 71.8891C28.4993 72.1494 28.6311 74.1015 32.7344 74.7522C32.8662 74.4919 36.0472 75.533 36.0472 75.533C36.0472 75.533 30.0992 77.2248 29.9675 78.1358C29.8357 77.8755 28.7816 80.7385 30.758 81.6495C30.758 81.7796 36.499 83.2112 42.4282 82.6906C42.3905 82.6906 50.1832 84.6427 50.5973 86.4646C50.7291 86.4646 53.6654 94.2915 65.6932 98.456C65.6932 98.3258 68.7237 100.687 68.7237 100.687L86.9818 98.2329L84.4407 89.4578C84.4407 89.4578 80.3374 69.1562 73.3353 62.9096C73.467 62.9096 68.8366 56.5328 66.8602 55.6218C66.5967 55.8821 32.7156 52.7588 32.7156 52.7588H32.7533Z" fill="#B88263"/>
<path d="M35.2002 77.3921C35.2002 77.3921 44.461 77.7825 46.0421 78.8237C46.3057 78.9538 57.1476 82.2072 59.2746 78.0986C59.1428 77.8941 76.8739 73.5995 66.672 53.2979C66.5402 53.4281 56.9594 52.387 56.9594 52.387L35.2002 77.3921Z" fill="#703017"/>
<path d="M66.974 16.413L35.8975 15.0001C34.1846 14.9257 32.7164 16.2271 32.6411 17.9189L29.8742 76.9088C29.7989 78.6006 31.1165 80.0321 32.8482 80.1065L63.9058 81.5194C65.6187 81.5938 67.0869 80.2924 67.1622 78.6006L69.9291 19.6107C70.0044 17.9189 68.6868 16.4874 66.9551 16.413H66.974Z" fill="#2E1A47"/>
<path d="M35.3522 19.369L32.6794 76.2766C32.6418 77.0203 33.2441 77.671 33.997 77.7082L62.9653 79.0281C63.7371 79.0653 64.3771 78.489 64.4147 77.7268L67.0875 20.8191C67.1252 20.0754 66.5229 19.4247 65.7699 19.3876L36.8016 18.0862C36.0299 18.049 35.3899 18.6253 35.3522 19.3876V19.369Z" fill="#CCEDF3"/>
<path d="M51.0884 25.095C52.1802 25.095 53.046 24.2212 53.046 23.1615C53.046 22.1018 52.1613 21.228 51.0884 21.228C50.0155 21.228 49.1309 22.1018 49.1309 23.1615C49.1309 24.2212 50.0155 25.095 51.0884 25.095Z" fill="#2E1A47"/>
<path d="M51.0867 23.7562C51.4255 23.7562 51.689 23.496 51.689 23.1613C51.689 22.8267 51.4255 22.5664 51.0867 22.5664C50.7479 22.5664 50.4844 22.8267 50.4844 23.1613C50.4844 23.496 50.7479 23.7562 51.0867 23.7562Z" fill="#CCEDF3"/>
<path d="M53.8722 75.2541L43.3691 74.7708C43.0679 74.7708 42.8232 74.9752 42.8232 75.2727V75.3843C42.8232 75.6631 43.0303 75.9234 43.3315 75.9234L53.8346 76.4068C54.1358 76.4068 54.3805 76.2023 54.3805 75.9048V75.7933C54.3805 75.5144 54.1734 75.2541 53.8722 75.2541Z" fill="#2E1A47"/>
<path d="M69.834 66.2931C69.834 66.2931 58.6156 60.7343 55.3028 61.9055C55.4346 62.1658 48.8278 65.4193 47.2843 65.159C47.2843 65.159 40.9975 66.07 41.261 68.8029C41.261 68.4125 42.0515 73.2276 54.4934 70.3645C54.0982 70.3645 59.9144 72.4467 59.9144 72.4467C59.9144 72.4467 57.8627 82.8578 64.8648 89.625C64.8648 88.5839 69.8152 66.2931 69.8152 66.2931H69.834Z" fill="#6997A1"/>
<path d="M69.834 66.293C69.834 66.293 58.6156 59.6931 55.3028 60.8644C55.4346 61.1247 48.8278 64.3781 47.2843 64.1179C47.2843 64.1179 40.9975 65.0288 41.261 67.7617C41.261 67.3713 42.0515 72.1864 54.4934 69.3234C54.0982 69.3234 59.9144 71.4056 59.9144 71.4056C59.9144 71.4056 57.3545 82.7462 64.8648 89.625C65.1095 89.625 69.8152 66.293 69.8152 66.293H69.834Z" fill="#B88263"/>
<path d="M86.3232 94.4588L67.0674 98.6604C65.4675 98.7534 64.244 100.111 64.3381 101.691L64.3757 102.304C64.4699 103.885 65.8439 105.093 67.4627 104.981L86.7184 100.78C88.3184 100.687 89.5419 99.3297 89.4477 97.7494L89.4101 97.1359C89.316 95.5557 87.9419 94.3473 86.3232 94.4588Z" fill="#2E1A47"/>
</g>
<path d="M38.6076 32.4218L37.6226 51.8727C37.5549 53.2102 38.5832 54.3495 39.9194 54.4173L59.3513 55.4045C60.6875 55.4724 61.8256 54.4431 61.8933 53.1056L62.8783 33.6547C62.946 32.3172 61.9177 31.1779 60.5815 31.11L41.1496 30.1229C39.8134 30.055 38.6753 31.0843 38.6076 32.4218Z" fill="white"/>
<mask id="mask0_1_1631" style="mask-type:luminance" maskUnits="userSpaceOnUse" x="40" y="33" width="20" height="20">
<path d="M41.8735 33.4322L40.917 51.2073L58.6758 52.1656L59.6323 34.3905L41.8735 33.4322Z" fill="white"/>
</mask>
<g mask="url(#mask0_1_1631)">
<path d="M51.5271 33.9623L50.8935 33.9258C50.8226 33.9282 50.7597 33.9755 50.7622 34.0465L50.7257 34.6806C50.7282 34.7516 50.7755 34.8146 50.8464 34.8121L51.4799 34.8486C51.5508 34.8462 51.6137 34.7988 51.6113 34.7279L51.6477 34.0938C51.6453 34.0228 51.598 33.9598 51.5271 33.9623Z" fill="#2E1A47"/>
<path d="M52.4881 34.9045L51.7448 34.8653C51.6673 34.8614 51.5984 34.9219 51.5946 34.9995L51.5635 35.6012C51.5597 35.6788 51.6201 35.7478 51.6977 35.7516L53.1843 35.83C53.2619 35.8338 53.3308 35.7734 53.3346 35.6957L53.3657 35.0941C53.3695 35.0164 53.309 34.9475 53.2315 34.9437L52.4881 34.9045Z" fill="#2E1A47"/>
<path d="M48.9859 33.8229L48.262 33.7831C48.1715 33.7797 48.0899 33.8471 48.0866 33.9376L48.007 35.3869C48.0036 35.4775 48.071 35.5591 48.1614 35.5625L48.7174 35.5952C48.8078 35.5985 48.8816 35.68 48.8718 35.7707L48.8392 36.3272C48.8358 36.4177 48.9031 36.4994 48.9936 36.5028L49.5496 36.5354C49.64 36.5388 49.7216 36.4715 49.7249 36.3809L49.8517 34.0452C49.855 33.9547 49.7877 33.8731 49.6973 33.8697L48.9733 33.8298L48.9859 33.8229Z" fill="#2E1A47"/>
<path d="M44.452 35.3597L43.896 35.327C43.7151 35.3203 43.5584 35.4548 43.5454 35.6425L43.4869 36.7618C43.4801 36.9428 43.6145 37.0997 43.8021 37.1127L44.9203 37.1713C45.1012 37.1781 45.2579 37.0436 45.2709 36.8559L45.3294 35.7366C45.3361 35.5556 45.2017 35.3987 45.0142 35.3857L44.4582 35.353L44.452 35.3597Z" fill="#2E1A47"/>
<path d="M56.8832 36.0331L56.3079 36.0011C56.1334 35.9941 55.9832 36.1284 55.976 36.2965L55.9119 37.4418C55.9049 37.6164 56.0391 37.7668 56.2071 37.774L57.3513 37.8383C57.5258 37.8452 57.676 37.7109 57.6832 37.5428L57.7473 36.3975C57.7543 36.2229 57.6201 36.0725 57.4521 36.0653L56.8768 36.0333L56.8832 36.0331Z" fill="#2E1A47"/>
<path d="M48.14 36.4479C48.0367 36.445 47.9553 36.5188 47.946 36.6224L47.8715 38.0328C47.8686 38.1362 47.9424 38.2177 48.0459 38.2271L48.5695 38.2544C48.6728 38.2573 48.7542 38.1835 48.7635 38.0799L48.838 36.6695C48.8409 36.566 48.7671 36.4846 48.6636 36.4752L48.14 36.4479Z" fill="#2E1A47"/>
<path d="M46.3234 33.6811L42.3803 33.467C42.1088 33.4504 41.8772 33.6586 41.8608 33.9368L41.6284 38.2781C41.6119 38.5499 41.8198 38.7818 42.0978 38.7981L46.4351 39.031C46.7067 39.0476 46.9383 38.8395 46.9546 38.5612L47.1871 34.2199C47.2036 33.9481 46.9957 33.7163 46.7177 33.6999L46.3234 33.6811ZM46.2291 35.4538L46.1098 37.6278C46.0932 37.8996 45.8616 38.1077 45.5903 38.0976L43.0241 37.9592C42.7525 37.9426 42.5446 37.7108 42.5547 37.4392L42.6928 34.8707C42.7093 34.5989 42.9409 34.3907 43.2123 34.4009L45.7785 34.5393C46.05 34.5558 46.258 34.7877 46.2479 35.0592L46.2291 35.4538Z" fill="#2E1A47"/>
<path d="M58.7528 34.3481L54.6804 34.1255C54.4799 34.113 54.3046 34.2675 54.2923 34.4746L54.0426 39.0683C54.0301 39.2689 54.1845 39.4445 54.3914 39.4568L58.9809 39.7069C59.1814 39.7195 59.3567 39.565 59.369 39.3579L59.6187 34.7641C59.6312 34.5635 59.4768 34.388 59.2699 34.3756L58.7528 34.3481ZM58.6587 36.1273L58.5371 38.424C58.5246 38.6247 58.3494 38.7856 58.149 38.7731L55.3372 38.6237C55.1368 38.6112 54.9759 38.4358 54.9884 38.2352L55.1375 35.4209C55.15 35.2202 55.3252 35.0593 55.5257 35.0718L58.3374 35.2212C58.5379 35.2337 58.6987 35.4091 58.6862 35.6097L58.6587 36.1273Z" fill="#2E1A47"/>
<path d="M50.3139 39.2413L49.7514 39.2088C49.661 39.2054 49.5858 39.2726 49.5825 39.3631L49.5501 39.9261C49.5467 40.0166 49.6138 40.0918 49.7042 40.0952L50.2667 40.1276C50.3571 40.131 50.4323 40.0638 50.4356 39.9733L50.468 39.4104C50.4714 39.3198 50.4043 39.2446 50.3139 39.2413Z" fill="#2E1A47"/>
<path d="M48.6632 39.8531L48.6911 39.3485C48.694 39.245 48.6134 39.1509 48.51 39.148L48.0058 39.12C47.9025 39.1171 47.8085 39.1978 47.8055 39.3012L47.7304 40.6923C47.7275 40.7957 47.8082 40.8898 47.9115 40.8927L49.3013 40.968C49.4046 40.9709 49.4986 40.8902 49.5015 40.7868L49.5295 40.2821C49.5324 40.1787 49.4518 40.0845 49.3484 40.0816L48.8442 40.0536C48.7409 40.0507 48.6538 39.9568 48.6632 39.8531Z" fill="#2E1A47"/>
<path d="M52.5321 38.4676C52.4027 38.4591 52.3088 38.3525 52.3108 38.2233L52.3821 36.9099C52.3906 36.7804 52.2902 36.6741 52.1608 36.6656L49.9631 36.5469C49.8337 36.5384 49.7275 36.6389 49.719 36.7683L49.6949 37.1954C49.6864 37.3248 49.7868 37.4312 49.9161 37.4397L50.3428 37.4639C50.4721 37.4724 50.5661 37.5789 50.5641 37.7082L50.4928 39.0216C50.4843 39.151 50.5847 39.2574 50.714 39.2659L51.1407 39.2901C51.27 39.2986 51.364 39.4052 51.3619 39.5344L51.2906 40.8478C51.2822 40.9773 51.3826 41.0836 51.5119 41.0921L51.9386 41.1163C52.0679 41.1248 52.1742 41.0243 52.1826 40.8949L52.2539 39.5814C52.2624 39.452 52.3689 39.3579 52.498 39.36L52.9247 39.3842C53.054 39.3927 53.1603 39.2922 53.1687 39.1627L53.1929 38.7357C53.2014 38.6062 53.101 38.4999 52.9716 38.4914L52.545 38.4672L52.5321 38.4676Z" fill="#2E1A47"/>
<path d="M45.9879 39.8994L44.3977 39.8116C44.2943 39.8087 44.213 39.8825 44.2036 39.9861L44.1763 40.5102C44.1734 40.6136 44.2472 40.695 44.3507 40.7044L44.8743 40.7318C44.9776 40.7347 45.0516 40.8226 45.0487 40.926L45.0214 41.45C45.0185 41.5535 45.0922 41.6349 45.1958 41.6443L45.7193 41.6716C45.8227 41.6745 45.904 41.6007 45.9134 41.4971L45.9406 40.973C45.9436 40.8696 46.0314 40.7956 46.1347 40.7985L46.6583 40.8258C46.7616 40.8288 46.843 40.7549 46.8523 40.6513L46.8796 40.1273C46.8825 40.0238 46.8088 39.9424 46.7052 39.933L46.0005 39.8925L45.9879 39.8994Z" fill="#2E1A47"/>
<path d="M47.531 40.8731L47.0139 40.8455C46.9105 40.8426 46.8227 40.9167 46.8198 41.0201L46.7923 41.5377C46.7894 41.6411 46.8634 41.729 46.9667 41.7319L47.4838 41.7595C47.5871 41.7624 47.6749 41.6884 47.6779 41.5849L47.7054 41.0673C47.7083 40.9639 47.6343 40.876 47.531 40.8731Z" fill="#2E1A47"/>
<path d="M50.3823 41.0275L49.6325 40.9885C49.555 40.9847 49.4861 41.0452 49.4822 41.1228L49.4514 41.731C49.4476 41.8086 49.508 41.8776 49.5856 41.8814L50.1931 41.9123C50.2707 41.9161 50.3311 41.9851 50.3273 42.0627L50.2964 42.6708C50.2926 42.7484 50.3531 42.8174 50.4306 42.8212L51.0382 42.8521C51.1157 42.8559 51.1846 42.7955 51.1884 42.7178L51.2665 41.2234C51.2703 41.1457 51.2098 41.0768 51.1323 41.073L50.3825 41.034L50.3823 41.0275Z" fill="#2E1A47"/>
<path d="M53.9783 40.3301L53.3707 40.2992C53.2156 40.2916 53.084 40.4059 53.0764 40.5611L52.9613 42.6704C52.9537 42.8256 53.0679 42.9574 53.223 42.965L53.5592 42.9858C53.7143 42.9934 53.8459 42.8791 53.8535 42.7239L53.9215 41.501C53.9291 41.3457 54.0607 41.2314 54.2158 41.2391L54.552 41.2599C54.7071 41.2675 54.8387 41.1532 54.8463 40.998L54.8671 40.6614C54.8747 40.5062 54.7605 40.3745 54.6054 40.3668L53.9978 40.3359L53.9783 40.3301Z" fill="#2E1A47"/>
<path d="M49.4086 42.585L49.4352 42.0416C49.4383 41.9446 49.3646 41.8632 49.2741 41.8598L48.7312 41.8331C48.6344 41.83 48.553 41.9038 48.5496 41.9943L48.4696 43.4307C48.4665 43.5277 48.5402 43.6091 48.6307 43.6125L50.0658 43.6927C50.1627 43.6958 50.244 43.622 50.2474 43.5315L50.274 42.9881C50.2772 42.8911 50.2034 42.8097 50.113 42.8063L49.5701 42.7796C49.4732 42.7765 49.3994 42.6951 49.409 42.5979L49.4086 42.585Z" fill="#2E1A47"/>
<path d="M51.8051 42.8906L51.4237 42.8713C51.2815 42.8633 51.1626 42.9707 51.1545 43.113L51.1353 43.4947C51.1273 43.6371 51.2346 43.7561 51.3768 43.7642L51.7581 43.7834C51.9004 43.7915 52.0193 43.6841 52.0273 43.5418L52.0465 43.1601C52.0546 43.0177 51.9473 42.8987 51.8051 42.8906Z" fill="#2E1A47"/>
<path d="M43.9764 44.2493L43.0908 44.2021L42.2053 44.1548L42.1581 45.0412L43.0436 45.0885L43.9292 45.1357L44.8148 45.183L44.8619 44.2966L43.9764 44.2493Z" fill="#2E1A47"/>
<path d="M52.8134 45.3945L52.8371 44.9545C52.8458 44.8315 52.7518 44.7249 52.6289 44.7162L52.1894 44.6925C52.0665 44.6838 51.96 44.7778 51.9513 44.9008L51.9276 45.3408C51.9189 45.4638 51.8189 45.5576 51.6896 45.5491L51.25 45.5253C51.1271 45.5166 51.0334 45.4165 51.0418 45.287L51.0655 44.8471C51.0742 44.7241 50.9803 44.6175 50.8574 44.6088L50.4178 44.5851C50.2949 44.5763 50.1885 44.6704 50.1798 44.7934L50.1091 46.1262C50.1004 46.2492 50.1944 46.3557 50.3173 46.3645L53.4199 46.5297C53.5428 46.5385 53.6493 46.4444 53.658 46.3214L53.6817 45.8815C53.6904 45.7585 53.5964 45.6519 53.4735 45.6432L53.034 45.6194C52.9111 45.6107 52.8173 45.5106 52.8258 45.3811L52.8134 45.3945Z" fill="#2E1A47"/>
<path d="M49.3682 46.319C49.2777 46.3156 49.2106 46.2404 49.214 46.1499L49.2933 44.6941C49.2967 44.6036 49.2296 44.5284 49.1392 44.525L48.5703 44.4928C48.4799 44.4894 48.4128 44.4142 48.4161 44.3237L48.4483 43.7543C48.4517 43.6638 48.3846 43.5886 48.2941 43.5852L47.7252 43.5529C47.6348 43.5496 47.5677 43.4744 47.5711 43.3838L47.6032 42.8144C47.6066 42.7239 47.5395 42.6487 47.4491 42.6453L44.2171 42.4715C44.1266 42.4682 44.0596 42.393 44.0629 42.3024L44.0951 41.733C44.0985 41.6425 44.0314 41.5673 43.9409 41.5639L43.372 41.5317C43.2816 41.5283 43.2145 41.4531 43.2179 41.3626L43.25 40.7932C43.2534 40.7026 43.1863 40.6274 43.0959 40.6241L41.6414 40.5446C41.551 40.5412 41.4759 40.6084 41.4725 40.6989L41.4403 41.2683C41.437 41.3588 41.504 41.434 41.5945 41.4374L42.1634 41.4696C42.2538 41.473 42.3209 41.5482 42.3175 41.6387L42.2854 42.2081C42.282 42.2987 42.2069 42.3658 42.1164 42.3624L41.5475 42.3302C41.4571 42.3268 41.382 42.394 41.3786 42.4845L41.3464 43.0539C41.3431 43.1444 41.4102 43.2196 41.5006 43.223L45.6181 43.4441C45.7086 43.4474 45.7757 43.5226 45.7723 43.6132L45.7401 44.1826C45.7368 44.2731 45.8039 44.3483 45.8943 44.3517L46.4632 44.3839C46.5536 44.3873 46.6207 44.4625 46.6174 44.553L46.5852 45.1224C46.5818 45.213 46.6489 45.2882 46.7394 45.2915L48.1938 45.371C48.2842 45.3744 48.3513 45.4496 48.348 45.5401L48.2686 46.9959C48.2653 47.0864 48.3323 47.1616 48.4228 47.165L49.8772 47.2445C49.9677 47.2479 50.0428 47.1807 50.0462 47.0902L50.0783 46.5208C50.0817 46.4303 50.0146 46.3551 49.9242 46.3517L49.3553 46.3195L49.3682 46.319Z" fill="#2E1A47"/>
<path d="M58.3824 41.2711L58.4101 40.76C58.413 40.6565 58.3324 40.5624 58.2291 40.5595L55.9473 40.4372C55.844 40.4343 55.7499 40.515 55.747 40.6184L55.7193 41.1295C55.7164 41.233 55.6223 41.3137 55.519 41.3108L55.0084 41.283C54.905 41.2801 54.811 41.3608 54.8081 41.4642L54.686 43.7481C54.6831 43.8515 54.5891 43.9322 54.4857 43.9293L53.0895 43.8542C52.9862 43.8513 52.8922 43.932 52.8892 44.0354L52.8615 44.5466C52.8586 44.65 52.9393 44.7441 53.0426 44.747L55.3244 44.8693C55.4277 44.8723 55.5083 44.9664 55.5054 45.0698L55.4777 45.5809C55.4748 45.6844 55.5554 45.7785 55.6587 45.7814L56.1694 45.8092C56.2727 45.8121 56.3668 45.7314 56.3697 45.628L56.4446 44.2305C56.4475 44.1271 56.5415 44.0463 56.6448 44.0493L57.1555 44.077C57.2588 44.08 57.3395 44.1741 57.3366 44.2775L57.2617 45.675C57.2588 45.7784 57.1647 45.8591 57.0614 45.8562L56.5507 45.8285C56.4474 45.8255 56.3534 45.9062 56.3505 46.0097L56.2284 48.2935C56.2255 48.3969 56.1315 48.4777 56.0281 48.4747L54.6319 48.3997C54.5286 48.3968 54.4346 48.4775 54.4316 48.5809L54.4039 49.092C54.401 49.1955 54.4816 49.2896 54.585 49.2925L56.8667 49.4148C56.9701 49.4177 57.0641 49.337 57.067 49.2336L57.1891 46.9497C57.192 46.8463 57.286 46.7656 57.3893 46.7685L58.7856 46.8436C58.8889 46.8465 58.9829 46.7658 58.9858 46.6623L59.0136 46.1512C59.0165 46.0478 58.9358 45.9537 58.8325 45.9507L58.3218 45.923C58.2185 45.92 58.1379 45.8259 58.1408 45.7225L58.1685 45.2114C58.1714 45.1079 58.2654 45.0272 58.3688 45.0302L58.8795 45.0579C58.9828 45.0609 59.0768 44.9801 59.0797 44.8767L59.1074 44.3656C59.1104 44.2622 59.0297 44.168 58.9264 44.1651L58.4157 44.1373C58.3124 44.1344 58.2318 44.0403 58.2347 43.9369L58.2624 43.4257C58.2653 43.3223 58.1847 43.2282 58.0813 43.2253L57.5707 43.1975C57.4673 43.1946 57.3867 43.1004 57.3896 42.997L57.4173 42.4859C57.4203 42.3825 57.3396 42.2883 57.2363 42.2854L56.7256 42.2576C56.6223 42.2547 56.5283 42.3354 56.5253 42.4388L56.4976 42.95C56.4947 43.0534 56.4007 43.1341 56.2973 43.1312L55.7867 43.1034C55.6834 43.1005 55.6027 43.0064 55.6056 42.9029L55.6334 42.3918C55.6363 42.2884 55.7303 42.2077 55.8336 42.2106L56.3443 42.2384C56.4476 42.2413 56.5417 42.1606 56.5446 42.0572L56.5723 41.546C56.5752 41.4426 56.6692 41.3619 56.7726 41.3648L57.2832 41.3926C57.3866 41.3955 57.4672 41.4896 57.4643 41.5931L57.4366 42.1042C57.4337 42.2076 57.5143 42.3017 57.6176 42.3047L58.1283 42.3324C58.2316 42.3354 58.3123 42.4295 58.3093 42.5329L58.2816 43.0441C58.2787 43.1475 58.3593 43.2416 58.4627 43.2445L58.9733 43.2723C59.0767 43.2752 59.1707 43.1945 59.1736 43.0911L59.2485 41.6936C59.2514 41.5902 59.1708 41.4961 59.0674 41.4931L58.5568 41.4654C58.4535 41.4624 58.3728 41.3683 58.3757 41.2649L58.3824 41.2711Z" fill="#2E1A47"/>
<path d="M58.6931 48.6099L58.176 48.5824C58.0726 48.5794 57.9848 48.6535 57.9819 48.7569L57.9544 49.2745C57.9515 49.3779 58.0255 49.4658 58.1288 49.4687L58.6459 49.4963C58.7493 49.4992 58.8371 49.4252 58.84 49.3217L58.8675 48.8042C58.8704 48.7007 58.7964 48.6128 58.6931 48.6099Z" fill="#2E1A47"/>
<path d="M43.7797 47.8015L43.1333 47.7654C42.9975 47.7571 42.885 47.8643 42.8768 48.0002L42.8046 49.2878C42.7963 49.4237 42.9034 49.5363 43.0392 49.5446L44.3256 49.6169C44.4614 49.6252 44.5739 49.518 44.5822 49.3821L44.6543 48.0945C44.6626 47.9586 44.5555 47.846 44.4197 47.8377L43.7733 47.8017L43.7797 47.8015Z" fill="#2E1A47"/>
<path d="M54.5733 45.8636L54.5415 46.4459C54.538 46.53 54.4628 46.5971 54.3788 46.5935L53.797 46.5617C53.713 46.5581 53.6379 46.6253 53.6343 46.7094L53.6026 47.2917C53.599 47.3757 53.5239 47.4429 53.4399 47.4393L50.195 47.2659C50.111 47.2623 50.0359 47.3295 50.0323 47.4136L50.0006 47.9959C49.997 48.08 49.9218 48.1471 49.8378 48.1435L49.2561 48.1117C49.1721 48.1081 49.0969 48.1753 49.0933 48.2593L49.0144 49.728C49.0109 49.8121 49.0715 49.8875 49.162 49.8909L49.7437 49.9227C49.8277 49.9263 49.9029 49.8591 49.9064 49.7751L49.9382 49.1927C49.9418 49.1087 50.0169 49.0415 50.1009 49.0451L51.5682 49.1242C51.6522 49.1278 51.7274 49.0606 51.7309 48.9765L51.7627 48.3942C51.7663 48.3102 51.8414 48.243 51.9254 48.2466L52.5072 48.2784C52.5912 48.282 52.6583 48.3572 52.6547 48.4413L52.6229 49.0236C52.6193 49.1077 52.68 49.1831 52.7704 49.1865L53.3522 49.2183C53.4362 49.2218 53.5113 49.1547 53.5149 49.0706L53.5467 48.4883C53.5503 48.4042 53.6254 48.3371 53.7094 48.3407L54.2912 48.3725C54.3752 48.3761 54.4503 48.3089 54.4539 48.2248L54.4856 47.6425C54.4892 47.5585 54.5643 47.4913 54.6483 47.4949L55.2301 47.5267C55.3141 47.5303 55.3892 47.4631 55.3928 47.3791L55.4717 45.9104C55.4753 45.8263 55.4146 45.7509 55.3242 45.7475L54.7424 45.7157C54.6584 45.7121 54.5831 45.7728 54.5797 45.8634L54.5733 45.8636Z" fill="#2E1A47"/>
<path d="M56.8512 50.287L56.2694 50.2552C56.1854 50.2516 56.1165 50.3121 56.1065 50.3964L56.0748 50.9787C56.0712 51.0628 56.1316 51.1317 56.2158 51.1418L56.7976 51.1736C56.8816 51.1772 56.9505 51.1167 56.9605 51.0324L56.9923 50.4501C56.9958 50.366 56.9354 50.297 56.8512 50.287Z" fill="#2E1A47"/>
<path d="M45.6508 46.1235L41.6173 45.906C41.3911 45.8943 41.197 46.0689 41.1854 46.2953L40.9395 50.8114C40.9279 51.0378 41.1023 51.2321 41.3285 51.2437L45.8405 51.4901C46.0667 51.5017 46.2608 51.3272 46.2724 51.1008L46.5183 46.5846C46.5299 46.3582 46.3555 46.164 46.1293 46.1523L45.6508 46.1235ZM45.5565 47.8962L45.4336 50.1542C45.422 50.3807 45.2279 50.5552 45.0017 50.5436L42.2675 50.398C42.0412 50.3863 41.8669 50.1921 41.8785 49.9656L42.0238 47.2289C42.0354 47.0025 42.2295 46.828 42.4557 46.8396L45.1899 46.9852C45.4161 46.9968 45.5905 47.1911 45.5789 47.4175L45.5501 47.8964L45.5565 47.8962Z" fill="#2E1A47"/>
<path d="M48.1334 49.668L48.1651 49.0857C48.1687 49.0016 48.1016 48.9264 48.0176 48.9228L47.4358 48.891C47.3518 48.8874 47.2767 48.9545 47.2731 49.0386L47.1473 51.4001C47.1437 51.4842 47.2043 51.5596 47.2948 51.563L48.7621 51.642C48.8461 51.6456 48.9212 51.5785 48.9248 51.4944L49.0037 50.0257C49.0073 49.9417 48.9402 49.8664 48.8562 49.8629L48.2744 49.8311C48.1904 49.8275 48.1233 49.7523 48.1269 49.6682L48.1334 49.668Z" fill="#2E1A47"/>
<path d="M51.7158 49.2743L51.6841 49.8567C51.6805 49.9407 51.6054 50.0079 51.5214 50.0043L50.054 49.9252C49.97 49.9216 49.8947 49.9823 49.8913 50.0729L49.8596 50.6552C49.856 50.7392 49.9231 50.8145 50.0071 50.818L51.4744 50.8971C51.5584 50.9007 51.6255 50.9759 51.6219 51.06L51.5902 51.6423C51.5866 51.7264 51.6537 51.8016 51.7377 51.8052L52.3195 51.837C52.4035 51.8405 52.4786 51.7734 52.4822 51.6893L52.608 49.3278C52.6116 49.2438 52.5445 49.1686 52.4605 49.165L51.8787 49.1332C51.7947 49.1296 51.7196 49.1967 51.716 49.2808L51.7158 49.2743Z" fill="#2E1A47"/>
<path d="M54.3566 49.9074L54.3752 49.5064C54.3835 49.3705 54.2764 49.2579 54.1406 49.2496L53.7399 49.231C53.6042 49.2228 53.4917 49.3299 53.4834 49.4658L53.3641 51.6398C53.3558 51.7757 53.4629 51.8883 53.5987 51.8966L54.8851 51.9689C55.0209 51.9772 55.1334 51.87 55.1416 51.7341L55.2138 50.4465C55.2221 50.3106 55.115 50.198 54.9792 50.1897L54.5786 50.1711C54.4428 50.1628 54.3421 50.05 54.344 49.9143L54.3566 49.9074Z" fill="#2E1A47"/>
<path d="M57.8471 51.2348L57.1102 51.1954C57.0262 51.1918 56.9573 51.2523 56.9473 51.3366L56.9156 51.9189C56.912 52.003 56.9724 52.0719 57.0566 52.082L58.5304 52.1608C58.6144 52.1644 58.6833 52.1039 58.6933 52.0196L58.7251 51.4373C58.7287 51.3532 58.6682 51.2843 58.584 51.2742L57.8471 51.2348Z" fill="#2E1A47"/>
</g>
<defs>
<clipPath id="clip0_1_1631">
<rect width="63" height="90" fill="white" transform="translate(28.5 15)"/>
</clipPath>
</defs>
</svg>
