<svg width="120" height="120" viewBox="0 0 120 120" fill="none" xmlns="http://www.w3.org/2000/svg">
<g clip-path="url(#clip0_1_335)">
<path d="M46.5534 29.1779C46.9474 29.1089 46.9803 29.0054 47.5385 29.1779C48.0967 29.3504 49.5742 30.3852 48.5892 29.1779C47.6041 27.9705 47.2758 27.4531 47.2758 27.4531C47.2758 27.4531 47.2101 26.3492 47.243 26.0387C47.2758 25.7283 46.1594 25.9698 47.4728 25.0384C48.7862 24.107 48.7862 23.693 48.7862 23.693C48.7862 23.693 49.9026 22.9686 50.1653 22.7616C50.428 22.5546 52.0369 22.7271 52.0369 22.7271C52.0369 22.7271 53.1533 22.8306 53.6458 22.5891C54.1383 22.3477 53.8428 22.6581 55.4517 22.1407C57.0607 21.6233 57.1592 21.2783 57.5532 21.5888C57.9472 21.8992 57.5532 20.2779 57.9472 21.8647C58.3412 23.4515 60.5084 21.0023 58.0129 24.0725C55.5174 27.1426 54.1712 28.1085 54.1712 28.1085C53.2189 29.0399 51.3145 29.4538 52.2339 29.7298C53.1533 30.0058 53.1533 29.4538 53.7443 29.6953C54.3353 29.9368 54.9592 28.8329 54.3353 29.9368C53.7115 31.0407 52.6608 32.317 52.6608 32.317L53.5473 33.0759C53.5473 33.0759 54.8607 32.041 55.5502 31.7996C56.2398 31.5581 56.601 31.1786 57.1592 31.2476C57.7174 31.3166 60.6397 31.3511 60.6397 31.3511C60.6397 31.3511 62.38 31.1097 62.6426 31.0062C62.9053 30.9027 63.9889 30.5577 63.9889 30.5577L65.1381 31.3511C65.1381 31.3511 65.5321 32.5585 65.1709 32.7655C64.8098 32.9724 65.1709 33.7658 65.1709 33.7658C65.1709 33.7658 63.7262 32.593 63.8247 33.8003C63.9232 35.0077 64.2516 34.9042 63.956 35.6286C63.6605 36.353 62.5441 37.3879 62.7411 37.7674C62.9382 38.1468 62.6755 39.2852 62.3143 39.8026C61.9531 40.3201 61.5919 41.6309 61.5919 41.6309C60.3442 42.0794 58.5382 43.0108 58.5382 43.0108C58.5382 43.0108 58.9979 41.7689 60.18 42.9763C61.3621 44.1836 62.5113 44.3216 61.9531 44.2526C61.3949 44.1836 60.0487 45.529 60.0487 45.529C59.0964 45.7704 59.6546 45.1495 58.2099 45.5635L56.7651 46.0119C56.3055 46.7363 55.6159 46.4604 56.3055 46.7363C56.995 47.0123 60.8367 46.6328 60.8367 46.6328C60.8367 46.6328 66.1232 47.3918 65.4665 47.9092C64.8098 48.4266 65.6963 50.8414 65.6963 50.8414C65.6963 50.8414 66.8127 52.1177 67.0097 52.4282C67.2067 52.7386 67.2396 54.4289 67.7649 55.4293C68.2903 56.4297 68.7828 58.327 68.7828 58.327L70.7529 59.6033C70.7529 59.6033 71.6395 60.1553 72.6902 60.7072C73.7409 61.2591 73.9708 61.7421 74.5618 62.7425C75.1528 63.7428 74.7588 62.8459 75.1528 63.7428C75.5468 64.6397 75.7767 65.7436 75.7767 65.7436C75.7767 65.7436 76.7946 67.4339 77.0573 67.6409C77.3199 67.8479 76.2364 68.8827 76.2364 68.8827L75.2513 68.0893C75.2513 68.0893 74.529 70.1246 75.3827 69.5037C76.2364 68.8827 77.1229 70.3661 77.6155 70.4696C78.108 70.573 79.4542 71.5389 79.4871 71.9529C79.5199 72.3668 79.6512 71.4354 79.4871 72.3668L79.3229 73.2982L78.305 74.954V75.9544C79.3886 76.6443 78.6333 76.8513 79.3886 76.6443C80.1438 76.4374 80.3408 75.9199 80.3408 75.9199V75.023C80.3408 75.023 81.8512 74.3676 82.2124 74.3676C82.5736 74.3676 82.9676 74.0571 83.5258 74.3331C84.084 74.6091 85.3317 75.092 85.4302 75.4025C85.5287 75.7129 86.7108 76.5409 86.7108 76.5409C86.7108 76.5409 86.2511 77.5757 86.7436 77.9897C87.2362 78.4036 87.4332 79.5765 87.3675 79.9904L87.269 80.4044C87.269 80.4044 86.4809 83.1641 86.4809 83.4745C86.4809 83.785 85.8242 84.4059 85.7257 84.7164C85.6272 85.0269 86.1854 84.199 85.6272 85.0269L85.069 85.8548L83.7885 86.9931L82.2124 88.1315L82.081 88.6489C82.081 88.6489 81.1945 89.6838 82.081 89.7528C82.9676 89.8218 86.0869 89.6493 86.0869 89.6493H86.9735C86.9735 89.6493 87.4988 90.4082 87.5973 90.7187C87.6958 91.0292 88.4182 90.3047 87.663 91.0292C86.9078 91.7536 87.663 91.3396 86.9078 91.7536C86.1526 92.1675 85.2989 92.7195 85.2989 92.7195C85.2989 92.7195 81.6542 94.8237 81.7855 95.2377C81.9169 95.6516 81.7199 96.1346 81.3587 96.2725C80.9975 96.4105 80.4064 96.2036 80.1109 96.2725C79.8154 96.3415 79.3557 96.1346 78.7647 96.3415C78.1737 96.5485 78.6662 96.3415 77.4184 96.376C76.1707 96.4105 76.5647 96.6865 75.12 96.514L73.6752 96.3415L71.935 96.6865L72.92 97.2729C72.92 97.2729 72.5588 97.9973 71.8693 97.9973H71.1798C71.1798 97.9973 69.7022 97.1349 69.341 97.3419C68.9798 97.5489 68.4216 97.3419 67.6992 98.1008C66.9769 98.8597 67.2396 98.8253 66.5829 99.0322C65.9261 99.2392 65.4336 98.8597 64.8754 99.0667L64.3172 99.2737L62.1829 98.6183C62.1829 98.6183 63.2337 97.7904 61.2964 98.2388L59.392 98.6873C59.392 98.6873 59.4905 98.6873 59.3263 99.4117L59.1621 100.136C59.1621 100.136 58.6039 101.378 58.1442 101.895C57.6845 102.413 57.2905 102.723 56.995 102.62C56.6995 102.516 55.8129 102.033 55.5502 102.068H54.4667C53.81 102.102 52.4637 101.654 52.2667 101.964C52.0697 102.275 52.9234 101.757 52.0697 102.275L51.216 102.792L49.8041 104.241C49.8041 104.241 49.4757 105.173 49.2787 105.173H49.0817C49.0817 105.173 48.9504 104.379 48.3922 104.379H47.8011L46.7504 104.897V104.172C47.9653 103.344 47.3086 103.862 47.9653 103.344C48.622 102.827 48.9504 102.723 49.2131 102.62C49.4757 102.516 49.0817 102.516 49.7713 101.999C50.4608 101.481 51.3473 99.9291 51.3473 99.9291C51.3473 99.9291 51.3473 99.9291 51.807 98.9977C52.2667 98.0663 51.413 99.2047 52.2667 98.0663L53.1204 96.928L53.7115 95.7896C53.7443 94.8927 52.3324 94.2028 54.2697 93.6508C56.2069 93.0989 56.6995 93.3749 56.6995 93.3749C58.1442 93.5474 60.0815 93.7888 60.0815 93.7888C60.0815 93.7888 61.2307 93.6508 61.3292 93.3404L61.4277 93.0299C61.4277 93.0299 62.2486 91.5811 62.7411 91.1671C63.2337 90.7532 64.7441 89.8908 64.7112 89.4079C64.6784 88.9249 65.1381 87.7865 64.5799 87.6831C64.0217 87.5796 63.8247 87.6831 63.6277 88.097C63.4307 88.511 63.2665 88.511 63.0695 89.2354C62.8725 89.9598 64.1531 89.8218 62.9053 89.9598C61.6576 90.0978 60.771 89.6148 60.771 89.9253C60.771 90.2357 61.8546 90.5117 60.6069 90.8567L59.3591 91.2016L56.9293 90.7532C56.9293 90.7532 56.5025 88.9594 56.2398 89.4423C55.9771 89.9253 56.5353 89.4423 55.9771 89.9598C55.4189 90.4772 54.8279 90.6842 54.8279 90.6842L54.6965 89.6838L54.1712 88.5799C52.004 88.8559 50.9205 88.5799 51.1175 89.0629C51.3145 89.5458 53.3503 89.4079 51.3145 89.5458L49.3116 89.6838L48.9175 88.6834C48.9175 88.6834 47.7355 87.821 48.3922 87.1656C49.0489 86.5102 50.8548 86.0962 51.0518 85.9927C51.2488 85.8893 54.0727 83.992 54.0727 83.992C54.0727 83.992 54.007 83.578 54.4667 82.7846C54.9264 81.9912 54.8279 81.4738 54.8935 80.9563C54.9592 80.4389 54.7622 79.6455 54.8607 79.335C54.9592 79.0246 54.8279 77.2998 54.8279 77.2998C54.8279 77.2998 53.9742 76.8168 53.9413 77.1273C53.9085 77.4377 56.0428 75.8509 53.8757 77.4377L51.7085 79.0246C51.413 78.5416 50.2309 78.0587 50.8877 77.5412C51.5444 77.0238 51.807 76.0924 52.2996 75.8854C52.7921 75.6785 53.2846 75.0575 53.2846 75.0575L51.5772 73.5742C51.5772 73.5742 51.0518 72.2289 51.7414 72.1944C52.4309 72.1599 52.9891 72.2978 53.2189 72.1599C53.4488 72.0219 53.416 72.1599 53.8428 72.5048C54.2697 72.8498 54.9592 73.4017 54.9592 73.4017C55.9114 73.4017 55.8129 72.6773 57.3562 72.7463C58.8994 72.8153 60.0487 72.8843 60.0487 72.8843L60.9024 71.9874C60.9024 71.9874 60.5084 70.9525 60.4755 70.642C60.4427 70.3316 60.1472 69.3312 60.2457 68.7103C60.3442 68.0893 59.9173 67.5029 60.3113 67.2959C60.7054 67.089 60.8695 66.882 60.968 66.5715C61.0665 66.261 61.1322 65.1572 61.1322 65.1572L59.8845 64.8812L58.7024 64.0188L57.7174 63.0184V61.7076V60.0863L57.98 59.0514C58.6367 58.12 59.392 57.8095 59.2935 57.4991C59.1949 57.1886 60.2457 57.3611 59.1949 57.1886C58.1442 57.0161 57.9472 56.7057 57.4547 57.0161C56.9622 57.3266 56.2069 57.6716 56.2069 57.6716C56.2069 57.6716 55.8458 58.396 55.4517 58.6029L55.0577 58.8099C55.0577 58.8099 55.0577 58.7064 54.4667 58.7409C53.8757 58.7754 54.6637 59.0514 53.8757 58.7409C53.0876 58.4305 53.2846 57.9475 53.0876 58.465L52.9234 58.9824C52.9234 58.9824 52.2667 60.2243 52.1682 59.7068C52.0697 59.1894 52.5294 59.3964 52.0697 59.1894C51.61 58.9824 52.5622 59.5688 51.5772 59.0169C50.5921 58.465 49.6399 58.12 49.6399 58.12C49.7713 59.8793 50.2638 60.3622 49.7713 59.8793L49.2787 59.3964C49.2787 59.3964 48.6877 58.327 48.6877 58.1545V57.982L48.8519 57.3611C48.8519 57.3611 49.0161 56.2572 49.3772 55.7398L49.7384 55.2223L51.5444 53.946L51.3145 52.4282L50.8877 50.9103L49.6071 49.9445C49.6071 49.9445 48.9175 49.8755 48.8519 50.9793L48.7862 52.0832C48.228 52.3937 47.7355 52.0832 47.7355 52.0832C47.7355 52.0832 47.3743 52.3937 46.8818 52.8076L46.4221 53.2216L45.5684 53.463C46.4221 53.2216 45.24 52.3592 45.5355 51.9452L45.7982 51.5313C45.7982 51.5313 45.8639 50.8069 45.9624 50.2204C46.0609 49.634 46.0281 48.3921 46.0281 48.3921C44.8788 48.3921 44.8788 49.1165 44.7146 49.427C44.5505 49.7375 44.7146 50.1514 43.8609 50.5654L43.0072 50.9793C43.0072 50.9793 42.3177 50.9103 42.2192 50.5999C42.1207 50.2894 42.2192 49.703 42.2192 49.703C42.7774 48.2886 41.8252 48.8061 42.7774 48.2886L44.4848 47.3228L45.6012 45.322C45.6012 45.322 46.1594 43.8387 47.0788 42.8038C47.9982 41.7689 48.1952 40.7685 48.1952 40.7685L45.6997 41.6309L42.6789 43.9422L42.449 42.6313C42.449 42.6313 41.858 42.7348 42.449 41.8379C43.0401 40.941 44.0579 40.0786 44.0579 40.0786C44.0579 40.0786 44.9117 40.0786 45.0102 39.7336C45.1087 39.3887 45.1743 38.9057 45.1743 38.9057C45.1743 38.9057 45.3385 37.9054 45.3385 37.4914V36.3875C44.255 36.0081 43.4669 35.9391 43.4669 35.9391C43.4669 35.9391 42.6789 35.7666 42.5804 35.4561C42.4819 35.1457 41.8252 34.4558 41.8252 34.4558L41.0371 32.593L42.055 31.2131C42.055 31.2131 42.9087 30.3852 43.1057 30.8682C43.3027 31.3511 43.3027 31.6616 43.4341 32.0755C43.5654 32.4895 43.5654 32.8689 43.8609 33.1794C44.1564 33.4899 45.1415 34.0418 45.1415 34.0418L45.7982 33.1104C45.7982 33.1104 45.4042 32.2135 45.3713 31.7996C45.3385 31.3856 45.24 30.2817 45.24 30.2817C45.24 30.2817 46.1922 29.2469 46.5534 29.1779Z" fill="#FAB28C"/>
<path d="M71.5073 98.7217H72.8536L74.2655 98.0317V99.2391C73.3461 100.274 72.9192 100.274 72.9192 100.274H71.9998C71.9998 100.274 69.4059 100.964 70.4566 99.8255L71.4745 98.6872L71.5073 98.7217Z" fill="#FAB28C"/>
<path d="M38.7726 30.1436C38.9368 29.1432 38.6413 27.2805 38.707 27.0735C39.1667 25.6591 39.1338 24.8657 39.7905 24.6588C40.4472 24.4518 42.1875 23.6929 42.1875 23.6929C42.1875 23.6929 42.8114 26.0041 42.7457 26.3146C42.68 26.625 42.3188 27.9359 42.3188 27.9359C42.3188 27.9359 41.1696 28.7638 41.0054 28.8673C40.8412 28.9708 38.8383 30.1436 38.8383 30.1436H38.7726Z" fill="#FAB28C"/>
<path d="M38.4094 31.1441C38.1139 31.1441 36.0781 31.7995 36.0781 31.7995C36.0781 31.7995 36.4065 32.2825 36.505 32.6964C36.6035 33.1104 36.8333 34.6972 36.8333 35.0077C36.8333 35.3181 37.4244 35.6976 36.9647 36.3185C36.505 36.9394 36.2095 37.7673 36.2095 37.7673C36.2095 37.7673 37.096 38.2503 37.3915 37.7673C37.687 37.2844 37.8512 36.5255 37.8512 36.5255C37.8512 36.5255 38.3109 36.3185 38.5079 35.4906C38.7049 34.6627 38.8034 35.3871 38.6721 34.6627C38.5408 33.9383 38.1467 32.7999 38.2781 32.5585C38.4094 32.317 38.3766 31.1096 38.3766 31.1096L38.4094 31.1441Z" fill="#FAB28C"/>
<path d="M56.6664 17.4147C56.8634 17.1043 56.732 16.4143 57.6842 16.3798H58.6365C58.6365 16.3798 59.7857 15 60.0812 15H60.3767C60.3767 15 60.1469 17.1388 60.4424 17.3112C60.7379 17.4837 60.4424 18.0356 60.4424 18.0356C60.4424 18.0356 59.1618 17.0698 59.2932 18.0356C59.4245 19.0015 59.6215 19.657 59.326 19.9674L59.0305 20.2779C59.0305 20.2779 58.3738 20.5883 58.0783 20.2779C57.7828 19.9674 56.732 19.7949 56.732 19.7949C56.141 18.5876 56.6664 17.3802 56.6664 17.3802V17.4147Z" fill="#FAB28C"/>
<path d="M46.6848 62.2939C46.4878 61.7075 45.3714 60.2931 45.3714 60.2931C45.3714 60.2931 45.8311 58.8788 45.3386 58.5683C44.8461 58.2579 43.5983 57.6024 43.467 57.016C43.3357 56.4296 43.2372 55.8086 42.9416 55.4982C42.6461 55.1877 42.0551 54.6013 41.5626 54.8428C41.07 55.0842 40.873 54.6703 40.0521 55.4982C39.2313 56.3261 37.5895 56.9815 37.491 57.3955L37.3925 57.8094C37.3925 57.8094 37.3597 58.2234 36.7358 59.2582L36.1119 60.2931L33.715 61.052C33.715 61.052 33.912 61.742 33.715 62.1559C33.518 62.5699 35.1269 64.4671 35.1269 64.4671C37.0641 65.1226 36.0134 65.7435 37.0641 65.1226C38.1149 64.5016 38.6402 63.6392 39.0014 63.4323C39.3626 63.2253 40.2163 63.9152 40.2163 64.2257C40.2163 64.5361 40.3477 64.6051 40.7417 65.2605C41.1357 65.916 41.1357 66.2264 42.4819 66.1919C43.8282 66.1574 45.4699 66.6059 45.5684 66.1229C45.667 65.64 45.3386 64.8121 45.9953 64.5016C46.652 64.1912 47.4401 64.1222 47.0132 63.2598L46.6192 62.3629L46.6848 62.2939Z" fill="#FAB28C"/>
<path d="M51.8067 63.4668C51.544 63.9842 50.4604 63.7083 50.5589 64.3982C50.6574 65.0881 50.0992 66.0885 50.5918 66.123L51.0843 66.192C51.0843 66.192 50.9201 65.8815 51.7082 65.778C52.4962 65.6745 53.0872 66.1575 53.0216 65.5366L52.9559 64.9156C52.9559 64.9156 52.0365 62.9494 51.7738 63.4323L51.8067 63.4668Z" fill="#FAB28C"/>
<path d="M67.9654 41.3203H66.6191C60.3805 41.7688 55.9805 49.9443 59.0342 54.8772L66.7833 66.6404C66.8818 66.8818 67.0788 66.9508 67.2758 66.9853C67.5385 66.9853 67.7684 66.9163 67.8997 66.6404L75.5503 54.8427C78.5383 50.2548 74.2041 41.7688 67.9325 41.3203H67.9654Z" fill="#F72C57"/>
<path d="M67.3105 53.0144C69.4119 53.0144 71.1522 51.5656 71.1522 49.7373C71.1522 47.909 69.4447 46.4602 67.3105 46.4602C65.1762 46.4602 63.4688 47.909 63.4688 49.7373C63.4688 51.5656 65.1762 53.0144 67.3105 53.0144Z" fill="white"/>
</g>
<defs>
<clipPath id="clip0_1_335">
<rect width="54.375" height="90" fill="white" transform="translate(33.75 15)"/>
</clipPath>
</defs>
</svg>
