<svg width="120" height="120" viewBox="0 0 120 120" fill="none" xmlns="http://www.w3.org/2000/svg">
<g clip-path="url(#clip0_1_932)">
<path d="M47.3588 95.3555C45.5289 94.5423 44.614 92.6323 42.7094 89.512C41.8692 88.1315 40.7115 86.3161 39.5725 84.2548C37.1825 79.9053 34.9231 74.3833 35.9314 69.2395C36.3609 67.0647 38.1908 65.2115 39.7966 63.3204C39.9833 63.0934 40.1887 62.8476 40.3754 62.6207C40.6368 62.2992 40.8609 61.9777 41.0849 61.6562C43.0269 58.8006 38.4708 56.5502 36.5103 56.0018V56.1342C34.7551 56.9474 32.8878 56.8717 31.1327 56.1342C32.309 58.1766 29.9563 60.1811 29.9563 60.1811C29.9563 60.1811 30.9833 58.8574 27.809 56.5313C26.3339 62.7152 20.7136 63.3204 22.4314 62.545C24.336 61.694 26.2592 57.7605 24.7654 54.6402C22.17 55.5669 19.4999 53.846 17.9314 51.1228C16.0455 55.5101 15.0186 60.2568 15.0186 65.2115C15.0186 83.3849 28.836 98.7027 47.6949 103.43C47.7509 100.859 47.8816 98.0976 47.3775 95.2988L47.3588 95.3555Z" fill="#EAF7F9"/>
<path d="M36.2486 35.5968C36.2486 35.5968 38.2465 34.2352 40.842 35.6536C46.1262 38.5469 44.8378 42.5182 44.8378 42.5182H44.6698C45.3606 43.3692 45.8648 44.2391 45.7528 44.6552C45.5847 45.3549 45.342 45.2981 45.342 45.2981C45.342 45.2981 47.6386 48.7399 47.8067 52.2006C48.3855 54.035 50.122 55.3777 51.037 55.3777C51.6345 55.3777 52.4187 55.1886 52.9602 55.0373L50.7382 31.3608L52.064 26.1414C43.232 27.5219 35.2776 31.1906 29.0225 36.4289C32.4208 34.7458 36.2299 35.5968 36.2299 35.5968H36.2486Z" fill="#EAF7F9"/>
<path d="M88.8655 45.0712L99.4899 48.2483L100.386 55.4155C100.48 55.2831 100.89 54.7536 101.525 54.9995C102.515 55.3966 101.824 56.6825 102.496 58.9897C103.038 60.7862 104.233 63.7363 102.646 65.7787C102.459 66.0246 102.216 66.2704 101.936 66.4784C101.88 66.4784 101.843 66.4784 101.787 66.4973L102.814 74.8181L100.031 76.4067H100.013L100.554 82.5338C103.411 77.3144 105.017 71.452 105.017 65.2681C105.017 52.9949 98.7244 42.0266 88.8281 34.7458L89.9671 43.7285L88.8655 45.0901V45.0712Z" fill="#EAF7F9"/>
<path d="M102.795 74.8182L101.768 66.4974C100.555 66.5541 97.6605 65.0602 97.063 63.2636C96.4468 61.3725 97.8659 58.2522 98.5754 57.7605C99.1356 57.3823 100.293 57.8929 100.723 58.1198L100.387 55.3967L99.4904 48.2294L88.8659 45.0524L84.5899 43.7853L76.5049 41.3647L79.3057 69.9203L102.795 74.7804V74.8182ZM90.9572 48.7022L91.6854 56.4368L80.4634 54.0729L79.6792 45.6954L90.9572 48.7022Z" fill="#AC7D63"/>
<path d="M77.1602 71.1684L99.9029 75.3099L99.9963 76.4068H100.015L102.797 74.8182L79.3075 69.9392L77.1602 71.1684Z" fill="#420016"/>
<path d="M79.6823 101.01L72.9416 100.31H72.7176C72.7176 100.31 72.6615 100.272 72.6242 100.272H72.4561C72.3441 100.234 72.2508 100.234 72.2134 100.234H72.1947L64.8379 104.773C70.1035 104.281 75.1076 102.976 79.6823 101.01Z" fill="#69301A"/>
<path d="M79.6978 100.991C76.6169 100.669 74.1148 100.424 72.9385 100.291L79.6791 100.991H79.6978Z" fill="#AC7D63"/>
<path d="M101.772 66.4974C101.772 66.4974 101.884 66.4974 101.921 66.4785C102.201 66.2705 102.444 66.0247 102.631 65.7788C102.295 65.8923 101.977 65.9679 101.697 66.0057L101.753 66.4974H101.772Z" fill="#FBCDB2"/>
<path d="M99.3782 64.5307C99.9383 65.5708 100.667 66.0814 101.712 66.0057L100.741 58.1955C96.9694 57.458 98.4445 62.7719 99.3782 64.5496V64.5307Z" fill="#F8DCCC"/>
<path d="M100.894 58.2143C101.454 58.3467 100.352 55.4344 101.51 54.9995C100.875 54.7347 100.483 55.2642 100.371 55.4155L100.707 58.1387C100.801 58.1954 100.857 58.2143 100.875 58.2333L100.894 58.2143Z" fill="#FBCDB2"/>
<path d="M100.891 58.2142C100.835 58.2142 100.779 58.1953 100.723 58.1764L101.694 65.9866C101.974 65.9677 102.291 65.8921 102.627 65.7597C104.214 63.7362 103.019 60.7672 102.478 58.9707C101.787 56.6635 102.478 55.3776 101.507 54.9805C100.349 55.4343 101.451 58.3277 100.891 58.1953V58.2142Z" fill="#F8DCCC"/>
<path d="M100.891 58.2144C100.891 58.2144 100.816 58.1766 100.723 58.1199V58.1766C100.723 58.1766 100.835 58.1955 100.891 58.2144Z" fill="#FBCDB2"/>
<path d="M99.3807 64.5305C98.4284 62.7529 96.9533 57.4389 100.744 58.1764V58.1197C100.296 57.8928 99.1566 57.3822 98.5778 57.7604C97.8682 58.2332 96.4492 61.3724 97.0653 63.2635C97.6629 65.06 100.557 66.554 101.771 66.4972L101.715 66.0056C100.688 66.1001 99.9409 65.5706 99.3807 64.5305Z" fill="#FBCDB2"/>
<path d="M97.0083 76.2932C96.1494 75.8016 95.0851 75.6314 94.0394 75.8205C92.9751 75.9907 92.0415 76.5202 91.388 77.2577C90.7158 78.0141 90.4357 78.9408 90.5851 79.8296V79.8674L91.1079 80.0376C91.1079 80.0376 91.0519 79.8485 91.0332 79.7539C90.9025 78.9975 91.1452 78.2222 91.7241 77.5792C92.3029 76.9173 93.1618 76.4634 94.1141 76.2932C95.0664 76.123 96.0187 76.2932 96.7842 76.7282C97.5311 77.1631 98.0166 77.8061 98.1473 78.5626C98.4087 80.1322 97.027 81.7018 95.0664 82.0233C94.8797 82.0611 94.7116 82.08 94.5249 82.08L94.3942 82.5528C94.6369 82.5528 94.8983 82.5339 95.1411 82.4771C97.3631 82.0989 98.9129 80.3024 98.6141 78.468C98.4647 77.5603 97.9046 76.8038 97.027 76.2932H97.0083Z" fill="#D31D43"/>
<path d="M94.5262 82.0611C94.6943 82.0611 94.881 82.0422 95.0677 82.0043C97.0283 81.6639 98.41 80.1132 98.1486 78.5436C98.0179 77.7872 97.5511 77.1442 96.7855 76.7093C96.02 76.2743 95.0677 76.123 94.1154 76.2743C93.1631 76.4445 92.3042 76.8984 91.7254 77.5603C91.1465 78.2032 90.9038 78.9786 91.0345 79.735C91.0345 79.8296 91.0719 79.9241 91.1092 80.0187L94.769 81.1723L94.5262 82.0422V82.0611Z" fill="#F7AC88"/>
<path d="M94.5264 82.0611L94.7691 81.1912L91.1094 80.0376C91.4828 81.3046 92.9019 82.1367 94.5264 82.0611Z" fill="#AC7D63"/>
<path d="M91.1088 80.0186L90.5859 79.8484C90.866 81.4369 92.4718 82.5337 94.3204 82.5337C94.339 82.5337 94.3577 82.5337 94.3951 82.5337L94.5258 82.061C92.9013 82.1366 91.4822 81.3045 91.1088 80.0375V80.0186Z" fill="#AC7D63"/>
<path d="M90.5864 79.8674L87.5988 78.9219L86.7959 81.9854L93.9847 84.0846L94.4142 82.5339C94.4142 82.5339 94.3768 82.5339 94.3395 82.5339C92.4722 82.5339 90.8851 81.437 90.605 79.8485L90.5864 79.8674Z" fill="#AC7D63"/>
<path d="M91.6869 56.4366L90.9587 48.702L79.6807 45.6763L80.4649 54.0727L91.6869 56.4366Z" fill="#F7AC88"/>
<path d="M58.3202 25.5551L58.2269 24.3826L73.7061 24.5907L73.9675 27.4651C79.4572 29.0536 84.48 31.531 88.8119 34.7269L86.646 17.7449L54.4551 16.875L55.1646 25.7442C56.2103 25.6497 57.2559 25.5929 58.3202 25.5551ZM58.0775 22.7185L57.9841 21.6595L73.6874 21.8675L73.7995 22.9265L58.0775 22.7185ZM75.48 21.0165L57.8908 20.6383L57.7974 19.5793L75.3679 19.9575L75.48 21.0165Z" fill="#F7AC88"/>
<path d="M74.0024 27.9947L58.5044 27.7867L58.3177 25.5552C57.2534 25.593 56.2078 25.6497 55.1621 25.7443L56.6559 44.2203L72.658 43.9744L76.5044 41.3836L84.5895 43.8042L89.9484 43.7286L88.8094 34.7459C84.4775 31.5499 79.4546 29.0726 73.965 27.4841L74.021 27.9947H74.0024Z" fill="#F7AC88"/>
<path d="M89.9497 43.7097L84.5908 43.8043L88.8668 45.0713L89.9497 43.7097Z" fill="#420016"/>
<path d="M59.2148 57.2878L60.6899 76.6526L70.3994 69.9581L77.1588 71.1873L79.3061 69.9581L76.5052 41.4026L72.6588 43.9934L58.916 53.2597L59.2334 57.3067L59.2148 57.2878ZM60.3911 58.4413L60.3164 57.8551L68.8683 52.4277L68.943 53.0139L60.3911 58.4413ZM69.7459 49.6856L69.8206 50.7446L60.2604 56.6826L60.1857 55.7749L69.7459 49.6856Z" fill="#69301A"/>
<path d="M74.098 87.4505C74.5088 88.3961 75.0503 89.5875 74.5835 90.325C74.1167 91.0625 73.5191 92.7834 74.8075 93.2562C76.1146 93.729 77.0482 93.4264 78.3926 92.8591V92.9158C78.3926 92.9158 78.486 92.878 78.5233 92.8591C80.6706 91.7811 82.0337 90.4385 80.6706 88.415C79.5503 86.7508 79.9611 85.7864 77.3843 85.7864H77.0482C77.0482 85.7864 76.8801 85.7864 76.8055 85.7864C74.3221 85.7864 73.7059 86.5806 74.098 87.4695V87.4505Z" fill="#F8DCCC"/>
<path d="M99.9025 75.3099L77.1597 71.1684L70.4004 69.9392L70.8485 77.3334L71.2033 83.4227C72.0996 82.8554 73.3506 82.4961 74.6016 82.3448C76.7116 82.1179 76.9357 82.8743 76.0207 83.4227C75.4606 83.7631 72.9398 84.6708 72.9398 84.6708C72.9398 85.6731 74.5456 85.7488 76.8236 85.7488C76.8983 85.7488 76.9917 85.7488 77.0664 85.7488H77.4025C79.9792 85.7488 79.5684 86.7321 80.6888 88.3774C82.0518 90.4009 80.6888 91.7435 78.5415 92.8215C78.5041 92.8215 78.4668 92.8593 78.4294 92.8782C76.9543 93.5779 74.3029 94.0885 71.8008 94.1074L72.2116 100.197C72.2116 100.197 72.2116 100.197 72.2303 100.197C72.2676 100.197 72.3423 100.197 72.473 100.216H72.6411C72.6411 100.216 72.6971 100.235 72.7344 100.235H72.9585C74.1348 100.386 76.6556 100.632 79.7178 100.953C88.7925 97.0386 96.168 90.5143 100.556 82.4772L100.014 76.35L99.9211 75.2532L99.9025 75.3099ZM95.1411 82.4583C94.8983 82.4961 94.6369 82.515 94.3942 82.5339L93.9647 84.0846L86.7759 81.9855L87.5788 78.9219L90.5664 79.8675V79.8296C90.417 78.9408 90.6971 78.0142 91.3693 77.2577C92.0228 76.5013 92.9751 75.9907 94.0207 75.8205C95.085 75.6314 96.1494 75.8205 96.9896 76.2933C97.8672 76.8039 98.4274 77.5603 98.5767 78.468C98.8755 80.3024 97.3257 82.0989 95.1037 82.4772L95.1411 82.4583Z" fill="#F7AC88"/>
<path d="M68.4214 93.8047C69.411 94.0506 70.5874 94.1451 71.7824 94.1451C74.2845 94.1451 76.9546 93.6345 78.411 92.9159V92.8592C77.048 93.4265 76.0957 93.7291 74.8073 93.2563C73.5002 92.7835 74.1164 91.0626 74.5832 90.3251C75.05 89.5876 74.5085 88.3962 74.0977 87.4506C73.7056 86.5618 74.3218 85.7676 76.8052 85.7676C74.5272 85.7676 72.9401 85.673 72.9214 84.6896C72.9214 84.6896 75.4421 83.7819 76.0023 83.4415C76.9172 82.8931 76.7119 82.1367 74.5832 82.3636C73.3322 82.496 72.0998 82.8553 71.1849 83.4415C70.5874 83.8197 70.1392 84.2925 69.9338 84.8598C69.5604 85.881 68.6455 88.4718 67.8052 88.434C62.745 88.1314 59.1226 87.6208 55.4629 87.1481L56.0417 95.1852C61.0459 94.4666 66.9836 93.4643 68.4027 93.8047H68.4214Z" fill="#FBCDB2"/>
<path d="M56.0595 95.1852C54.1363 95.4688 52.3624 95.6958 51.0367 95.7903C49.4309 95.9038 48.2919 95.7714 47.377 95.3554C47.8811 98.1542 47.7504 100.915 47.6944 103.487C50.6072 104.225 53.6508 104.697 56.7877 104.886L56.0782 95.1663L56.0595 95.1852Z" fill="#90D4E1"/>
<path d="M57.9068 20.6384L75.4774 21.0166L75.384 19.9576L57.8135 19.5793L57.9068 20.6384Z" fill="#AC7D63"/>
<path d="M73.9682 27.4841L73.7068 24.6096L58.2275 24.4016L58.3209 25.5741C58.8811 25.5741 59.4412 25.5363 60.0014 25.5363C64.8748 25.5363 69.5616 26.236 73.9682 27.503V27.4841Z" fill="#FBCDB2"/>
<path d="M74.0041 27.9947L73.9481 27.4841C69.5601 26.217 64.8547 25.5173 59.9813 25.5173C59.4211 25.5173 58.8609 25.5362 58.3008 25.5552L58.4875 27.7866L73.9854 27.9947H74.0041Z" fill="#FBCDB2"/>
<path d="M57.9824 21.6594L58.0758 22.7184L73.7978 22.9454L73.7044 21.8864L57.9824 21.6594Z" fill="#AC7D63"/>
<path d="M54.248 57.2877H59.2148L58.8974 53.2407L72.6401 43.9744L56.6381 44.2202L53.7999 54.9049L53.6318 55.529C53.8559 56.1152 54.0613 56.7014 54.2293 57.2688L54.248 57.2877Z" fill="#420016"/>
<path d="M64.8541 104.773L72.2109 100.235L71.8001 94.1452C70.6051 94.1452 69.4287 94.0507 68.4391 93.8048C67.02 93.4644 61.0823 94.4667 56.0781 95.1853L56.7877 104.906C57.852 104.981 58.935 105.019 60.018 105.019C61.6611 105.019 63.2669 104.943 64.8541 104.792V104.773Z" fill="#AC7D63"/>
<path d="M54.9943 80.5861L55.4611 87.1293C59.1208 87.5831 62.7432 88.0937 67.8034 88.4152C68.6623 88.4719 69.5586 85.8622 69.932 84.841C70.1374 84.2737 70.5855 83.8009 71.1831 83.4227L70.8283 77.3334L70.3801 69.9392L60.6706 76.6337L54.9756 80.5672L54.9943 80.5861Z" fill="#AC7D63"/>
<path d="M69.8214 50.7446L69.7467 49.6855L60.1865 55.756L60.2425 56.6637L69.8214 50.7446Z" fill="#420016"/>
<path d="M60.3184 57.8549L60.393 58.4412L68.9449 53.0137L68.8702 52.4275L60.3184 57.8549Z" fill="#420016"/>
<path d="M50.0113 81.0397C50.6088 82.6283 51.057 84.5194 51.057 86.6185C52.6067 86.7698 54.0445 86.94 55.4823 87.1291L55.0155 80.5859L60.7105 76.6524L59.2354 57.2876H54.9781C56.864 63.4526 56.3599 68.88 56.3599 68.88C56.3599 68.88 46.6503 67.2348 39.891 63.3769L39.8163 63.3202C38.2292 65.2113 36.3993 67.0646 35.9511 69.2393C34.9242 74.3831 37.2022 79.8862 39.5922 84.2546L39.7043 84.1979C39.7043 79.9618 46.7997 80.5859 50.03 81.0587L50.0113 81.0397Z" fill="#90D4E1"/>
<path d="M54.4534 16.875L52.082 26.1414C53.0903 25.9901 54.1173 25.8388 55.1629 25.7442L54.4534 16.875Z" fill="#AC7D63"/>
<path d="M52.9788 55.0372C53.3523 54.9237 53.595 54.8481 53.595 54.8481L53.8191 54.9048L56.6573 44.2201L55.1635 25.7441C54.1178 25.8387 53.0909 25.9711 52.0826 26.1413L50.7568 31.3607L52.9788 55.0372ZM52.2133 30.2828C52.6427 30.2828 52.9788 31.1905 52.9788 32.3251C52.9788 33.4598 52.6427 34.3675 52.2133 34.3675C51.7838 34.3675 51.4477 33.4598 51.4477 32.3251C51.4477 31.1905 51.7838 30.2828 52.2133 30.2828Z" fill="#AC7D63"/>
<path d="M56.3395 68.88C56.3395 68.88 56.8436 63.4526 54.9577 57.2876H54.2482C55.966 62.9041 55.4992 67.6508 55.4992 67.6508C55.4992 67.6508 46.742 66.2703 40.4494 62.6772L40.3747 62.6205C40.188 62.8474 40.0013 63.0933 39.7959 63.3202L39.8706 63.3769C46.6486 67.2348 56.3395 68.88 56.3395 68.88Z" fill="#90D4E1"/>
<path d="M51.0557 86.6186C51.0557 84.5006 50.6075 82.6095 50.01 81.0399C46.7797 80.5671 39.6843 79.943 39.6843 84.1791L39.5723 84.2358C40.7113 86.2971 41.8689 88.1126 42.7092 89.4931C44.6138 92.6134 45.5287 94.5234 47.3586 95.3366C48.2735 95.7526 49.4125 95.885 51.0183 95.7715C52.3627 95.677 54.1366 95.45 56.0411 95.1664L55.4623 87.1292C54.0245 86.9401 52.5681 86.7699 51.037 86.6186H51.0557Z" fill="#FBCDB2"/>
<path d="M53.5766 55.8315C53.5579 56.0584 53.4832 56.2854 53.4085 56.4934L53.2031 57.2877H54.2674C54.0994 56.7203 53.894 56.1341 53.6699 55.5479L53.5952 55.8315H53.5766Z" fill="#420016"/>
<path d="M53.3904 56.4935C53.4838 56.2855 53.5398 56.0586 53.5584 55.8316C53.5771 55.6804 53.5771 55.5291 53.5771 55.3967C53.5958 55.4534 53.6145 55.4912 53.6331 55.548L53.8012 54.9239L53.5771 54.8672C53.5771 54.8672 53.3344 54.9617 52.9609 55.0563L53.1477 56.9663C53.241 56.815 53.3344 56.6637 53.3904 56.4935Z" fill="#AC7D63"/>
<path d="M53.5958 55.3965C53.5958 55.5289 53.5958 55.6801 53.5771 55.8314L53.6518 55.5478C53.6518 55.5478 53.6145 55.4532 53.5958 55.3965Z" fill="#AC7D63"/>
<path d="M53.1484 56.9473L53.1858 57.2877L53.3912 56.4934C53.3352 56.6636 53.2418 56.8149 53.1484 56.9662V56.9473Z" fill="#AC7D63"/>
<path d="M55.4816 67.6509C55.4816 67.6509 55.9484 62.9043 54.2306 57.2877H53.1663L53.1289 56.9473C52.27 58.2332 50.1974 58.8384 46.8924 55.7937C47.1165 55.5101 47.3032 55.1886 47.4339 54.8104C45.3426 55.1319 44.6704 53.392 43.9982 51.5766C43.3634 49.8746 43.9422 49.7611 43.4007 48.9291C43.4007 48.9291 42.3177 48.4185 41.3841 47.246C40.4318 46.0735 43.2887 44.1635 39.1435 41.7996C38.0045 41.3269 36.8655 40.7595 36.0812 40.2868C34.5874 40.1922 34.9796 43.7475 36.6414 46.3194C39.1995 50.2906 37.1642 53.7703 34.4754 54.3754C33.7659 53.8459 32.4588 52.8815 32.4588 52.8815C31.3385 52.9004 30.9837 54.1296 32.2908 55.0562C33.5978 55.9828 35.2036 56.172 35.6891 55.8883C35.7825 55.8316 36.0812 55.8883 36.492 56.0018C38.4526 56.5502 42.9899 58.7817 41.0667 61.6561C40.8426 61.9776 40.5999 62.2991 40.3572 62.6206L40.4318 62.6773C46.7244 66.2704 55.4816 67.6509 55.4816 67.6509Z" fill="#FBCDB2"/>
<path d="M46.9121 55.7938C50.2171 58.8384 52.2897 58.2333 53.1486 56.9473L52.9619 55.0373C52.4204 55.1886 51.6362 55.3777 51.0387 55.3777C50.1237 55.3777 48.3685 54.054 47.8084 52.2007C47.8457 53.0895 47.7524 53.9594 47.4536 54.7915C47.3229 55.1697 47.1362 55.4912 46.9121 55.7749V55.7938Z" fill="#F8DCCC"/>
<path d="M52.2148 34.3677C52.6442 34.3677 52.9803 33.46 52.9803 32.3253C52.9803 31.1907 52.6442 30.283 52.2148 30.283C51.7853 30.283 51.4492 31.1907 51.4492 32.3253C51.4492 33.46 51.7853 34.3677 52.2148 34.3677Z" fill="#AC7D63"/>
<path d="M41.4212 47.2461C42.3735 48.4185 43.4378 48.9291 43.4378 48.9291C43.9793 49.7423 43.4005 49.8747 44.0353 51.5767C44.7075 53.3732 45.361 55.1319 47.471 54.8104C47.7698 53.9784 47.8631 53.0895 47.8258 52.2196C47.6577 48.74 45.361 45.3171 45.361 45.3171C45.361 45.3171 45.5851 45.3739 45.7718 44.6742C45.8839 44.2392 45.3797 43.3882 44.6888 42.5372C44.2594 42.0077 43.7552 41.4971 43.3071 41.1C42.0934 40.0599 41.6079 40.8731 41.6079 40.8731C41.6079 40.8731 42.3922 41.8375 43.1017 42.7263C42.3548 42.9722 40.7677 42.4994 39.1992 41.8375C43.3444 44.1825 40.4876 46.1114 41.4399 47.2839L41.4212 47.2461Z" fill="#F8DCCC"/>
<path d="M29.0412 36.429C28.201 36.845 27.3607 37.4123 26.6325 38.2066C26.2031 38.6604 25.8109 39.2089 25.4375 39.814C26.5578 38.6226 27.7715 37.5069 29.0412 36.4479V36.429Z" fill="#420016"/>
<path d="M25.4579 39.814C25.1218 40.4003 24.8044 41.0621 24.5617 41.8186C23.2546 45.752 24.5056 49.9503 26.8957 52.9004C27.2878 53.3732 27.6986 53.827 28.1467 54.2431C29.0617 55.0751 30.0886 55.7559 31.1529 56.172C32.9081 56.8906 34.7754 56.9662 36.5119 56.172V56.0396C36.1011 55.9261 35.8023 55.8883 35.709 55.9261C35.2235 56.2098 33.6177 56.0207 32.3106 55.0941C31.0036 54.1674 31.3583 52.9571 32.4787 52.9193C32.4787 52.9193 33.7857 53.8838 34.4953 54.4133C37.2027 53.8081 39.238 50.3285 36.6612 46.3572C34.9994 43.7853 34.6073 40.249 36.1011 40.3246C36.904 40.7974 38.043 41.3458 39.1633 41.8375C40.7505 42.4994 42.3376 42.9721 43.0658 42.7263C42.3563 41.8186 41.572 40.873 41.572 40.873C41.572 40.873 42.0575 40.0599 43.2712 41.1C43.738 41.4971 44.2235 42.0266 44.653 42.5372H44.821C44.821 42.5372 46.0907 38.5659 40.8251 35.6725C38.2297 34.2542 36.2318 35.6158 36.2318 35.6158C36.2318 35.6158 32.4413 34.7648 29.0243 36.4479C27.7546 37.5069 26.5409 38.6415 25.4206 39.814H25.4579Z" fill="#420016"/>
<path d="M27.8105 56.5692C30.9848 58.8953 29.9578 60.219 29.9578 60.219C29.9578 60.219 32.3105 58.2145 31.1342 56.1721C30.0699 55.7371 29.0616 55.0752 28.128 54.2432C28.0906 55.0942 27.9786 55.8884 27.8105 56.5881V56.5692Z" fill="#420016"/>
<path d="M26.8769 52.9004H26.8582C26.8582 52.9004 26.41 54.1107 24.7669 54.6969C26.2607 57.8172 24.3374 61.7318 22.4329 62.6017C20.7337 63.3771 26.3354 62.7719 27.8105 56.588C27.9785 55.8883 28.0905 55.113 28.1279 54.2431C27.6798 53.8459 27.269 53.3921 26.8769 52.9004Z" fill="#420016"/>
<path d="M26.6317 38.2065C26.2769 37.9985 21.945 35.6346 18.1358 40.9297C15.8018 44.1635 16.2313 48.2482 17.9304 51.1794C19.723 47.019 22.2811 43.1801 25.4553 39.8139C25.8101 39.2088 26.2209 38.6604 26.6504 38.2065H26.6317Z" fill="#420016"/>
<path d="M24.7638 54.6969C26.407 54.1106 26.8551 52.9192 26.8551 52.9192H26.8738C24.4837 49.9691 23.2327 45.752 24.5398 41.8185C24.7825 41.0621 25.0999 40.4002 25.436 39.814C22.2618 43.1801 19.7037 47.019 17.9111 51.1794C19.4796 53.9026 22.1497 55.6235 24.7452 54.6969H24.7638Z" fill="#420016"/>
</g>
<defs>
<clipPath id="clip0_1_932">
<rect width="90" height="88.125" fill="white" transform="translate(15 16.875)"/>
</clipPath>
</defs>
</svg>
