<svg width="121" height="120" viewBox="0 0 121 120" fill="none" xmlns="http://www.w3.org/2000/svg">
<path d="M118.72 48.029C118.72 45.6973 116.774 43.9336 114.366 43.9336C111.957 43.9336 110.012 45.6973 110.012 48.029C110.012 50.3608 111.957 52.1245 114.366 52.1245C116.774 52.1245 118.72 50.3309 118.72 48.029ZM30.433 52.9914V44.1428H0.849609V49.434H4.12292V72.3028H0.849609V77.5342H30.433V68.6856H24.5349V72.3028H10.4534V63.3347H23.2687V58.2826H10.4534V49.434H24.5349V52.9914H30.433ZM60.5722 44.1428L51.0919 67.6991L41.7351 44.1428H32.9034L46.6452 77.6836H50.4435L64.1543 44.1428H60.5722Z" fill="#0F7ABF"/>
<path fill-rule="evenodd" clip-rule="evenodd" d="M93.9233 63.8725L106.121 77.504H99.9448L88.303 64.2611H71.6585V77.504H66.625V44.1426H90.125C95.1275 44.1426 98.2155 45.0394 100.377 47.0124C102.107 48.5968 103.033 50.8687 103.033 53.8581C103.002 59.7471 99.1111 63.3942 93.9233 63.8725ZM71.6585 48.1782V60.1955H90.1866C93.3674 60.1955 95.0657 59.5678 96.2083 58.4318C97.2583 57.3257 97.8142 55.7713 97.8142 53.8879C97.8142 52.0943 97.2275 50.6893 96.1775 49.7626C95.0041 48.6864 93.213 48.2081 90.125 48.2081C90.094 48.1782 71.6585 48.1782 71.6585 48.1782Z" fill="#0F7ABF"/>
<path d="M120.851 76.6661C118.998 75.7693 118.134 74.992 118.134 73.0191H118.165V55.1426H108.252V56.0095C110.63 57.564 110.969 58.5206 110.969 60.2245V73.0191C110.969 74.9323 110.136 75.7693 108.252 76.6661V77.533H120.82V76.6661H120.851Z" fill="#0F7ABF"/>
</svg>
