<svg width="120" height="120" viewBox="0 0 120 120" fill="none" xmlns="http://www.w3.org/2000/svg">
<path d="M120 37.5H0V84.375H120V37.5Z" fill="#FECC00"/>
<path d="M13.2002 71.1534V50.7207H106.8V71.1534H13.2002Z" fill="#FECC00"/>
<path d="M43.3789 59.2419C42.9699 59.7952 42.2856 60.7569 41.869 61.3187C41.6576 61.6043 41.2758 62.123 42.5416 62.123H49.2069C49.2069 62.123 50.2812 60.6633 51.1818 59.4425C52.4067 57.7817 51.2877 54.3262 46.9083 54.3262H29.6612L26.6708 58.3845H42.9693C43.7922 58.3845 43.781 58.6972 43.3789 59.2419ZM38.4824 63.1241C37.2164 63.1241 37.5982 62.6044 37.8097 62.3187C38.2262 61.7571 38.9217 60.8054 39.3308 60.2521C39.7334 59.7074 39.7441 59.3946 38.9202 59.3946H31.4661L25.4602 67.5473H40.1067C44.9442 67.5473 47.6374 64.2609 48.4677 63.1247C48.4677 63.1247 39.8212 63.1241 38.4824 63.1241ZM48.0102 67.5473H56.6023L59.8596 63.1236L51.2685 63.1247C51.2659 63.1241 48.0102 67.5473 48.0102 67.5473ZM70.1788 54.3262L66.8833 58.7972H63.0487L66.3427 54.3262H57.7532L52.0066 62.123H73.0224L78.7672 54.3262H70.1788ZM60.4369 67.5473H69.0259L72.2847 63.1247H63.6958C63.6926 63.1241 60.4369 67.5473 60.4369 67.5473ZM13.2002 64.869V65.8084H25.1662L25.8576 64.869H13.2002ZM27.1437 63.1241H13.2002V64.0625H26.4508L27.1437 63.1241ZM13.2002 67.5473H23.8843L24.5724 66.6132H13.2002V67.5473ZM94.1908 65.8078H106.8V64.8684H94.8831L94.1908 65.8078ZM92.91 67.5473H106.8V66.6132H93.5976L92.91 67.5473ZM96.1672 63.1241L95.4765 64.0636H106.8V63.1241H96.1672ZM84.917 62.123L90.6629 54.3262H81.566C81.5627 54.3262 75.8157 62.123 75.8157 62.123H84.917ZM75.0792 63.1241C75.0792 63.1241 74.4512 63.9811 74.146 64.394C73.0676 65.8494 74.0215 67.5473 77.5418 67.5473H91.3361L94.595 63.1247L75.0792 63.1241Z" fill="#D50029"/>
</svg>
