<svg width="120" height="120" viewBox="0 0 120 120" fill="none" xmlns="http://www.w3.org/2000/svg">
<g clip-path="url(#clip0_1_141)">
<path d="M60 99.375L15 85.5827V34.4172L60 48.2095V99.375Z" fill="#FBE3D7"/>
<path d="M48.8005 78.9711L24.1074 71.4047V52.8191L48.8005 60.3672V78.9711Z" fill="white"/>
<path d="M105 85.5827L60 99.375V48.2095L105 34.4172V85.5827Z" fill="#FCD6BC"/>
<path d="M87.8485 50.6521L80.2334 52.9477V42.0021L87.8485 39.6697V50.6521Z" fill="#713016"/>
<path d="M60 20.625L105 34.4173L60 48.2095V20.625Z" fill="#FBE3D7"/>
<path d="M60 20.625L15 34.4173L60 48.2095V20.625Z" fill="#FBE3D7"/>
<path d="M86.7676 79.467L90.0712 73.3147L93.3935 77.4836L91.2284 78.1264V82.4973L88.9327 83.1768V78.8243L86.7676 79.467Z" fill="#2E1A47"/>
<path d="M94.5137 77.1348L97.8173 70.9824L101.121 75.1513L98.9745 75.7941V80.165L96.6787 80.8445V76.492L94.5137 77.1348Z" fill="#2E1A47"/>
<path d="M86.7676 86.8499L101.121 82.5157V81.2668L86.7676 85.601V86.8499Z" fill="#2E1A47"/>
<path d="M53.9714 22.48C53.9714 22.48 44.5272 30.4505 53.1688 37.2456C55.7258 39.2658 60 42.0022 60 48.2096L15 34.4174L53.9714 22.48Z" fill="#FCD6BC"/>
<path d="M80.2321 42.0021L36.4453 27.8425L43.6311 25.6387L87.8472 39.6697L80.2321 42.0021Z" fill="#B78163"/>
<path d="M35.3814 60.7345L26.9824 58.1634V56.9146L35.3814 59.4857V60.7345Z" fill="#2E1A47"/>
<path d="M32.3951 62.5529L26.9824 60.8082V59.5593L32.3951 61.3224V62.5529Z" fill="#2E1A47"/>
<path d="M30.7713 70.8172L26.9824 69.6602V68.4297L30.7713 69.5867V70.8172Z" fill="#2E1A47"/>
</g>
<defs>
<clipPath id="clip0_1_141">
<rect width="90" height="78.75" fill="white" transform="translate(15 20.625)"/>
</clipPath>
</defs>
</svg>
