<svg width="120" height="120" viewBox="0 0 120 120" fill="none" xmlns="http://www.w3.org/2000/svg">
<g clip-path="url(#clip0_1_28810)">
<path fill-rule="evenodd" clip-rule="evenodd" d="M78.7226 70.9648C76.4956 71.5873 73.5953 71.8467 71.1092 71.8467C64.6355 71.8467 60.3887 68.4751 60.3887 62.3027C60.3887 56.4414 64.3765 52.6549 70.177 52.6549C71.4718 52.6549 72.8701 52.8105 73.6988 53.2255V44.7188H78.7226V70.9648ZM73.6988 57.5825C72.922 57.2194 71.8343 57.0119 70.5913 57.0119C67.5359 57.0119 65.516 58.8792 65.516 62.147C65.516 65.6222 67.6912 67.5933 71.2646 67.5933C71.8861 67.5933 72.8701 67.5933 73.6988 67.3858V57.5825ZM120.001 70.9648C117.773 71.5873 114.873 71.8467 112.335 71.8467C105.913 71.8467 101.614 68.4751 101.614 62.3027C101.614 56.4414 105.602 52.6549 111.403 52.6549C112.749 52.6549 114.096 52.8105 114.925 53.2255V44.7188H120.001V70.9648ZM114.925 57.5825C114.148 57.2194 113.112 57.0119 111.869 57.0119C108.762 57.0119 106.742 58.8792 106.742 62.147C106.742 65.6222 108.969 67.5933 112.542 67.5933C113.164 67.5933 114.096 67.5933 114.925 67.3858V57.5825ZM86.6467 57.5825C87.4753 57.2194 88.6666 57.1156 89.6506 57.1156C92.7581 57.1156 94.8815 58.8792 94.8815 62.0433C94.8815 65.7778 92.4991 67.4895 89.3398 67.5414V71.8467H89.5987C96.1244 71.8467 100.009 68.2676 100.009 61.8877C100.009 56.0782 95.8655 52.6549 89.7541 52.6549C86.6467 52.6549 83.5909 53.3811 81.5711 54.2109V78.8491H86.6467V57.5825Z" fill="#3F3F42"/>
<path fill-rule="evenodd" clip-rule="evenodd" d="M41.8467 45.9473L42.6753 46.8809L43.1414 46.6216L41.8467 45.9473Z" fill="#DC0032"/>
<path fill-rule="evenodd" clip-rule="evenodd" d="M40.6035 45.2734L42.209 47.1408L42.7788 46.8295L42.1572 46.1034L40.6035 45.2734Z" fill="#DC0032"/>
<path fill-rule="evenodd" clip-rule="evenodd" d="M39.3096 44.5977L41.7438 47.3986L42.3134 47.0874L40.9152 45.4276L39.3096 44.5977Z" fill="#DC0032"/>
<path fill-rule="evenodd" clip-rule="evenodd" d="M38.0674 43.9238L41.2785 47.6585L41.8481 47.3472L39.6211 44.7538L38.0674 43.9238ZM44.2305 50.5112L43.8679 50.7188L44.2305 51.1337V50.5112Z" fill="#DC0032"/>
<path fill-rule="evenodd" clip-rule="evenodd" d="M36.8223 43.25L40.8102 47.9183L41.38 47.6071L38.376 44.0799L36.8223 43.25ZM44.0212 50.6155L43.4515 50.9785L44.2284 51.9122V50.9267L44.0212 50.6155Z" fill="#DC0032"/>
<path fill-rule="evenodd" clip-rule="evenodd" d="M35.5293 42.5762L40.346 48.1781L40.9675 47.8669L37.1349 43.4061L35.5293 42.5762ZM43.5569 50.8754L42.9872 51.2384L44.2303 52.6907V51.7052L43.5569 50.8754Z" fill="#DC0032"/>
<path fill-rule="evenodd" clip-rule="evenodd" d="M34.2871 41.9004L39.9324 48.436L40.502 48.1247L35.8409 42.7303L34.2871 41.9004ZM43.0915 51.185L42.5219 51.4963L44.231 53.5192V52.5337L43.0915 51.185Z" fill="#DC0032"/>
<path fill-rule="evenodd" clip-rule="evenodd" d="M33.041 41.2266L39.4631 48.6958L40.0328 48.3846L34.5947 42.0565L33.041 41.2266ZM42.6223 51.4449L42.0525 51.7561L44.2278 54.2977V53.3122L42.6223 51.4449Z" fill="#DC0032"/>
<path fill-rule="evenodd" clip-rule="evenodd" d="M31.748 40.5527L38.9987 48.9556L39.5684 48.6444L33.3534 41.3827L31.748 40.5527ZM42.1579 51.7047L41.5883 52.0159L44.2296 55.0763V54.0907L42.1579 51.7047Z" fill="#DC0032"/>
<path fill-rule="evenodd" clip-rule="evenodd" d="M30.5059 39.8789L38.5335 49.2673L39.1031 48.9042L32.0596 40.7088L30.5059 39.8789ZM41.6927 51.9645L41.123 52.2758L44.2304 55.9066V54.9211L41.6927 51.9645Z" fill="#DC0032"/>
<path fill-rule="evenodd" clip-rule="evenodd" d="M29.2109 39.2051L38.0672 49.5272L38.6369 49.1641L30.8164 40.035L29.2109 39.2051ZM41.2783 52.2243L40.6568 52.5356L44.2303 56.6852V55.6996L41.2783 52.2243Z" fill="#DC0032"/>
<path fill-rule="evenodd" clip-rule="evenodd" d="M27.9658 38.5293L37.5989 49.785L38.2204 49.422L29.5713 39.3592L27.9658 38.5293ZM40.81 52.4823L40.2403 52.7935L44.2281 57.5137V56.4762L40.81 52.4823Z" fill="#DC0032"/>
<path fill-rule="evenodd" clip-rule="evenodd" d="M26.7246 37.8555L37.1865 50.0448L37.7561 49.6817L28.2784 38.6854L26.7246 37.8555ZM40.3457 52.742L39.7759 53.0532L44.23 58.2922V57.3066L40.3457 52.742Z" fill="#DC0032"/>
<path fill-rule="evenodd" clip-rule="evenodd" d="M25.4297 37.1289L36.7201 50.3038L37.2899 49.9406L27.0353 38.0107L25.4297 37.1289ZM39.8794 53.001L39.3097 53.3123L44.2298 59.0698V58.0843L39.8794 53.001Z" fill="#DC0032"/>
<path fill-rule="evenodd" clip-rule="evenodd" d="M24.1885 36.4551L36.2558 50.5636L36.8254 50.2523L25.794 37.3369L24.1885 36.4551ZM39.415 53.2608L38.8453 53.572L44.2316 59.9001V58.8628L39.415 53.2608Z" fill="#DC0032"/>
<path fill-rule="evenodd" clip-rule="evenodd" d="M22.9434 35.832L35.7876 50.8224L36.3572 50.5112L24.4971 36.6619L22.9434 35.832ZM38.9468 53.5196L38.3772 53.8308L44.2294 60.6776V59.6921L38.9468 53.5196Z" fill="#DC0032"/>
<path fill-rule="evenodd" clip-rule="evenodd" d="M22.1133 35.625L35.32 51.0821L35.8896 50.7709L23.2527 35.9881L22.942 35.8325C22.683 35.6769 22.4241 35.625 22.1133 35.625ZM38.4792 53.7794L37.9095 54.0906L44.228 61.456V60.4705L38.4792 53.7794Z" fill="#DC0032"/>
<path fill-rule="evenodd" clip-rule="evenodd" d="M22.1146 35.625C21.9075 35.625 21.7004 35.6769 21.4932 35.7287L34.8553 51.3415L35.4768 51.0303L22.27 35.625C22.2183 35.625 22.1665 35.625 22.1146 35.625ZM38.0664 54.0388L37.4966 54.35L44.2294 62.2861V61.2486L38.0664 54.0388Z" fill="#DC0032"/>
<path fill-rule="evenodd" clip-rule="evenodd" d="M21.6498 35.6777C21.5462 35.7296 21.3908 35.7815 21.339 35.8333L21.0283 35.989L34.4422 51.6017L35.0118 51.2905L21.6498 35.6777ZM37.6014 54.299L37.0316 54.662L44.2306 63.0649V62.0794L37.6014 54.299Z" fill="#DC0032"/>
<path fill-rule="evenodd" clip-rule="evenodd" d="M21.1302 35.8848L20.5605 36.196L33.9744 51.8606L34.544 51.5494L21.1302 35.8848ZM37.1336 54.5578L36.5639 54.921L44.229 63.8426V62.8571L37.1336 54.5578Z" fill="#DC0032"/>
<path fill-rule="evenodd" clip-rule="evenodd" d="M20.6653 36.1445L20.0957 36.4557L33.5095 52.1204L34.0792 51.8092L20.6653 36.1445ZM36.6688 54.8177L36.0991 55.1807L44.2302 64.6729V63.6874L36.6688 54.8177Z" fill="#DC0032"/>
<path fill-rule="evenodd" clip-rule="evenodd" d="M20.1987 36.4023L19.6289 36.7136L33.0427 52.3782L33.6125 52.067L20.1987 36.4023ZM36.202 55.0754L35.6323 55.4385L44.2296 65.4494V64.4638L36.202 55.0754Z" fill="#DC0032"/>
<path fill-rule="evenodd" clip-rule="evenodd" d="M19.7318 36.6641L19.1621 36.9753L32.5759 52.6399L33.1456 52.3287L19.7318 36.6641ZM35.7352 55.3372L35.1654 55.7002L44.2289 66.2299V65.2442L35.7352 55.3372Z" fill="#DC0032"/>
<path fill-rule="evenodd" clip-rule="evenodd" d="M19.2679 36.9219L18.6982 37.2331L32.1121 52.8977L32.6817 52.5865L19.2679 36.9219ZM35.323 55.5949L34.7534 55.9581L44.2311 67.0582V66.0726L35.323 55.5949Z" fill="#DC0032"/>
<path fill-rule="evenodd" clip-rule="evenodd" d="M18.7991 37.1289L18.2295 37.492L31.6952 53.1567L32.2648 52.8454L18.7991 37.1289ZM34.8544 55.9057L34.2847 56.2169L44.2286 67.8359V66.8502L34.8544 55.9057Z" fill="#DC0032"/>
<path fill-rule="evenodd" clip-rule="evenodd" d="M18.3334 37.3887L17.7637 37.6999L31.2294 53.4164L31.7991 53.1052L18.3334 37.3887ZM34.3886 56.1656L33.8188 56.4768L44.2288 68.6661V67.6288L34.3886 56.1656Z" fill="#DC0032"/>
<path fill-rule="evenodd" clip-rule="evenodd" d="M17.8657 37.6465L17.2959 37.9577L30.7616 53.726L31.3313 53.363L17.8657 37.6465ZM33.9208 56.4234L33.3512 56.7345L44.2273 69.4426V68.4571L33.9208 56.4234Z" fill="#DC0032"/>
<path fill-rule="evenodd" clip-rule="evenodd" d="M17.4028 37.9082L16.833 38.2194L30.2988 53.9878L30.8684 53.6247L17.4028 37.9082ZM33.4579 56.6851L32.8883 56.9963L44.2305 70.223V69.2374L33.4579 56.6851Z" fill="#DC0032"/>
<path fill-rule="evenodd" clip-rule="evenodd" d="M16.9359 38.166L16.3662 38.4772L29.8319 54.2457L30.4015 53.8825L16.9359 38.166ZM32.9911 56.9429L32.4215 57.2541L44.2297 71.0514V70.014L32.9911 56.9429Z" fill="#DC0032"/>
<path fill-rule="evenodd" clip-rule="evenodd" d="M16.4702 38.4258L15.9004 38.737L29.3661 54.5054L29.9358 54.1423L16.4702 38.4258ZM32.5772 57.2026L32.0074 57.5139L44.2301 71.8299V70.8444L32.5772 57.2026Z" fill="#DC0032"/>
<path fill-rule="evenodd" clip-rule="evenodd" d="M16.0043 38.6328L15.3828 38.944L28.9521 54.7643L29.5217 54.4012L16.0043 38.6328ZM32.1113 57.4616L31.5417 57.7728L44.2303 72.6075V71.622L32.1113 57.4616Z" fill="#DC0032"/>
<path fill-rule="evenodd" clip-rule="evenodd" d="M15.5375 38.8926L14.916 39.2038L28.5371 55.0759C28.5888 54.9722 28.6407 54.9203 28.7442 54.8685L29.055 54.661L15.5375 38.8926ZM31.6445 57.7213L31.0749 58.0325L44.1262 73.2822C44.1779 73.1266 44.2297 72.971 44.2297 72.8154V72.4004L31.6445 57.7213Z" fill="#DC0032"/>
<path fill-rule="evenodd" clip-rule="evenodd" d="M15.0707 39.1523L14.4492 39.4636L28.3811 55.6987V55.4913C28.3811 55.3357 28.4847 55.1282 28.5882 54.9726L15.0707 39.1523ZM31.1778 57.9811L30.7635 58.2405C30.7116 58.2405 30.6599 58.2923 30.6081 58.2923L43.8665 73.8013C44.0219 73.5938 44.1255 73.3864 44.1773 73.1788L31.1778 57.9811Z" fill="#DC0032"/>
<path fill-rule="evenodd" clip-rule="evenodd" d="M14.6039 39.4121L13.9824 39.7233L28.3803 56.5291V55.4917L14.6039 39.4121ZM29.7269 58.0334L43.5033 74.1648C43.6587 74.0611 43.8141 73.8535 43.9693 73.6979L30.7109 58.2408C30.5038 58.3446 30.193 58.3446 29.9859 58.2408L29.7269 58.0334Z" fill="#DC0032"/>
<path fill-rule="evenodd" clip-rule="evenodd" d="M14.1381 39.6699L13.5166 39.9811L43.0374 74.4226L43.4518 74.2152C43.5036 74.1632 43.5554 74.1114 43.6072 74.0595L30.038 58.2394H29.9861L28.795 57.5131C28.6914 57.4613 28.6396 57.3575 28.536 57.2537C28.4325 57.0981 28.4325 56.9945 28.3806 56.8907V56.3201L14.1381 39.6699Z" fill="#DC0032"/>
<path fill-rule="evenodd" clip-rule="evenodd" d="M13.6713 39.9316L13.0498 40.2429L42.5706 74.6844L43.1403 74.3732L13.6713 39.9316Z" fill="#DC0032"/>
<path fill-rule="evenodd" clip-rule="evenodd" d="M13.2084 40.1387L12.5869 40.4499L42.1595 74.9433L42.7292 74.6321L13.2084 40.1387Z" fill="#DC0032"/>
<path fill-rule="evenodd" clip-rule="evenodd" d="M12.7396 40.3965L12.1182 40.7077L41.6908 75.2011L42.2605 74.8899L12.7396 40.3965Z" fill="#DC0032"/>
<path fill-rule="evenodd" clip-rule="evenodd" d="M12.2749 40.6562L11.6533 40.9675L41.226 75.4609L41.7957 75.1496L12.2749 40.6562Z" fill="#DC0032"/>
<path fill-rule="evenodd" clip-rule="evenodd" d="M11.7552 40.9141L11.1855 41.2253L40.7583 75.7705L41.3279 75.4075L11.7552 40.9141Z" fill="#DC0032"/>
<path fill-rule="evenodd" clip-rule="evenodd" d="M11.2904 41.1758L10.7207 41.487L40.2934 76.0322L40.863 75.6691L11.2904 41.1758Z" fill="#DC0032"/>
<path fill-rule="evenodd" clip-rule="evenodd" d="M10.8236 41.4336L10.2539 41.7448L39.8784 76.29L40.448 75.927L10.8236 41.4336Z" fill="#DC0032"/>
<path fill-rule="evenodd" clip-rule="evenodd" d="M10.3568 41.6426L9.78711 41.9538L39.4116 76.5509L39.9812 76.1878L10.3568 41.6426Z" fill="#DC0032"/>
<path fill-rule="evenodd" clip-rule="evenodd" d="M9.89198 41.9023L9.32227 42.2136L38.9467 76.8107L39.5165 76.4995L9.89198 41.9023Z" fill="#DC0032"/>
<path fill-rule="evenodd" clip-rule="evenodd" d="M9.4242 42.1602L8.85449 42.4714L23.2525 59.2771L23.7184 59.5883C23.9257 59.6921 24.1328 59.9514 24.1328 60.2108V60.2626L38.4789 77.0686L39.0487 76.7573L9.4242 42.1602Z" fill="#DC0032"/>
<path fill-rule="evenodd" clip-rule="evenodd" d="M8.95838 42.4199L8.38867 42.7311L21.9062 58.5514L23.6152 59.4851L8.95838 42.4199ZM24.0813 60.0556C24.0813 60.1075 24.1331 60.1593 24.1331 60.2112V61.093L38.0132 77.3283L38.5828 77.0171L24.0813 60.0556Z" fill="#DC0032"/>
<path fill-rule="evenodd" clip-rule="evenodd" d="M8.4945 42.6797L7.9248 42.9909L20.5619 57.7738L22.2709 58.7075L8.4945 42.6797ZM24.1353 60.8859V61.8715L37.601 77.588L38.1708 77.2768L24.1353 60.8859Z" fill="#DC0032"/>
<path fill-rule="evenodd" clip-rule="evenodd" d="M8.02772 42.9375L7.45801 43.2487L19.2664 56.9943L20.9238 57.9278L8.02772 42.9375ZM24.1347 61.6625V62.6998L37.1343 77.8458L37.704 77.5346L24.1347 61.6625Z" fill="#DC0032"/>
<path fill-rule="evenodd" clip-rule="evenodd" d="M7.56092 43.1465L6.99121 43.4577L17.9192 56.2177L19.5765 57.2032L7.56092 43.1465ZM24.134 62.4939V63.4794L36.6675 78.1066L37.2371 77.7954L24.134 62.4939Z" fill="#DC0032"/>
<path fill-rule="evenodd" clip-rule="evenodd" d="M7.09508 43.4062L6.52539 43.7175L16.5729 55.4401L18.2302 56.4256L7.09508 43.4062ZM24.1343 63.2724V64.2579L36.2016 78.3665L36.7714 78.0552L24.1343 63.2724Z" fill="#DC0032"/>
<path fill-rule="evenodd" clip-rule="evenodd" d="M6.63025 43.6641L6.06055 43.9753L15.2276 54.7123L16.8849 55.646L6.63025 43.6641ZM24.1355 64.0489V65.0863L35.7368 78.6761L36.3066 78.3131L24.1355 64.0489Z" fill="#DC0032"/>
<path fill-rule="evenodd" clip-rule="evenodd" d="M6.1615 43.9238L5.5918 44.2351L13.8784 53.9347L15.5357 54.8684L6.1615 43.9238ZM24.133 64.8792V65.8647L35.3198 78.9358L35.8895 78.5728L24.133 64.8792Z" fill="#DC0032"/>
<path fill-rule="evenodd" clip-rule="evenodd" d="M5.6947 44.1836L5.125 44.4948L12.5311 53.157L14.2401 54.0907L5.6947 44.1836ZM24.1323 65.6576V66.6431L34.853 79.1956L35.4228 78.8326L24.1323 65.6576Z" fill="#DC0032"/>
<path fill-rule="evenodd" clip-rule="evenodd" d="M5.22986 44.4434L4.66016 44.7546L11.1858 52.3794L12.8949 53.3649L5.22986 44.4434ZM18.799 61.2491L20.1457 62.8053V62.2346C20.1457 62.1309 20.0421 61.9753 19.9384 61.9234L18.799 61.2491ZM24.1335 66.4362V67.4735L34.3881 79.4553L34.9579 79.0923L24.1335 66.4362Z" fill="#DB0032"/>
<path fill-rule="evenodd" clip-rule="evenodd" d="M4.76501 44.6504L4.19531 44.9616L9.84053 51.6009L11.5497 52.5864L4.76501 44.6504ZM17.4538 60.4706L20.1469 63.5829V62.5973L19.1629 61.4561L17.4538 60.4706ZM24.1349 67.2656V68.2511L33.9233 79.7143L34.493 79.4031L24.1349 67.2656Z" fill="#DC0032"/>
<path fill-rule="evenodd" clip-rule="evenodd" d="M4.29822 44.9102L3.72852 45.2214L8.54508 50.8751L10.2024 51.8088L4.29822 44.9102ZM16.1065 59.7449L20.1463 64.4132V63.4276L17.8157 60.6785L16.1065 59.7449ZM24.1341 68.0441V69.0295L33.4566 79.974L34.0262 79.6628L24.1341 68.0441Z" fill="#DC0032"/>
<path fill-rule="evenodd" clip-rule="evenodd" d="M3.8324 45.1699L3.2627 45.4811L7.19879 50.0975L8.85611 51.0311L3.8324 45.1699ZM14.812 58.9673L20.1465 65.1917V64.2062L16.4694 59.9009L14.812 58.9673ZM24.1345 68.8744V69.8599L33.0424 80.2338L33.6122 79.9226L24.1345 68.8744Z" fill="#DC0032"/>
<path fill-rule="evenodd" clip-rule="evenodd" d="M3.3656 45.4277L2.7959 45.739L5.85157 49.318L7.50886 50.2516L3.3656 45.4277ZM13.4649 58.1876L20.1459 65.9681V64.9826L15.1221 59.1731L13.4649 58.1876ZM24.1337 69.6508V70.6363L32.5757 80.4917L33.1454 80.1805L24.1337 69.6508Z" fill="#DC0032"/>
<path fill-rule="evenodd" clip-rule="evenodd" d="M2.8988 45.6875L2.3291 45.9987L4.50432 48.5404L6.16164 49.5259L2.8988 45.6875ZM12.1176 57.41L20.1452 66.7984V65.8129L13.775 58.3957L12.1176 57.41ZM24.1331 70.4293V71.4148L32.1089 80.7514L32.6786 80.4402L24.1331 70.4293Z" fill="#DC0032"/>
<path fill-rule="evenodd" clip-rule="evenodd" d="M2.43396 45.9473L1.86426 46.2585L3.15903 47.7628L4.86813 48.7483L2.43396 45.9473ZM10.7723 56.6843L20.1465 67.577V66.5914L12.4296 57.618L10.7723 56.6843ZM24.1343 71.2596V72.2452L31.6442 81.0112L32.2138 80.7L24.1343 71.2596Z" fill="#DC0032"/>
<path fill-rule="evenodd" clip-rule="evenodd" d="M1.9672 46.1543L1.3457 46.4655L1.81182 47.0361L3.52092 47.9697L1.9672 46.1543ZM9.4251 55.9058L20.1459 68.4064V67.3691L11.1342 56.8394L9.4251 55.9058ZM24.1337 72.0373V73.0228L31.1774 81.3219L31.747 80.9589L24.1337 72.0373Z" fill="#DC0032"/>
<path fill-rule="evenodd" clip-rule="evenodd" d="M1.50121 46.4141L1.13867 46.6216L2.17449 47.1921L1.50121 46.4141ZM8.07866 55.1282L20.1459 69.1848V68.1993L9.78777 56.1137L8.07866 55.1282ZM24.1339 72.8157V73.8531L30.7632 81.5817L31.3328 81.2186L24.1339 72.8157Z" fill="#DC0032"/>
<path fill-rule="evenodd" clip-rule="evenodd" d="M6.78223 54.3496L20.1443 69.9624V68.9767L8.43953 55.3351L6.78223 54.3496ZM24.1322 73.6451V74.6306L30.2954 81.8405L30.8651 81.4774L24.1322 73.6451Z" fill="#DC0032"/>
<path fill-rule="evenodd" clip-rule="evenodd" d="M5.43848 53.623L20.1472 70.7919V69.7545L7.09577 54.5567L5.43848 53.623ZM24.135 74.4228V75.4083L29.832 82.0995L30.4018 81.7364L24.135 74.4228Z" fill="#DC0032"/>
<path fill-rule="evenodd" clip-rule="evenodd" d="M4.0918 52.8457L20.147 71.5706V70.5851L5.7491 53.7794L4.0918 52.8457ZM24.1349 75.2016V76.2389L29.3659 82.3595L29.9355 82.0484L24.1349 75.2016Z" fill="#DC0032"/>
<path fill-rule="evenodd" clip-rule="evenodd" d="M2.74414 52.0664L20.1459 72.3475V71.362L4.40145 53.0519L2.74414 52.0664ZM24.1338 76.0302V77.0157L28.8986 82.6178L29.4682 82.3065L24.1338 76.0302Z" fill="#DB0032"/>
<path fill-rule="evenodd" clip-rule="evenodd" d="M1.39648 51.2891L20.1449 73.1781V72.1926L3.05379 52.2747L1.39648 51.2891ZM24.1327 76.809V77.7945L28.4832 82.8777L29.0528 82.5665L24.1327 76.809Z" fill="#DA0032"/>
<path fill-rule="evenodd" clip-rule="evenodd" d="M0.0517578 50.5645L20.1466 73.9578V72.9722L1.76086 51.4981L0.0517578 50.5645ZM24.1346 77.5887V78.626L28.0189 83.1386L28.5886 82.8274L24.1346 77.5887Z" fill="#D90032"/>
<path fill-rule="evenodd" clip-rule="evenodd" d="M0 50.5117V51.2379L20.1467 74.7349V73.7494L0.414329 50.7193L0 50.5117ZM24.1346 78.4177V79.0401C24.1346 79.1439 24.0828 79.2476 24.031 79.2995L27.5528 83.3972L28.1225 83.086L24.1346 78.4177Z" fill="#D80032"/>
<path fill-rule="evenodd" clip-rule="evenodd" d="M0 51.0293V52.0666L20.1467 75.5636V74.5781L0 51.0293ZM24.0828 79.1945C24.031 79.402 23.8756 79.6095 23.7203 79.6614L23.6684 79.7132L27.0866 83.6553L27.6564 83.3441L24.0828 79.1945Z" fill="#D70032"/>
<path fill-rule="evenodd" clip-rule="evenodd" d="M0 51.8594V52.845L20.1467 76.342V75.3565L0 51.8594ZM23.772 79.6097C23.772 79.6615 23.772 79.6615 23.7203 79.6615L23.2024 79.9728L26.6206 83.9149L27.1903 83.6037L23.772 79.6097Z" fill="#D60032"/>
<path fill-rule="evenodd" clip-rule="evenodd" d="M0 52.6387V53.6242L20.1467 77.1212V76.1357L0 52.6387ZM23.3578 79.8702L22.7363 80.2334L26.2062 84.2273L26.776 83.8643L23.3578 79.8702Z" fill="#D50032"/>
<path fill-rule="evenodd" clip-rule="evenodd" d="M0 53.4688V54.4543L20.1467 77.9512V76.9657L0 53.4688ZM22.8917 80.1297L22.5292 80.3372C22.4255 80.3891 22.3219 80.3891 22.2184 80.3891L25.7401 84.4868L26.3098 84.1238L22.8917 80.1297Z" fill="#D40032"/>
<path fill-rule="evenodd" clip-rule="evenodd" d="M0 54.2461V55.2317L20.1467 78.7286V77.7431L0 54.2461ZM21.2861 80.1291L25.274 84.7455L25.8437 84.3824L22.3738 80.3885C22.3219 80.3885 22.2184 80.4403 22.1665 80.4403H22.1148C21.9594 80.4403 21.8558 80.3885 21.7523 80.3365L21.2861 80.1291Z" fill="#D30032"/>
<path fill-rule="evenodd" clip-rule="evenodd" d="M0 55.0234V56.0609L24.8078 85.0042L25.3776 84.641L21.6487 80.284L20.5092 79.6615C20.3021 79.5578 20.1467 79.2984 20.1467 79.0391V78.5203L0 55.0234Z" fill="#D20032"/>
<path fill-rule="evenodd" clip-rule="evenodd" d="M0 55.8535V56.839L24.3418 85.2636L24.9114 84.9524L0 55.8535Z" fill="#D10032"/>
<path fill-rule="evenodd" clip-rule="evenodd" d="M0 56.6309V57.6164L23.8757 85.5223L24.4453 85.2111L0 56.6309Z" fill="#D00032"/>
<path fill-rule="evenodd" clip-rule="evenodd" d="M0 57.4102V58.4476L23.4613 85.7829L24.031 85.4717L0 57.4102Z" fill="#CF0032"/>
<path fill-rule="evenodd" clip-rule="evenodd" d="M0 58.2402V59.2256L22.9952 86.0424L23.5649 85.7312L0 58.2402Z" fill="#CE0032"/>
<path fill-rule="evenodd" clip-rule="evenodd" d="M0 59.0195V60.005L22.4773 86.2511C22.6327 86.1992 22.7881 86.1474 22.9434 86.0955L23.0988 85.9918L0 59.0195Z" fill="#CD0032"/>
<path fill-rule="evenodd" clip-rule="evenodd" d="M0 59.7949V60.8324L21.804 86.2485C21.9076 86.2485 22.0112 86.2485 22.1148 86.2485C22.2702 86.2485 22.4255 86.2485 22.5809 86.1967L0 59.7949Z" fill="#CC0032"/>
<path fill-rule="evenodd" clip-rule="evenodd" d="M0 60.627V61.6125L20.6129 85.6801L21.3379 86.0951C21.4933 86.1987 21.7523 86.2507 21.9594 86.2507L0 60.627Z" fill="#CB0032"/>
<path fill-rule="evenodd" clip-rule="evenodd" d="M0 61.4043V62.3898L19.2662 84.9013L20.9754 85.8868L0 61.4043Z" fill="#CA0032"/>
<path fill-rule="evenodd" clip-rule="evenodd" d="M0 62.2344V63.22L17.9197 84.1234L19.6288 85.109L0 62.2344Z" fill="#C90032"/>
<path fill-rule="evenodd" clip-rule="evenodd" d="M0 63.0137V63.9992L16.5731 83.3466L18.2304 84.3321L0 63.0137Z" fill="#C80033"/>
<path fill-rule="evenodd" clip-rule="evenodd" d="M0 63.791V64.7765L15.2266 82.5678L16.8839 83.5533L0 63.791Z" fill="#C70033"/>
<path fill-rule="evenodd" clip-rule="evenodd" d="M0 64.6191V65.6048L13.8282 81.7362L15.5372 82.7217L0 64.6191Z" fill="#C60033"/>
<path fill-rule="evenodd" clip-rule="evenodd" d="M0 65.3984V66.3839L12.4817 80.9594L14.1907 81.9449L0 65.3984Z" fill="#C50033"/>
<path fill-rule="evenodd" clip-rule="evenodd" d="M0 66.1777V67.1632L11.1351 80.1825L12.8442 81.168L0 66.1777Z" fill="#C40033"/>
<path fill-rule="evenodd" clip-rule="evenodd" d="M0 67.0059V67.9914L9.78851 79.4027L11.4976 80.3882L0 67.0059Z" fill="#C30033"/>
<path fill-rule="evenodd" clip-rule="evenodd" d="M0 67.7852V68.7707L8.44193 78.6259L10.151 79.6114L0 67.7852Z" fill="#C20033"/>
<path fill-rule="evenodd" clip-rule="evenodd" d="M0 68.5625V69.5998L7.09535 77.8471L8.75268 78.8327L0 68.5625Z" fill="#C10033"/>
<path fill-rule="evenodd" clip-rule="evenodd" d="M0 69.3926V70.3781L5.69701 77.0693L7.4061 78.0548L0 69.3926Z" fill="#C00033"/>
<path fill-rule="evenodd" clip-rule="evenodd" d="M0 70.1699V71.1554L4.35044 76.2906L6.05956 77.2243L0 70.1699Z" fill="#BF0033"/>
<path fill-rule="evenodd" clip-rule="evenodd" d="M0 70.9473V71.9847L3.00388 75.46L4.71299 76.4455L0 70.9473Z" fill="#BE0033"/>
<path fill-rule="evenodd" clip-rule="evenodd" d="M0 71.7793V72.7649L1.65731 74.6841L3.36641 75.6696L0 71.7793Z" fill="#BD0033"/>
<path fill-rule="evenodd" clip-rule="evenodd" d="M0 72.5566V72.8159C0 73.3347 0.362537 73.957 0.776864 74.2164L2.01985 74.8907L0 72.5566Z" fill="#BC0033"/>
<path fill-rule="evenodd" clip-rule="evenodd" d="M0.30957 73.75C0.413152 73.8533 0.464943 73.9567 0.568525 74.0083L0.30957 73.75Z" fill="#BB0033"/>
</g>
<defs>
<clipPath id="clip0_1_28810">
<rect width="120" height="120" fill="white"/>
</clipPath>
</defs>
</svg>
