<svg width="120" height="120" viewBox="0 0 120 120" fill="none" xmlns="http://www.w3.org/2000/svg">
<g clip-path="url(#clip0_1_1682)">
<path d="M60 22C57.8577 22 55.7468 22.1142 53.6842 22.3352C31.8484 24.6743 15 38.9544 15 56.1589C15 74.9909 35.1838 90.3203 60 90.3203C84.8162 90.3203 105 74.9933 105 56.1589C105 37.3245 84.8138 22 60 22Z" fill="#F9CED7"/>
<path d="M17.42 49.4524L56.5704 36.467L78.7612 58.7846C78.7612 58.7846 80.316 60.2133 80.0872 63.4191L78.4014 81.4714L38.4274 97L20.3979 77.5243C20.3979 77.5243 17.3016 71.3352 17.4224 71.1142C17.5431 70.8932 17.42 49.4524 17.42 49.4524Z" fill="#5A496D"/>
<path d="M38.4303 96.9999L20.3984 77.5243L17.4229 71.1141V49.4524L37.4183 70.6721C37.4183 70.6721 39.3239 72.7853 39.3239 76.4676C39.3239 80.15 38.4303 96.9999 38.4303 96.9999Z" fill="#2B0E48"/>
<path d="M66.8137 53.9849L43.0988 62.1172C42.768 62.2265 42.4008 62.1245 42.1738 61.8573L39.2611 58.4543C38.8577 57.983 39.0606 57.2543 39.6475 57.06L63.3624 48.9278C63.6932 48.8185 64.0604 48.9205 64.2874 49.1877L67.2001 52.5907C67.6035 53.0619 67.4006 53.7906 66.8137 53.9849Z" fill="#2B0E48"/>
<path d="M65.1827 53.3776L44.0231 60.667L41.3857 57.6429L62.5453 50.3535L65.1827 53.3776Z" fill="#666666"/>
<path d="M62.5456 50.3535L62.2051 54.3614L65.183 53.3776L62.5456 50.3535Z" fill="#808080"/>
<path d="M17.4465 54.9128L39.3234 78.236L80.0871 63.4192L79.7224 67.3444L39.1326 82.4601L17.4199 58.8089L17.4465 54.9128Z" fill="#2B0E48"/>
<path d="M46.6371 83.8203C44.4055 84.5029 43.0047 86.4339 43.5167 88.1294C44.0287 89.8224 46.2603 90.6458 48.492 89.9632C50.7236 89.2807 52.1244 87.3497 51.6124 85.6542C51.1004 83.9612 48.8688 83.1378 46.6371 83.8203Z" fill="#ADA2B7"/>
<path d="M45.2553 60.2445L62.1037 54.4124C62.1037 54.4124 62.2051 49.11 58.8094 44.9029C58.8094 44.9029 55.0441 40.9437 52.8197 39.5251L34.8506 45.5928C34.8506 45.5928 41.2364 45.2284 45.2577 60.2469L45.2553 60.2445Z" fill="white"/>
<path d="M40.055 63.402L36.111 64.7453L31.8506 60.2444L35.7946 58.9011L40.055 63.402Z" fill="#2B0E48"/>
<path d="M39.6155 62.9357L35.6714 64.2789L31.8506 60.2444L35.7946 58.9011L39.6155 62.9357Z" fill="#ADA2B7"/>
<path d="M34.1981 58.3935L31.964 59.1562L31.5293 58.6096L33.7634 57.8494L34.1981 58.3935Z" fill="#E6E6E6"/>
<path d="M33.1741 57.6939L31.6912 58.1992L31.4014 57.8373L32.8843 57.332L33.1741 57.6939Z" fill="#E6E6E6"/>
<path d="M52.1748 41.4878L49.9287 42.2869C49.9287 42.2869 54.3727 45.3329 55.1552 48.6242L57.4762 47.8129C57.4762 47.8129 56.23 44.2398 52.1773 41.4878H52.1748Z" fill="#2B0E48"/>
<path d="M48.5473 42.7483L47.1924 43.2438C47.1924 43.2438 50.0182 44.6988 51.5953 48.1795L53.0251 47.6719C53.0251 47.6719 51.7426 44.4777 48.5497 42.7483H48.5473Z" fill="#2B0E48"/>
<path d="M40.9345 45.3254L39.9395 45.7117C39.9395 45.7117 42.7652 47.1666 44.3424 50.6474L45.4099 50.249C45.4099 50.249 44.1274 47.0549 40.9345 45.3254Z" fill="#2B0E48"/>
<path d="M65.2341 43.7904C65.7558 43.9191 70.3858 43.3872 71.8131 42.6949C73.2381 42.0002 75.5712 40.8027 77.9091 41.8958C75.0882 41.3298 73.0159 43.188 72.0619 43.6228C71.1103 44.0551 66.1664 44.3733 62.6475 44.7741C62.6475 44.7741 62.7561 44.1814 63.6039 42.7581C63.7198 42.5637 63.8382 42.3961 63.9613 42.248C63.6884 43.5791 64.7125 43.6616 65.2317 43.7928H65.2341V43.7904Z" fill="#460913"/>
<path d="M96.6267 50.1302C96.2499 50.2735 95.8321 50.174 95.4746 49.9116C96.0977 49.5327 96.7426 49.1489 97.3947 48.7651C97.3995 49.3991 97.1194 49.9432 96.6267 50.1302Z" fill="#DA163B"/>
<path d="M94.7548 48.9374C94.4118 48.0193 94.692 47.0623 95.3803 46.7999C96.0711 46.5376 96.9092 47.072 97.2521 47.9853C97.3487 48.2476 97.3922 48.5051 97.3922 48.7553C96.7401 49.1391 96.0904 49.5228 95.4721 49.9018C95.1702 49.6831 94.9094 49.3504 94.7548 48.9326V48.9374Z" fill="#DA163B"/>
<path d="M89.7188 37.8539C90.0931 37.8054 90.4554 37.7155 90.8201 37.6038C90.8297 37.6742 90.8418 37.7422 90.8515 37.8102C90.5085 37.7932 90.1221 37.8054 89.7212 37.8515H89.7188V37.8539Z" fill="#460913"/>
<path d="M97.4039 48.6899C97.4087 49.319 97.1285 49.8679 96.6358 50.055V50.0501C96.2615 50.1934 95.8436 50.0914 95.4838 49.8315C95.4814 49.8315 95.4789 49.8339 95.4765 49.8364C95.1795 49.6153 94.9162 49.2874 94.764 48.872C94.4187 47.9563 94.6988 46.9969 95.3896 46.7345C96.0803 46.4722 96.9208 47.0017 97.2614 47.9199C97.358 48.1774 97.4014 48.4397 97.4014 48.6899C99.2998 47.5798 101.263 46.4892 102.891 45.6391C102.227 44.0821 101.411 42.564 100.457 41.0993C97.8217 42.4206 94.8872 43.0935 92.9744 41.9251C92.3078 41.5171 91.7644 40.8879 91.3997 39.9819L91.1533 40.0014C91.617 43.6351 92.1605 48.5684 93.4671 51.1043C93.4671 51.1043 93.4719 51.1019 93.4743 51.0994C93.9864 52.0905 94.6143 52.7123 95.4041 52.7414C100.143 52.9212 101.544 52.909 104.792 52.7463C104.517 50.3173 103.872 47.9345 102.894 45.6366C101.263 46.4892 99.2974 47.5774 97.4039 48.6874V48.6899Z" fill="#C5E7EA"/>
<path d="M90.7937 37.2687C90.8057 37.3537 90.8202 37.446 90.8323 37.5334C90.8444 37.6014 90.854 37.6694 90.8637 37.7399C90.9192 38.1504 90.9748 38.5827 91.0352 39.0394C91.668 38.7965 92.0085 38.5754 92.1244 38.386C92.0085 38.5754 91.6704 38.7965 91.0352 39.0394C91.0762 39.3479 91.1149 39.6685 91.1583 39.994L91.4047 39.977C91.767 40.8806 92.3104 41.5121 92.9794 41.9202C94.8922 43.0861 97.8267 42.4133 100.462 41.0943C99.0778 38.9689 97.3992 36.9553 95.4671 35.0898C95.3342 35.1287 95.2038 35.1676 95.0686 35.2064C93.9093 35.5392 90.6173 36.059 90.7961 37.2687H90.7937Z" fill="#E6F6F9"/>
<path d="M91.4053 39.9771C91.7676 40.8831 92.311 41.5146 92.98 41.9202C92.3134 41.5122 91.77 40.8831 91.4053 39.9771Z" fill="#E6F6F9"/>
<path d="M91.023 39.1098C90.8853 39.1608 90.7332 39.2167 90.5665 39.2725C88.5281 39.9405 79.9807 39.53 78.7393 39.3673C76.9617 39.1389 75.6116 39.0661 72.8365 39.9915C71.3343 40.4943 68.6148 41.0408 66.8613 41.1841C67.8008 39.8458 69.4625 39.8263 71.0686 39.5373C72.6723 39.2531 76.7371 37.9002 76.7371 37.9002C76.7371 37.9002 76.9231 37.0621 78.4156 36.5763C79.9082 36.0906 84.4295 37.2929 87.8977 37.8249C88.5305 37.922 89.1077 37.9244 89.6681 37.854C89.685 37.854 89.6995 37.8491 89.7139 37.8491C90.1173 37.803 90.5037 37.7908 90.8443 37.8078C90.9022 38.2159 90.9578 38.6483 91.0157 39.1074H91.0206L91.023 39.1098Z" fill="#460913"/>
<path d="M57.29 48.9837C57.6161 48.8016 58.3044 48.3328 59.0096 47.7425C59.5651 47.2761 60.1279 46.7393 60.5361 46.2098C61.4659 45.005 62.6469 44.7791 62.6469 44.7791C66.1611 44.3808 71.105 44.0626 72.0614 43.6278C73.0178 43.193 75.0876 41.3324 77.9086 41.8984C75.5683 40.8029 73.2328 42.0052 71.8126 42.6975C70.3925 43.3922 65.7577 43.9266 65.2336 43.793C64.7095 43.6594 63.6879 43.5792 63.9632 42.2481C64.7651 41.3008 65.7384 41.2911 66.8639 41.1867C68.6197 41.0434 71.3417 40.4944 72.8391 39.994C75.6141 39.0662 76.9667 39.1366 78.7418 39.3698C79.9832 39.5325 88.5306 39.9406 90.5691 39.275C90.7357 39.2192 90.8854 39.1657 91.0255 39.1123C91.0642 39.4232 91.1052 39.7414 91.1463 40.0669C91.6076 43.6982 92.1534 48.634 93.4576 51.1674C92.1752 52.0005 91.1342 52.739 90.5642 53.2685C88.4558 55.2165 83.6326 57.8496 79.5606 58.2601C79.1741 58.3013 78.8167 58.3354 78.4762 58.3694C75.2229 58.707 73.8221 58.9377 70.8224 59.7053C67.5087 60.553 65.137 60.5336 64.7916 58.9572C64.4438 57.3808 67.2769 55.8942 69.3129 55.0635C71.3489 54.2352 73.6023 54.6651 75.1335 53.7737C76.6623 52.8847 76.5609 51.6848 75.5827 51.0654C75.375 50.9366 75.0248 50.7739 74.578 50.5966C72.8826 49.931 69.6824 49.059 66.6296 48.9206C61.5142 48.6898 62.1059 49.9675 59.3719 51.0095C56.6403 52.054 56.237 49.5788 57.2973 48.9886H57.2876L57.29 48.9837Z" fill="#703115"/>
<path d="M65.2341 43.7928C65.7558 43.9216 70.3858 43.3896 71.8131 42.6973C73.2381 42.0027 75.5712 40.8052 77.9091 41.8982C75.0882 41.3323 73.0159 43.1904 72.0619 43.6252C71.1103 44.0576 66.1664 44.3758 62.6475 44.7766C62.6475 44.7766 62.7561 44.1839 63.6039 42.7605C63.7198 42.5662 63.8382 42.3986 63.9613 42.2504C63.6884 43.5815 64.7125 43.6641 65.2317 43.7953H65.2341V43.7928Z" fill="#460913"/>
<path d="M96.6267 50.1327C96.2499 50.276 95.8321 50.1764 95.4746 49.9141C96.0977 49.5351 96.7426 49.1514 97.3947 48.7676C97.3995 49.4015 97.1194 49.9456 96.6267 50.1327Z" fill="#DA163B"/>
<path d="M94.7548 48.9399C94.4118 48.0217 94.692 47.0647 95.3803 46.8024C96.0711 46.54 96.9092 47.0744 97.2521 47.9877C97.3487 48.2501 97.3922 48.5075 97.3922 48.7577C96.7401 49.1415 96.0904 49.5253 95.4721 49.9042C95.1702 49.6856 94.9094 49.3528 94.7548 48.935V48.9399Z" fill="#DA163B"/>
<path d="M89.7188 37.8564C90.0931 37.8078 90.4554 37.7179 90.8201 37.6062C90.8297 37.6766 90.8418 37.7447 90.8515 37.8127C90.5085 37.7957 90.1221 37.8078 89.7212 37.854H89.7188V37.8564Z" fill="#460913"/>
<path d="M97.4039 48.6923C97.4087 49.3214 97.1285 49.8704 96.6358 50.0574V50.0525C96.2615 50.1959 95.8436 50.0938 95.4838 49.8339C95.4814 49.8339 95.4789 49.8364 95.4765 49.8388C95.1795 49.6178 94.9162 49.2898 94.764 48.8745C94.4187 47.9588 94.6988 46.9993 95.3896 46.737C96.0803 46.4746 96.9208 47.0042 97.2614 47.9223C97.358 48.1798 97.4014 48.4421 97.4014 48.6923C99.2998 47.5823 101.263 46.4916 102.891 45.6415C102.227 44.0845 101.411 42.5664 100.457 41.1017C97.8217 42.4231 94.8872 43.0959 92.9744 41.9276C92.3078 41.5195 91.7644 40.8904 91.3997 39.9844L91.1533 40.0038C91.617 43.6376 92.1605 48.5709 93.4671 51.1067C93.4671 51.1067 93.4719 51.1043 93.4743 51.1019C93.9864 52.0929 94.6143 52.7147 95.4041 52.7439C100.143 52.9236 101.544 52.9115 104.792 52.7487C104.517 50.3197 103.872 47.9369 102.894 45.6391C101.263 46.4916 99.2974 47.5798 97.4039 48.6899V48.6923Z" fill="#C5E7EA"/>
<path d="M90.7937 37.2711C90.8057 37.3561 90.8202 37.4484 90.8323 37.5359C90.8444 37.6039 90.854 37.6719 90.8637 37.7423C90.9192 38.1528 90.9748 38.5852 91.0352 39.0418C91.668 38.7989 92.0085 38.5779 92.1244 38.3884C92.0085 38.5779 91.6704 38.7989 91.0352 39.0418C91.0762 39.3503 91.1149 39.6709 91.1583 39.9964L91.4047 39.9794C91.767 40.883 92.3104 41.5145 92.9794 41.9226C94.8922 43.0885 97.8267 42.4157 100.462 41.0968C99.0778 38.9714 97.3992 36.9578 95.4671 35.0923C95.3342 35.1311 95.2038 35.17 95.0686 35.2089C93.9093 35.5416 90.6173 36.0615 90.7961 37.2711H90.7937Z" fill="#E6F6F9"/>
<path d="M91.4053 39.9795C91.7676 40.8855 92.311 41.517 92.98 41.9227C92.3134 41.5146 91.77 40.8855 91.4053 39.9795Z" fill="#E6F6F9"/>
<path d="M91.023 39.1122C90.8853 39.1632 90.7332 39.2191 90.5665 39.275C88.5281 39.9429 79.9807 39.5324 78.7393 39.3697C76.9617 39.1414 75.6116 39.0685 72.8365 39.994C71.3343 40.4968 68.6148 41.0433 66.8613 41.1866C67.8008 39.8482 69.4625 39.8288 71.0686 39.5397C72.6723 39.2555 76.7371 37.9026 76.7371 37.9026C76.7371 37.9026 76.9231 37.0646 78.4156 36.5788C79.9082 36.093 84.4295 37.2953 87.8977 37.8273C88.5305 37.9245 89.1077 37.9269 89.6681 37.8564C89.685 37.8564 89.6995 37.8516 89.7139 37.8516C90.1173 37.8054 90.5037 37.7933 90.8443 37.8103C90.9022 38.2184 90.9578 38.6507 91.0157 39.1098H91.0206L91.023 39.1122Z" fill="#460913"/>
<path d="M57.29 48.9862C57.6161 48.804 58.3044 48.3352 59.0096 47.745C59.5651 47.2786 60.1279 46.7418 60.5361 46.2123C61.4659 45.0075 62.6469 44.7816 62.6469 44.7816C66.1611 44.3832 71.105 44.065 72.0614 43.6302C73.0178 43.1955 75.0876 41.3348 77.9086 41.9008C75.5683 40.8053 73.2328 42.0077 71.8126 42.6999C70.3925 43.3946 65.7577 43.929 65.2336 43.7954C64.7095 43.6618 63.6879 43.5817 63.9632 42.2506C64.7651 41.3033 65.7384 41.2936 66.8639 41.1891C68.6197 41.0458 71.3417 40.4968 72.8391 39.9965C75.6141 39.0686 76.9667 39.139 78.7418 39.3722C79.9832 39.535 88.5306 39.943 90.5691 39.2775C90.7357 39.2216 90.8854 39.1682 91.0255 39.1147C91.0642 39.4257 91.1052 39.7439 91.1463 40.0693C91.6076 43.7007 92.1534 48.6364 93.4576 51.1698C92.1752 52.003 91.1342 52.7414 90.5642 53.2709C88.4558 55.219 83.6326 57.852 79.5606 58.2625C79.1741 58.3038 78.8167 58.3378 78.4762 58.3718C75.2229 58.7094 73.8221 58.9402 70.8224 59.7077C67.5087 60.5555 65.137 60.536 64.7916 58.9596C64.4438 57.3832 67.2769 55.8967 69.3129 55.0659C71.3489 54.2377 73.6023 54.6676 75.1335 53.7761C76.6623 52.8871 76.5609 51.6872 75.5827 51.0678C75.375 50.9391 75.0248 50.7763 74.578 50.599C72.8826 49.9335 69.6824 49.0615 66.6296 48.923C61.5142 48.6923 62.1059 49.9699 59.3719 51.012C56.6403 52.0564 56.237 49.5813 57.2973 48.991H57.2876L57.29 48.9862Z" fill="#703115"/>
</g>
<defs>
<clipPath id="clip0_1_1682">
<rect width="90" height="75" fill="white" transform="translate(15 22)"/>
</clipPath>
</defs>
</svg>
