<svg width="120" height="120" viewBox="0 0 120 120" fill="none" xmlns="http://www.w3.org/2000/svg">
<g clip-path="url(#clip0_1_549)">
<path d="M97.8356 80.9788L95.2498 87.5248L70.3125 77.5415L74.5628 66.781L74.9195 65.9441L97.8356 80.9788Z" fill="#2E1A47"/>
<path d="M37.1122 41.4341L32.8024 52.3141C32.6835 52.6429 32.8024 53.0016 33.1591 53.151L73.5521 69.3216L75.1274 65.3163L37.1122 41.4341Z" fill="#564B6E"/>
<path d="M43.624 67.4983L44.4562 65.406C44.4562 65.406 44.4562 65.0772 44.3076 65.0174L30.338 59.428C30.338 59.428 30.0111 59.428 29.9516 59.5774L29.2383 61.4007C29.2383 61.4007 29.2383 61.7295 29.3869 61.7893L43.624 67.4983Z" fill="#564B6E"/>
<path d="M104.553 74.0443L71.1449 47.3524L64.8734 42.5999L46.5049 47.9203L95.9633 81.188C96.7361 81.726 97.4791 82.2342 98.4005 82.563C99.2922 82.8619 100.332 82.9814 101.224 82.6825C102.235 82.3836 102.621 81.6962 102.978 80.7696C103.543 79.3647 104.107 77.93 104.672 76.5252C104.672 76.5252 105.504 74.7915 104.553 74.0144V74.0443Z" fill="#7C738C"/>
<path d="M49.0327 28.4021L72.4541 47.0835C72.4541 47.0835 73.4052 48.4285 70.8194 48.1894C70.8194 48.1894 59.2275 43.5564 50.5485 51.2083C50.5485 51.2083 49.746 51.9855 47.6655 50.3415C45.5849 48.6975 30.8128 39.2224 30.8128 39.2224C30.8128 39.2224 28.2566 37.3991 30.6939 34.7687C33.1311 32.1384 35.2117 29.538 35.2117 29.538C35.2117 29.538 40.859 22.992 49.0327 28.4021Z" fill="#BCE3E9"/>
<path d="M50.2811 29.4184L72.4245 47.0835C72.4245 47.0835 73.3756 48.4285 70.7897 48.1894C70.7897 48.1894 59.1979 43.5564 50.5189 51.2083C50.5189 51.2083 49.7164 51.9855 47.6358 50.3415C45.5552 48.6975 30.7831 39.2224 30.7831 39.2224C30.7831 39.2224 29.8617 38.0567 32.299 35.4263C34.7362 32.796 41.2157 23.1415 50.2811 29.4184Z" fill="#91D3E0"/>
<path d="M15.5052 61.4606L100.69 95.5653C101.136 95.7446 101.612 95.5354 101.79 95.087L103.157 91.6198C103.335 91.1714 103.127 90.6932 102.682 90.5138C102.682 90.5138 20.5581 57.6048 20.4689 57.5749C19.9636 57.3657 19.2503 57.7543 18.8341 57.9934C17.675 58.7107 15.2972 60.1156 15.1783 60.2351C14.7919 60.6237 15.0297 61.2514 15.5052 61.4307V61.4606Z" fill="#91D3E0"/>
<path d="M38.7488 49.9529C38.0652 49.7137 37.3221 49.9529 37.1438 50.461C36.9655 50.999 37.3519 51.6267 38.0652 51.8957C38.7786 52.1647 39.4919 51.8957 39.6702 51.3876C39.8486 50.8496 39.4622 50.2219 38.7488 49.9529Z" fill="#9E99AB"/>
<path d="M99.382 77.1231C98.4606 76.7644 97.4798 77.0334 97.1826 77.7209C96.9151 78.4383 97.4204 79.3051 98.3715 79.6638C99.3226 80.0224 100.274 79.7534 100.571 79.066C100.838 78.3486 100.333 77.4818 99.382 77.1231Z" fill="#2E1A47"/>
</g>
<g clip-path="url(#clip1_1_549)">
<path d="M86.25 60C95.5698 60 103.125 52.4448 103.125 43.125C103.125 33.8052 95.5698 26.25 86.25 26.25C76.9302 26.25 69.375 33.8052 69.375 43.125C69.375 52.4448 76.9302 60 86.25 60Z" fill="#DC381F"/>
<path d="M92.6872 50.3235C92.5055 50.3235 92.325 50.2539 92.1869 50.1158L79.2061 37.135C78.93 36.8589 78.93 36.4105 79.2061 36.1343C79.4823 35.8582 79.9307 35.8582 80.208 36.1343L93.1888 49.1151C93.4649 49.3913 93.4649 49.8397 93.1888 50.1158C93.0507 50.2539 92.869 50.3235 92.6884 50.3235H92.6872Z" fill="white"/>
<path d="M79.7069 50.3234C79.5252 50.3234 79.3423 50.2538 79.2042 50.1134C78.9293 49.8361 78.9304 49.3876 79.2089 49.1115L92.2983 36.1307C92.5756 35.8558 93.024 35.857 93.3001 36.1354C93.5751 36.4128 93.5739 36.8612 93.2954 37.1373L80.2061 50.1181C80.068 50.255 79.8875 50.3234 79.7081 50.3234H79.7069Z" fill="white"/>
</g>
<defs>
<clipPath id="clip0_1_549">
<rect width="90" height="69.375" fill="white" transform="translate(15 26.25)"/>
</clipPath>
<clipPath id="clip1_1_549">
<rect width="33.75" height="33.75" fill="white" transform="translate(69.375 26.25)"/>
</clipPath>
</defs>
</svg>
