<svg width="120" height="120" viewBox="0 0 120 120" fill="none" xmlns="http://www.w3.org/2000/svg">
<g clip-path="url(#clip0_1_1402)">
<path fill-rule="evenodd" clip-rule="evenodd" d="M104.981 31.9866C104.888 32.5632 104.141 36.4509 101.154 39.7247C97.9247 43.2589 59.9907 62.0275 59.9907 62.0275C59.9907 62.0275 22.0566 43.2589 18.827 39.7247C15.6161 36.1905 15 31.875 15 31.875V88.125H105V31.875C105 31.875 105 31.9494 104.981 31.9866Z" fill="#EBF8FA"/>
<path d="M59.9907 31.875H15C15 31.875 15.6161 36.1905 18.8457 39.7247C22.0753 43.2589 60.0093 62.0275 60.0093 62.0275C60.0093 62.0275 97.9434 43.2589 101.173 39.7247C104.141 36.4509 104.888 32.5632 105 31.9866C105 31.9308 105.019 31.875 105.019 31.875H60.028H59.9907Z" fill="#9ADBE8"/>
<path d="M59.9908 53.8429C62.0838 53.8429 63.7805 52.5854 63.7805 51.0341C63.7805 49.4829 62.0838 48.2253 59.9908 48.2253C57.8979 48.2253 56.2012 49.4829 56.2012 51.0341C56.2012 52.5854 57.8979 53.8429 59.9908 53.8429Z" fill="#2E1A47"/>
</g>
<defs>
<clipPath id="clip0_1_1402">
<rect width="90" height="56.25" fill="white" transform="translate(15 31.875)"/>
</clipPath>
</defs>
</svg>
