<svg width="120" height="120" viewBox="0 0 120 120" fill="none" xmlns="http://www.w3.org/2000/svg">
<g clip-path="url(#clip0_1_1192)">
<path d="M86.5246 22.1611H31.6004C29.6719 22.1611 28.125 23.739 28.125 25.6608V101.5C28.125 103.442 29.6719 105 31.6004 105H86.5246C88.4531 105 90 103.422 90 101.5V25.6608C90 23.7188 88.4531 22.1611 86.5246 22.1611Z" fill="#564869"/>
<path d="M86.565 25.3777H31.5605V101.541H86.565V25.3777Z" fill="#ECF5F7"/>
<path d="M31.5605 101.541H86.4646C86.4646 101.541 89.6588 58.0075 61.0114 73.3413C32.3842 88.6751 31.5605 25.3777 31.5605 25.3777V101.541Z" fill="white"/>
<path d="M68.6267 18.1355H63.0218C62.62 16.3554 61.0329 15 59.1244 15C57.216 15 55.6289 16.3554 55.2271 18.1355H49.6222C48.1959 18.1355 47.0508 19.2886 47.0508 20.7249V23.5772C47.0508 25.0135 48.1959 26.1666 49.6222 26.1666H68.6468C70.0731 26.1666 71.2182 25.0135 71.2182 23.5772V20.7249C71.2182 19.2886 70.0731 18.1355 68.6468 18.1355H68.6267Z" fill="#2B1B44"/>
<path d="M43.5929 87.7039H74.9121C75.8563 87.7039 76.6398 88.4726 76.6398 89.4436C76.6398 90.3944 75.8764 91.1833 74.9121 91.1833H43.5929C42.6487 91.1833 41.8652 90.4146 41.8652 89.4436C41.8652 88.4928 42.6286 87.7039 43.5929 87.7039Z" fill="#A7D8E5"/>
<path d="M43.5929 75.5867H74.9121C75.8563 75.5867 76.6398 76.3554 76.6398 77.3264C76.6398 78.2772 75.8764 79.0661 74.9121 79.0661H43.5929C42.6487 79.0661 41.8652 78.2974 41.8652 77.3264C41.8652 76.3756 42.6286 75.5867 43.5929 75.5867Z" fill="#A7D8E5"/>
<path d="M59.0625 59.9293C65.6719 59.9293 71.0156 54.5281 71.0156 47.8929C71.0156 41.2577 65.6518 35.8564 59.0625 35.8564C52.4732 35.8564 47.1094 41.2577 47.1094 47.8929C47.1094 54.5281 52.4732 59.9293 59.0625 59.9293Z" fill="#2E1A47"/>
<path d="M57.052 53.1931C56.9315 53.1931 56.7909 53.1324 56.6904 53.0514L53.2552 49.5922C53.0543 49.39 53.0543 49.0865 53.2552 48.8842C53.4561 48.6819 53.7574 48.6819 53.9784 48.8842L57.052 51.9793L65.148 43.9078C65.3489 43.7055 65.6703 43.7055 65.8712 43.9078C66.0721 44.1101 66.0721 44.4338 65.8712 44.6361L57.4136 53.0514C57.4136 53.0514 57.1927 53.1931 57.052 53.1931Z" fill="white"/>
</g>
<defs>
<clipPath id="clip0_1_1192">
<rect width="61.875" height="90" fill="white" transform="translate(28.125 15)"/>
</clipPath>
</defs>
</svg>
