<svg width="120" height="120" viewBox="0 0 120 120" fill="none" xmlns="http://www.w3.org/2000/svg">
<g clip-path="url(#clip0_1_506)">
<path d="M36.5674 22.033L23.6465 39.4733L68.4325 79.9936L81.592 62.3726L36.5674 22.033Z" fill="#FAE2D6"/>
<path d="M68.4252 80.0005C77.0654 71.2773 74.5104 54.5545 62.7184 42.6492C50.9264 30.7438 34.3628 28.1643 25.7226 36.8875C17.0824 45.6108 19.6374 62.3336 31.4294 74.2389C43.2214 86.1442 59.785 88.7238 68.4252 80.0005Z" fill="#FAE2D6"/>
<path d="M64.101 70.1194L53.2672 85.0711C53.2672 85.0711 47.8404 91.5335 56.2092 105L67.4008 90.3494C67.4008 90.3494 57.4616 79.4918 64.101 70.1194Z" fill="#FBD5BB"/>
<path d="M79.2611 65.1565C87.9013 56.4333 85.3463 39.7105 73.5543 27.8052C61.7623 15.8998 45.1988 13.3203 36.5586 22.0435C27.9183 30.7668 30.4734 47.4896 42.2653 59.3949C54.0573 71.3002 70.6209 73.8798 79.2611 65.1565Z" fill="#FBD5BB"/>
<path d="M64.0189 70.2397L62.6671 70.0791C58.0156 74.374 51.0582 85.9139 41.5762 81.6793C41.5762 81.6793 46.9831 84.6696 53.2647 85.0911L64.0189 70.2196V70.2397Z" fill="#F8B28A"/>
<path d="M73.4156 58.3694C79.5095 52.2169 77.7034 40.4182 69.3815 32.0163C61.0595 23.6143 49.3731 21.7908 43.2792 27.9434C37.1852 34.0959 38.9914 45.8946 47.3133 54.2965C55.6352 62.6984 67.3216 64.5219 73.4156 58.3694Z" fill="#F8B28A"/>
<path d="M72.053 56.9928C77.5958 51.3967 75.9533 40.6654 68.3843 33.0238C60.8154 25.3821 50.1863 23.7238 44.6435 29.3198C39.1007 34.9159 40.7432 45.6472 48.3122 53.2889C55.8811 60.9305 66.5102 62.5888 72.053 56.9928Z" fill="#7C738C"/>
<path d="M41.5576 40.5369C41.5576 40.5369 42.7901 54.0035 57.7784 59.3219C57.7784 59.3219 60.1042 43.1459 41.5576 40.5369Z" fill="white"/>
<path d="M57.799 59.3419C57.799 59.3419 65.4323 62.6132 71.4355 57.5758C71.4355 57.5758 59.9458 60.0644 56.7852 51.3542C56.7852 51.3542 58.2164 54.6456 57.7791 59.3419H57.799Z" fill="#564B6E"/>
</g>
<g clip-path="url(#clip1_1_506)">
<path d="M82.5 48.75C91.8198 48.75 99.375 41.1948 99.375 31.875C99.375 22.5552 91.8198 15 82.5 15C73.1802 15 65.625 22.5552 65.625 31.875C65.625 41.1948 73.1802 48.75 82.5 48.75Z" fill="#008000"/>
<path d="M78.6043 38.2475C78.4226 38.2475 78.2421 38.1778 78.104 38.0398L73.2657 33.2015C72.9896 32.9253 72.9896 32.4769 73.2657 32.2008C73.5418 31.9246 73.9903 31.9246 74.2676 32.2008L78.6079 36.5411L90.0262 25.236C90.3035 24.961 90.752 24.9634 91.0281 25.2407C91.3031 25.518 91.3007 25.9665 91.0234 26.2426L79.1047 38.0433C78.9666 38.1802 78.7861 38.2486 78.6067 38.2486L78.6043 38.2475Z" fill="white"/>
</g>
<defs>
<clipPath id="clip0_1_506">
<rect width="63.75" height="88.125" fill="white" transform="translate(20.625 16.875)"/>
</clipPath>
<clipPath id="clip1_1_506">
<rect width="33.75" height="33.75" fill="white" transform="translate(65.625 15)"/>
</clipPath>
</defs>
</svg>
