<svg width="120" height="120" viewBox="0 0 120 120" fill="none" xmlns="http://www.w3.org/2000/svg">
<g clip-path="url(#clip0_1_375)">
<path d="M54.375 101.25L15 88.1007V39.3994L54.375 52.5001V101.25Z" fill="#FAE2D6"/>
<path d="M44.5551 81.8181L22.958 74.6103V56.8831L44.5551 64.0908V81.8181Z" fill="white"/>
<path d="M93.75 88.1007L54.375 101.25V52.5001L93.75 39.3994V88.1007Z" fill="#FBD5BB"/>
<path d="M78.7462 54.8377L72.0625 57.0293V46.6072L78.7462 44.3669V54.8377Z" fill="#713016"/>
<path d="M54.375 26.25L93.75 39.3994L54.375 52.5V26.25Z" fill="#FAE2D6"/>
<path d="M54.375 26.25L15 39.3994L54.375 52.5V26.25Z" fill="#FAE2D6"/>
<path d="M77.791 82.3052L80.7009 76.4124L83.5654 80.4059L81.7012 80.9903V85.1786L79.6552 85.8117V81.6721L77.791 82.3052Z" fill="#2E1A47"/>
<path d="M84.5654 80.0649L87.4299 74.2207L90.3398 78.1655L88.4756 78.7986V82.9382L86.4296 83.6201V79.4317L84.5654 80.0649Z" fill="#2E1A47"/>
<path d="M77.791 89.3182L90.3401 85.1786V84.0098L77.791 88.1007V89.3182Z" fill="#2E1A47"/>
<path d="M49.1007 28.0032C49.1007 28.0032 40.8256 35.6006 48.3733 42.0778C50.6012 43.9772 54.375 46.6071 54.375 52.4999L15 39.3993L49.1007 28.0032Z" fill="#FBD5BB"/>
<path d="M72.0631 46.6071L33.7793 33.1169L40.0538 31.0227L78.7468 44.3669L72.0631 46.6071Z" fill="#B68063"/>
<path d="M32.8232 64.4318L25.5029 61.9967V60.8279L32.8232 63.2629V64.4318Z" fill="#2E1A47"/>
<path d="M30.2316 66.1851L25.5029 64.5293V63.3118L30.2316 65.0163V66.1851Z" fill="#2E1A47"/>
<path d="M28.7766 74.0746L25.5029 72.9545V71.7856L28.7766 72.8571V74.0746Z" fill="#2E1A47"/>
</g>
<g clip-path="url(#clip1_1_375)">
<path d="M86.25 52.5C96.6053 52.5 105 44.1053 105 33.75C105 23.3947 96.6053 15 86.25 15C75.8947 15 67.5 23.3947 67.5 33.75C67.5 44.1053 75.8947 52.5 86.25 52.5Z" fill="#008000"/>
<path d="M81.9237 40.8304C81.7217 40.8304 81.5211 40.7531 81.3677 40.5997L75.9918 35.2238C75.685 34.917 75.685 34.4187 75.9918 34.1119C76.2987 33.8051 76.7969 33.8051 77.105 34.1119L81.9276 38.9344L94.6146 26.3733C94.9228 26.0677 95.421 26.0704 95.7278 26.3785C96.0334 26.6866 96.0307 27.1849 95.7226 27.4917L82.4796 40.6036C82.3262 40.7557 82.1256 40.8317 81.9263 40.8317L81.9237 40.8304Z" fill="white"/>
</g>
<defs>
<clipPath id="clip0_1_375">
<rect width="78.75" height="75" fill="white" transform="translate(15 26.25)"/>
</clipPath>
<clipPath id="clip1_1_375">
<rect width="37.5" height="37.5" fill="white" transform="translate(67.5 15)"/>
</clipPath>
</defs>
</svg>
