<svg width="120" height="120" viewBox="0 0 120 120" fill="none" xmlns="http://www.w3.org/2000/svg">
<g clip-path="url(#clip0_1_214)">
<path d="M86.9398 84.4199C84.7011 84.1007 83.704 84.5701 83.3654 85.2836C83.0456 85.9784 82.4059 87.7998 81.2207 88.7387C80.6187 89.2269 80.0167 89.3771 79.3583 89.2645C79.3018 89.3208 79.283 89.3771 79.2078 89.4147C78.1543 90.0907 76.7998 89.4898 75.2571 88.8138C74.467 88.457 74.2977 88.0064 74.4294 87.6496C73.8273 87.4806 73.1689 87.1989 72.4728 86.8985C71.4005 86.4291 71.4569 85.7719 71.8896 85.4339C71.4758 85.3775 71.0619 85.3024 70.6292 85.2273C68.5033 84.8705 69.143 83.2369 70.2717 83.1242C70.8926 83.0679 71.8332 82.8801 72.755 82.5046C72.8115 81.8662 72.8679 81.4155 72.8679 81.4155C72.8679 81.4155 71.0431 81.4906 71.2876 80.5142C71.7768 78.5801 75.5393 77.2845 77.477 77.5474C79.3959 77.8102 82.6317 77.0404 85.3031 75.0124C91.8687 70.0364 93.5995 72.2521 95.9699 70.074C97.9076 68.3089 100.974 61.1735 103.608 56.5918C98.7918 39.5419 81.0702 26.886 59.9436 26.886C35.1296 26.9048 15 44.3865 15 65.9617C15 77.66 20.926 88.1378 30.3135 95.292V94.6911H89.63V95.292C94.4084 91.6492 98.3027 87.1238 100.955 82.0164C100.429 82.3356 99.8829 82.636 99.2809 82.9552C94.5966 85.3588 89.1785 84.7391 86.9398 84.4199Z" fill="#EAF7F9"/>
<path d="M30.3145 94.6912V95.292C38.2346 101.338 48.6192 105 59.9821 105C71.345 105 81.7296 101.338 89.6497 95.292V94.6912H30.3145Z" fill="#F62C57"/>
<path d="M31.1047 78.2236C28.1699 77.9795 23.9559 79.3503 23.4668 82.58C22.9212 86.0913 25.9689 89.2647 29.7314 89.7154C24.9153 91.4241 24.4638 87.8564 22.6202 87.2368C20.7577 86.6171 19.2339 79.4441 19.8924 78.0171C20.1181 77.5101 20.3439 77.2472 20.4756 77.0031C23.4103 72.6092 27.06 74.5996 28.7155 73.6419C30.371 72.7031 27.06 68.6471 25.1411 65.3611C23.241 62.0938 25.7995 57.1178 29.167 55.4654C32.5345 53.813 30.5403 49.1374 30.5403 49.1374L37.7832 46.0767C39.0061 45.551 38.1783 44.7811 38.0278 44.6497C39.6833 44.1051 41.1319 43.5981 42.1102 43.1475C42.0914 43.2226 42.0725 43.2977 42.0537 43.4291C41.7527 45.5134 49.5976 55.2589 49.5976 53.1746C49.5976 52.1606 49.9363 51.3344 50.2749 50.7335C50.8204 51.3532 51.4977 51.9541 52.3067 52.5362L52.6077 52.3108C52.8334 52.6488 52.9839 52.8554 53.0027 52.8366C53.0968 52.7239 54.1691 51.0152 54.3384 49.9449C54.3384 49.9449 56.4078 50.9213 56.9158 52.7051C57.4237 54.489 59.9822 45.2318 60.0199 45.1003C60.4902 45.4759 61.111 45.7575 61.9199 45.8702C66.8489 46.6025 70.1035 48.5366 73.1511 53.8881C76.481 59.7091 75.7661 71.952 75.4463 73.5668C74.2235 79.707 70.856 94.6163 70.856 94.6163H33.5692C33.5692 94.6163 33.4751 93.3957 33.3058 90.5604C33.0989 87.2555 30.4087 82.3171 31.1047 78.1485V78.2236ZM28.8096 76.0454C31.0295 75.8952 33.7949 76.9843 33.2306 76.3083C32.6662 75.6323 29.7502 74.6371 26.9283 74.9C24.1064 75.1629 21.2845 76.7778 20.7954 78.4865C19.8547 81.735 22.7331 85.0398 22.6202 81.7538C22.5073 78.4865 26.6085 76.1957 28.8096 76.0454Z" fill="#91D3E0"/>
<path d="M61.9397 27.6561C61.7704 28.7264 63.313 31.4491 62.7486 33.1391C62.203 34.829 61.601 37.026 61.1307 38.6221C60.7733 39.8238 60.0208 40.5561 58.5534 40.7439C58.0643 40.819 57.5187 40.819 56.8602 40.7627C56.4087 40.7251 55.8632 40.6688 55.2988 40.5561C51.7244 38.3028 48.2252 36.5941 49.6173 34.0592C50.9907 31.5242 52.3076 30.022 49.8431 29.008C47.3786 27.9753 47.6985 25.4591 49.3163 24.2949C50.9342 23.1307 54.377 19.0185 50.6332 17.122C52.3828 17.0468 54.0195 17.46 55.0542 17.8355C55.6374 18.0421 56.2959 18.0045 56.8226 17.7041C57.3494 17.4036 58.0454 17.1595 58.591 17.5351C60.2842 19.3001 60.9802 21.6661 61.9397 23.2434C63.2001 25.2901 62.109 26.5858 61.9397 27.6561Z" fill="#420016"/>
<path d="M59.2098 44.18C59.0216 43.842 58.89 43.4852 58.7959 43.1284C59.4355 43.2411 59.8682 43.4664 60.0375 45.1752C59.6801 44.8935 59.4167 44.5555 59.2098 44.18Z" fill="#BCE3E9"/>
<path d="M59.2111 44.1802C59.418 44.5557 59.6814 44.8937 60.0389 45.1754C60.0012 45.3068 57.4427 54.5828 56.9348 52.7802C56.4268 50.9776 54.3574 50.0199 54.3574 50.0199C55.204 49.1562 58.4586 46.0204 59.2111 44.1802Z" fill="#BCE3E9"/>
<path d="M58.8174 43.1286C58.9114 43.4854 59.0431 43.8421 59.2312 44.1801C58.4787 46.0015 55.2429 49.1561 54.3776 50.0199C54.2082 51.0902 53.1359 52.7802 53.0418 52.9116C53.0042 52.9492 52.8537 52.7238 52.6468 52.3858C52.1388 51.5784 51.2923 50.1138 51.0665 49.8133C50.6526 49.4378 49.5803 48.6304 48.3575 47.6727C47.3604 45.0439 47.906 42.6216 48.3951 41.326C49.11 39.4294 51.1418 39.6172 52.722 39.9364C53.6062 40.2181 54.5092 40.4246 55.3182 40.5561C55.9014 40.65 56.4281 40.7251 56.8796 40.7626C57.5193 40.819 58.0837 40.8002 58.5728 40.7439C58.5916 41.3447 58.5728 42.246 58.8174 43.1286Z" fill="#420016"/>
<path d="M58.5888 17.535C58.0433 17.1594 57.3472 17.4036 56.8205 17.704C56.2937 18.0044 55.6353 18.042 55.0521 17.8354C54.9956 16.7088 53.848 15 47.6963 15.4507C51.2331 14.4743 55.0332 15.2442 56.7076 16.1267C57.4601 16.521 58.0621 17.0092 58.5888 17.5538V17.535Z" fill="#2C0014"/>
<path d="M52.7017 39.9363C51.1403 39.6171 49.1085 39.4294 48.3748 41.3259C47.8669 42.6403 47.3401 45.0438 48.3372 47.6726C46.042 45.8888 43.2013 43.5604 43.2766 42.4713C43.5211 42.2084 43.7093 41.8892 43.8598 41.5136C44.6687 39.4669 44.236 35.8617 43.4835 33.3643C42.1854 33.7774 41.2072 32.125 40.2101 31.0359C39.0061 29.759 38.7427 28.069 39.7962 27.1677C40.1348 26.8861 40.5111 26.7171 40.8685 26.6607C41.3389 26.5856 41.828 26.6607 42.2231 26.9236C43.3142 27.3931 44.2548 29.59 44.2548 29.59C44.2548 29.59 45.4024 29.4398 45.346 29.1394C45.2895 28.8389 44.6875 25.9096 45.7222 24.783C46.7569 23.6564 47.4718 22.7363 46.8134 21.9101C46.1549 21.0839 45.0073 18.9808 47.7352 17.779C48.6758 17.3659 49.6541 17.1782 50.5947 17.1218C54.3384 19.0183 50.8957 23.1306 49.2778 24.2948C47.6599 25.459 47.3401 27.9752 49.8046 29.0079C52.269 30.0407 50.971 31.5429 49.5788 34.059C48.2055 36.594 51.6859 38.3027 55.2603 40.556C54.4513 40.4246 53.5483 40.1992 52.6641 39.9363H52.7017Z" fill="#69301A"/>
<path d="M52.6257 52.386L52.3247 52.6113C51.5158 52.0292 50.8574 51.4096 50.293 50.8087C50.6692 50.1702 51.0455 49.8135 51.0455 49.8135C51.2712 50.1327 52.099 51.5973 52.6257 52.386Z" fill="#91D3E0"/>
<path d="M50.6132 17.1407C49.6725 17.1782 48.6943 17.366 47.7536 17.7979C45.0258 18.9996 46.1734 21.1027 46.8318 21.9289C47.4903 22.7551 46.7754 23.6752 45.7407 24.8019C44.706 25.9285 45.308 28.8578 45.3644 29.1582C45.4209 29.4586 44.2733 29.6089 44.2733 29.6089C44.2733 29.6089 43.3326 27.4119 42.2415 26.9425C41.8276 26.6984 41.3573 26.6045 40.887 26.6796C40.6989 26.1914 39.382 22.2857 43.1445 18.1734C44.4426 16.7651 46.0417 15.9202 47.716 15.4507C53.8678 15.0001 55.0153 16.7088 55.0718 17.8354C54.0371 17.4599 52.4004 17.0468 50.6508 17.1219L50.6132 17.1407Z" fill="#2C0014"/>
<path d="M51.0459 49.8135C51.0459 49.8135 50.6509 50.1702 50.2934 50.8087C49.3528 49.7571 48.732 48.7056 48.3369 47.6729C49.5597 48.6305 50.6321 49.4192 51.0459 49.8135Z" fill="#BCE3E9"/>
<path d="M50.2941 50.8086C49.9554 51.4095 49.6168 52.2357 49.6168 53.2497C49.6168 55.334 41.7719 45.5885 42.0729 43.5042C42.0917 43.3728 42.1105 43.2789 42.1293 43.2226C42.4115 43.0911 42.6749 42.9597 42.863 42.847C43.0135 42.7531 43.164 42.6405 43.2957 42.4902C43.2205 43.5793 46.0424 45.8889 48.3563 47.6916C48.7514 48.7243 49.3722 49.7759 50.3129 50.8274L50.2941 50.8086Z" fill="#BCE3E9"/>
<path d="M43.8609 41.5325C43.7104 41.908 43.5223 42.2272 43.2777 42.4713C43.146 42.6028 43.0143 42.7342 42.845 42.8281C42.6381 42.9408 42.3935 43.0722 42.1113 43.2037C42.1678 42.9971 42.2242 42.9971 42.3559 42.6779C42.751 41.5888 43.1084 41.7202 43.8609 41.5325Z" fill="#BCE3E9"/>
<path d="M38.0278 44.687C38.1783 44.8185 39.0248 45.5695 37.7832 46.1141L30.5403 49.1748C30.5403 49.1748 32.5344 53.8504 29.167 55.5028C25.7995 57.1552 23.241 62.1124 25.1411 65.3985C27.0411 68.6657 30.371 72.7216 28.7155 73.6793C27.0599 74.6182 23.4291 72.6465 20.4755 77.0404C20.7389 76.6273 20.7765 76.2706 20.4191 74.7684C18.914 68.3841 20.7953 63.0513 21.9993 58.3382C23.2033 53.625 24.5014 49.6255 29.0917 47.7853C31.7067 46.7337 35.1494 45.6822 38.0089 44.7433L38.0278 44.687Z" fill="#BCE3E9"/>
<path d="M33.2504 76.2894C33.7959 76.9654 31.0305 75.8763 28.8294 76.0265C26.6095 76.1767 22.5271 78.4676 22.64 81.7348C22.7529 85.0021 19.8745 81.7161 20.8152 78.4676C21.3231 76.7588 24.1262 75.144 26.9481 74.8811C29.77 74.6182 32.7048 75.6134 33.2504 76.2894Z" fill="#BCE3E9"/>
<path d="M61.9765 101.057L46.5312 96.8695V74.1301L61.9765 73.2288V101.057Z" fill="#B68063"/>
<path d="M83.9845 96.1372L61.9736 101.057V73.2288L83.9845 74.393V96.1372Z" fill="#F8B28A"/>
<path d="M53.3785 81.19C54.5825 80.852 55.6736 80.8896 55.2974 82.4481C54.8835 84.1381 51.7041 84.9831 50.8576 85.5276C50.011 86.0534 50.5001 89.4709 50.8576 92.156C51.215 94.86 50.4437 92.832 53.924 95.3482C57.141 97.6766 54.8647 100.024 51.8735 99.5731C51.0081 99.4417 50.2556 99.3102 49.5971 99.1788C54.9587 99.3478 52.325 96.5875 50.1051 95.3294C48.7882 94.5783 48.6565 93.677 48.5436 89.1141C48.4872 87.349 47.302 86.1473 46.6435 85.1333C45.4019 83.2555 55.5796 83.9315 53.3973 81.1713L53.3785 81.19Z" fill="#420016"/>
<path d="M53.377 81.209C55.5592 83.9693 45.3816 83.2933 46.6232 85.171C47.3005 86.185 48.4857 87.3867 48.5233 89.1518C48.655 93.7147 48.7678 94.616 50.0847 95.3671C52.3046 96.6252 54.9384 99.3855 49.5768 99.2165C44.3092 98.2025 44.4974 96.9444 43.5944 92.4191C42.5597 87.1614 33.4543 89.9217 29.7106 89.4335C25.9668 88.9453 22.9004 85.5841 23.4459 81.8474C24.0856 77.4911 30.6512 76.3269 33.0592 77.7727C35.4861 79.2186 38.6278 82.3544 41.8824 82.3544C46.9242 80.3828 47.9965 83.3684 51.5521 81.8662C52.0601 81.6596 52.7185 81.378 53.3393 81.209H53.377Z" fill="#69301A"/>
<path d="M72.2105 96.5127L64.4785 97.076V90.335L72.2105 90.7105V96.5127Z" fill="white"/>
<path d="M72.624 85.2274C72.624 84.326 72.6805 83.2745 72.7557 82.5046C71.8339 82.8802 70.8933 83.0492 70.2725 83.1243C69.1249 83.237 68.5041 84.8706 70.6299 85.2274C71.0626 85.3025 71.4765 85.3588 71.8904 85.4339C72.0785 85.2837 72.3419 85.1898 72.6052 85.2274H72.624Z" fill="#F8DCCC"/>
<path d="M74.824 87.2367C74.6923 87.1052 74.5983 87.0114 74.5983 87.0114C74.5983 87.0114 73.6576 87.6686 72.9428 86.9363C72.7358 86.7297 72.6606 86.1664 72.6229 85.5092C72.3784 85.4904 72.1338 85.4528 71.8892 85.4153C71.4565 85.7533 71.4001 86.4105 72.4724 86.8799C73.1685 87.1804 73.827 87.462 74.429 87.631C74.5042 87.462 74.6359 87.3118 74.824 87.2367Z" fill="#F8DCCC"/>
<path d="M72.625 85.2273C72.3428 85.1897 72.0983 85.2836 71.9102 85.4338C72.1735 85.4714 72.4181 85.4902 72.6439 85.5277C72.6439 85.4338 72.6439 85.3399 72.6439 85.246L72.625 85.2273Z" fill="#F8DCCC"/>
<path d="M75.4653 87.7811C75.1455 87.7811 74.8068 87.7435 74.4494 87.6497C74.3177 88.0064 74.4682 88.4571 75.2772 88.8139C76.8198 89.4898 78.1743 90.0907 79.2278 89.4147C79.2843 89.3772 79.3219 89.3208 79.3783 89.2645C78.7763 89.1518 78.0991 88.8326 77.3277 88.3444C76.801 88.6636 76.0485 88.2318 75.4653 87.7811Z" fill="#F8DCCC"/>
<path d="M74.8248 87.2366C74.6366 87.3305 74.5049 87.4619 74.4297 87.6309C74.7871 87.7248 75.1258 87.7811 75.4456 87.7623C75.1822 87.5746 74.9753 87.368 74.8248 87.2366Z" fill="#F8DCCC"/>
<path d="M104.944 65.7927C101.859 67.4827 99.1875 69.2853 97.9834 73.36C96.5725 78.1482 92.7159 82.2605 87.4671 82.1478C82.1996 82.0539 79.6034 81.1714 78.1172 83.2557C77.3835 84.2884 76.7627 85.7531 76.9885 87.2177C77.7598 87.1614 78.6252 86.9924 79.3212 86.4666C79.3212 86.4666 80.1678 88.4758 79.3965 89.2832C80.0549 89.3959 80.6381 89.2457 81.259 88.7575C82.4442 87.8186 83.0838 85.9972 83.4036 85.3024C83.7234 84.6077 84.7393 84.1195 86.978 84.4387C89.2167 84.7579 94.616 85.3775 99.3192 82.974C99.9212 82.6548 100.486 82.3544 100.993 82.0352C103.552 77.1343 104.982 71.6888 104.982 65.9617C104.982 65.9054 104.982 65.8491 104.982 65.7927H104.944Z" fill="#FBCDB2"/>
<path d="M79.3787 89.2646C80.1501 88.4572 79.3035 86.448 79.3035 86.448C78.6074 86.9738 77.7608 87.1615 76.9707 87.1991C77.0271 87.5746 77.1212 87.969 77.3093 88.3257C78.0807 88.8139 78.7391 89.1519 79.3599 89.2458L79.3787 89.2646Z" fill="#FBCDB2"/>
<path d="M85.3212 75.0312C82.6498 77.0592 79.414 77.8478 77.4951 77.5662C75.5762 77.3033 71.7949 78.5802 71.3058 80.533C71.0612 81.5282 72.886 81.4343 72.886 81.4343C72.886 81.4343 72.8296 81.885 72.7731 82.5234C73.5633 82.2042 74.3346 81.7535 74.899 81.0588C74.899 81.0588 76.8179 83.5937 75.7267 84.7579C75.5951 84.8894 75.4446 85.0208 75.2941 85.1147C75.7267 85.002 76.1406 84.833 76.4981 84.5514C76.4981 84.5514 77.2694 86.354 76.6862 87.2365C76.7803 87.2365 76.8555 87.2365 76.9496 87.2365C76.7238 85.7719 77.3446 84.3073 78.0783 83.2745C79.5645 81.1902 82.1607 82.0728 87.4282 82.1666C92.6958 82.2605 96.5336 78.1671 97.9446 73.3788C99.1486 69.3041 101.82 67.5203 104.905 65.8115C104.905 62.6569 104.435 59.5774 103.607 56.6294C100.973 61.1923 97.9069 68.3465 95.9692 70.1116C93.58 72.2897 91.8492 70.074 85.3024 75.05L85.3212 75.0312Z" fill="#F8DCCC"/>
<path d="M72.624 85.2274C73.2448 85.3213 74.2984 85.3776 75.2954 85.096C75.4459 85.0021 75.5964 84.8894 75.7281 84.7392C76.8193 83.575 74.9004 81.04 74.9004 81.04C74.336 81.7536 73.5458 82.2042 72.7745 82.5047C72.6993 83.2746 72.624 84.3261 72.6428 85.2274H72.624Z" fill="#F8DCCC"/>
<path d="M72.6426 85.5091C72.6614 86.1851 72.7555 86.7296 72.9624 86.9362C73.6585 87.6685 74.6179 87.0113 74.6179 87.0113C74.6179 87.0113 74.712 87.1052 74.8437 87.2366C75.013 87.1615 75.2011 87.1052 75.408 87.1427C75.7467 87.1991 76.1982 87.2179 76.7061 87.1991C77.2705 86.3165 76.518 84.5139 76.518 84.5139C76.1417 84.7956 75.7279 84.9646 75.314 85.0772C74.6179 85.5279 73.6961 85.603 72.6426 85.4903V85.5091Z" fill="#F8DCCC"/>
<path d="M72.624 85.2274C72.624 85.3213 72.624 85.4152 72.624 85.509C73.6587 85.6029 74.5805 85.5466 75.2954 85.0959C74.2984 85.3776 73.2448 85.3213 72.624 85.2274Z" fill="#F8DCCC"/>
<path d="M76.4441 87.4994C76.1431 87.6872 75.8233 87.7811 75.4658 87.7811C76.049 88.2318 76.8015 88.6449 77.3283 88.3444C77.1402 87.9689 77.0461 87.5933 76.9897 87.2178C76.8956 87.2178 76.8015 87.2178 76.7263 87.2178C76.651 87.3304 76.5758 87.4243 76.4629 87.4994H76.4441Z" fill="#F8DCCC"/>
<path d="M75.4072 87.1426C75.2002 87.105 74.9933 87.1426 74.8428 87.2365C74.9933 87.3867 75.219 87.5744 75.4636 87.7622C75.8022 87.7622 76.1409 87.6683 76.4419 87.4806C76.5547 87.4054 76.6488 87.3116 76.7052 87.1989C76.1973 87.1989 75.7458 87.1989 75.4072 87.1426Z" fill="#F8DCCC"/>
<path d="M104.7 70.0178L97.5508 65.1169C97.5508 65.1169 101.934 57.6059 102.762 53.9255C102.762 53.9255 105.979 62.4505 104.7 69.999V70.0178Z" fill="#F62C57"/>
</g>
<defs>
<clipPath id="clip0_1_214">
<rect width="90" height="90" fill="white" transform="translate(15 15)"/>
</clipPath>
</defs>
</svg>
