<svg width="120" height="120" viewBox="0 0 120 120" fill="none" xmlns="http://www.w3.org/2000/svg">
<g clip-path="url(#clip0_1_1428)">
<path d="M28.125 15H91.7635V101.737C91.7635 103.537 90.3147 105.019 88.5129 105.019H31.3757C29.5924 105.019 28.125 103.556 28.125 101.737V15Z" fill="#FCD6BC"/>
<path d="M60 15H28.125C28.125 15 28.5708 17.4188 30.837 19.4062C33.1217 21.3938 35.5551 31.8938 35.5551 31.8938H84.4449C84.4449 31.8938 87.6027 20.7375 89.163 19.4062C91.262 17.5687 91.8007 15.3938 91.875 15.075C91.875 15.0563 91.875 15.0188 91.875 15.0188H60V15Z" fill="#F9B38B"/>
<path d="M60 15H28.125C28.125 15 28.5708 17.1 30.837 18.825C33.1217 20.55 37.4126 29.6813 37.4126 29.6813H82.5874C82.5874 29.6813 87.6027 19.9875 89.163 18.825C91.262 17.2313 91.8007 15.3375 91.875 15.0563C91.875 15.0375 91.875 15 91.875 15H60Z" fill="#FBE3D7"/>
<path d="M59.9443 105V29.7188" stroke="#F9B38B" stroke-width="1.875" stroke-miterlimit="10"/>
<path d="M86.7485 88.7063H66.873V99.6938H86.7485V88.7063Z" fill="white"/>
<path d="M79.8941 91.6875H70.5879V92.7938H79.8941V91.6875Z" fill="#2E1A47"/>
<path d="M75.9561 95.3813H70.5879V96.4876H75.9561V95.3813Z" fill="#2E1A47"/>
<path d="M59.9999 27.4687C61.3951 27.4687 62.5261 26.6208 62.5261 25.5749C62.5261 24.529 61.3951 23.6812 59.9999 23.6812C58.6047 23.6812 57.4736 24.529 57.4736 25.5749C57.4736 26.6208 58.6047 27.4687 59.9999 27.4687Z" fill="#F9B38B"/>
</g>
<defs>
<clipPath id="clip0_1_1428">
<rect width="63.75" height="90" fill="white" transform="translate(28.125 15)"/>
</clipPath>
</defs>
</svg>
