<svg width="120" height="120" viewBox="0 0 120 120" fill="none" xmlns="http://www.w3.org/2000/svg">
<g clip-path="url(#clip0_1_436)">
<path d="M53.4521 57.3499L91.9025 45.5547V61.3066L88.5759 78.7114L91.9025 83.1439V89.4046L53.4521 101.25V57.3499Z" fill="#FAE2D6"/>
<path d="M65.8027 70.222L76.1696 63.7359L84.1124 61.2817V77.2591L63.0176 83.7451L65.7769 70.222H65.8027Z" fill="white"/>
<path d="M15 75.7563L21.6276 69.8462L15 60.3049V45.5547L53.4504 57.3499V101.25L15 89.4046V75.7313V75.7563Z" fill="#FBD5BB"/>
<path d="M53.4504 57.3499L15 45.5547L53.4504 33.7095V57.3499Z" fill="#2E1A47"/>
<path d="M53.4521 57.3501L91.9025 45.555L53.4521 33.7097V57.3501Z" fill="#2E1A47"/>
<path d="M78.4385 75.6813L81.6362 74.7046V75.7564L78.4385 76.7581V75.6562V75.6813Z" fill="#2E1A47"/>
<path d="M91.8755 45.5548L72.7664 34.0352L40.041 44.2276L53.4509 57.35L91.8755 45.5548Z" fill="#FAE2D6"/>
<path d="M52.5736 33.2087L70.1612 32.9583L35.1407 41.9987L29.7767 42.8001L15 45.5548L52.5736 33.2087Z" fill="#FAE2D6"/>
<path d="M76.1696 63.7358L63.0176 83.745L65.8027 70.2219L76.1696 63.7358Z" fill="#DBDBDB"/>
<path d="M70.0074 32.9583L35.1416 41.9987L40.0414 44.2275L74.2883 34.7363L71.3226 32.9583H70.0074Z" fill="#B68063"/>
<path d="M25.9331 67.267L24.9531 55.0461L35.1395 41.9988L40.0393 44.2276L30.2397 56.0478L30.8844 67.868L28.9761 67.5675L28.5635 65.1133L28.3056 67.5675L25.9331 67.267Z" fill="#713016"/>
<path d="M21.6276 69.8464L34.2123 83.7452L15 75.7565L21.6276 69.8464Z" fill="#FAE2D6"/>
<path d="M60.645 40.5463L52.5732 45.5548L53.45 57.35L91.8747 45.5548L74.287 34.7363L60.645 40.5463Z" fill="#FBD5BB"/>
<path d="M88.5733 78.7114L87.748 81.4411L91.8742 83.144L88.5733 78.7114Z" fill="#FBD5BB"/>
<path d="M15 45.5548L30.9375 36.5627L53.1667 37.3158L35.1407 41.9988L15 45.5548Z" fill="#FBD5BB"/>
</g>
<g clip-path="url(#clip1_1_436)">
<path d="M86.25 54.375C96.6053 54.375 105 45.9803 105 35.625C105 25.2697 96.6053 16.875 86.25 16.875C75.8947 16.875 67.5 25.2697 67.5 35.625C67.5 45.9803 75.8947 54.375 86.25 54.375Z" fill="#DC381F"/>
<path d="M93.4025 43.6233C93.2006 43.6233 93 43.5459 92.8465 43.3925L78.4235 28.9694C78.1167 28.6626 78.1167 28.1644 78.4235 27.8576C78.7303 27.5507 79.2285 27.5507 79.5367 27.8576L93.9597 42.2806C94.2666 42.5874 94.2666 43.0857 93.9597 43.3925C93.8063 43.5459 93.6044 43.6233 93.4038 43.6233H93.4025Z" fill="white"/>
<path d="M78.9799 43.6231C78.778 43.6231 78.5748 43.5458 78.4213 43.3898C78.1158 43.0816 78.1172 42.5834 78.4266 42.2766L92.9703 27.8535C93.2784 27.548 93.7767 27.5493 94.0835 27.8587C94.389 28.1669 94.3877 28.6651 94.0783 28.9719L79.5345 43.395C79.3811 43.5471 79.1805 43.6231 78.9812 43.6231H78.9799Z" fill="white"/>
</g>
<defs>
<clipPath id="clip0_1_436">
<rect width="76.875" height="73.125" fill="white" transform="translate(15 28.125)"/>
</clipPath>
<clipPath id="clip1_1_436">
<rect width="37.5" height="37.5" fill="white" transform="translate(67.5 16.875)"/>
</clipPath>
</defs>
</svg>
