<svg width="120" height="120" viewBox="0 0 120 120" fill="none" xmlns="http://www.w3.org/2000/svg">
<g clip-path="url(#clip0_1_1469)">
<path d="M60 93.7502L15 79.6205V42.2549L60 56.3846V93.7502Z" fill="#FBE3D7"/>
<path d="M34.1498 81.2007L18.6396 76.3278V59.1689L34.1498 64.0419V81.2007Z" fill="white"/>
<path d="M28.5318 65.6788L20.1328 63.0448V61.7842L28.5318 64.4182V65.6788Z" fill="#2E1A47"/>
<path d="M25.5455 67.5602L20.1328 65.7728V64.4934L25.5455 66.2808V67.5602Z" fill="#2E1A47"/>
<path d="M23.9217 76.0267L20.1328 74.8414V73.562L23.9217 74.7661V76.0267Z" fill="#2E1A47"/>
<path d="M105 79.6205L60 93.7502V56.3846L105 42.2549V79.6205Z" fill="#FCD6BC"/>
<path d="M31.8916 55.1992L39.5067 57.551V50.0252L31.8916 47.6357V55.1992Z" fill="#713016"/>
<path d="M60 28.125L105 42.2547L60 56.3844V28.125Z" fill="#FBE3D7"/>
<path d="M60 28.125L15 42.2547L60 56.3844V28.125Z" fill="#FBE3D7"/>
<path d="M53.9714 30.0254C53.9714 30.0254 44.5272 38.1909 53.1688 45.1523C55.7258 47.2218 60 50.0252 60 56.3845L15 42.2548L53.9714 30.0254Z" fill="#FCD6BC"/>
<path d="M39.5067 50.025L83.2748 35.519L76.1077 33.2612L31.8916 47.6355L39.5067 50.025Z" fill="#B78163"/>
<path d="M93.708 51.7374L102.107 49.1033V47.8428L93.708 50.4768V51.7374Z" fill="#2E1A47"/>
<path d="M96.6943 53.0165L102.107 51.2103V49.9497L96.6943 51.7371V53.0165Z" fill="#2E1A47"/>
</g>
<defs>
<clipPath id="clip0_1_1469">
<rect width="90" height="65.625" fill="white" transform="translate(15 28.125)"/>
</clipPath>
</defs>
</svg>
