<svg width="120" height="120" viewBox="0 0 120 120" fill="none" xmlns="http://www.w3.org/2000/svg">
<g clip-path="url(#clip0_1_1104)">
<path d="M49.4915 87.355L15 76.8305V37.7986L49.4915 48.323V87.355Z" fill="#FAE2D6"/>
<path d="M45.8281 65.1228L27.96 59.6723V46.2612L45.8281 51.7117V65.1228Z" fill="white"/>
<path d="M39.5128 53.7734L29.8281 50.8151V49.3987L39.5128 52.357V53.7734Z" fill="#2E1A47"/>
<path d="M36.071 55.1899L29.8281 53.1818V51.7654L36.071 53.7735V55.1899Z" fill="#2E1A47"/>
<path d="M83.9634 76.8305L49.4902 87.355V48.323L83.9634 37.7986V76.8305Z" fill="#FBD5BB"/>
<path d="M70.8208 50.1877L64.999 51.9447V43.5897L70.8208 41.8147V50.1877Z" fill="#713016"/>
<path d="M49.4902 27.292L83.9634 37.7985L49.4902 48.323V27.292Z" fill="#FAE2D6"/>
<path d="M49.4915 27.292L15 37.7985L49.4915 48.323V27.292Z" fill="#FAE2D6"/>
<path d="M44.8596 28.6904C44.8596 28.6904 37.6098 34.7684 44.2372 39.95C46.1961 41.4919 49.4731 43.5717 49.4731 48.305L15 37.7985L44.8596 28.6904Z" fill="#FBD5BB"/>
<path d="M64.9972 43.5896L31.4395 32.7962L36.9317 31.1108L70.819 41.8146L64.9972 43.5896Z" fill="#B68063"/>
<path d="M80.3571 101.25L55.7334 93.7557V65.8757L80.3571 73.3702V101.25Z" fill="#EAF7F9"/>
<path d="M104.999 93.7557L80.3574 101.25V73.3702L104.999 65.8757V93.7557Z" fill="#CBECF2"/>
<path d="M95.6067 74.7147L91.4326 75.9697V69.9993L95.6067 68.7263V74.7147Z" fill="#2E1A47"/>
<path d="M80.3574 58.3633L104.999 65.8756L80.3574 73.3701V58.3633Z" fill="#EAF7F9"/>
<path d="M80.3571 58.3633L55.7334 65.8756L80.3571 73.3701V58.3633Z" fill="#EAF7F9"/>
<path d="M77.0624 59.3674C77.0624 59.3674 71.8814 63.7063 76.6231 67.4177C78.0327 68.5113 80.3578 70.0174 80.3578 73.3881L55.7158 65.8757L77.0441 59.3674H77.0624Z" fill="#CBECF2"/>
<path d="M91.4324 69.9995L67.4678 62.2899L71.4039 61.0886L95.6065 68.7265L91.4324 69.9995Z" fill="#2E1A47"/>
<path d="M54.325 43.751L35.3584 37.9599V22.6663L54.325 28.4395V43.751Z" fill="#EAF7F9"/>
<path d="M73.2909 37.9599L54.3242 43.751V28.4395L73.2909 22.6663V37.9599Z" fill="#CBECF2"/>
<path d="M42.4805 27.9552L45.6843 28.9233V25.8395L42.4805 24.8713V27.9552Z" fill="#817690"/>
<path d="M54.3242 16.875L73.2909 22.6661L54.3242 28.4394V16.875Z" fill="#EAF7F9"/>
<path d="M54.325 16.875L35.3584 22.6661L54.325 28.4394V16.875Z" fill="#EAF7F9"/>
<path d="M51.7986 17.646C51.7986 17.646 47.8075 20.9988 51.4508 23.8495C52.5309 24.6922 54.325 25.8397 54.325 28.4394L35.3584 22.6662L51.7986 17.646Z" fill="#CBECF2"/>
<path d="M45.6843 25.8396L64.1383 19.905L61.1176 18.9727L42.4805 24.8714L45.6843 25.8396Z" fill="#817690"/>
</g>
<defs>
<clipPath id="clip0_1_1104">
<rect width="90" height="84.375" fill="white" transform="translate(15 16.875)"/>
</clipPath>
</defs>
</svg>
