<svg width="120" height="120" viewBox="0 0 120 120" fill="none" xmlns="http://www.w3.org/2000/svg">
<g clip-path="url(#clip0_1_883)">
<path d="M15 34.572H97.2234V103.285C97.2234 104.227 96.4219 105.014 95.4375 105.014H16.7859C15.8156 105.014 15 104.241 15 103.285V34.572Z" fill="#A7D8E5"/>
<path d="M17.475 15.9421H94.7766C96.1406 15.9421 97.2516 17.0248 97.2516 18.3324V37.6934H15V18.3324C15 17.0248 16.1109 15.9421 17.475 15.9421Z" fill="#E2425B"/>
<path d="M15 37.7075V18.3324C15 16.9967 16.1109 15.9421 17.475 15.9421H41.1281C41.1281 15.9421 43.35 28.6808 58.9453 37.7075" fill="#D02D4A"/>
<path d="M103.424 101.794H21.1863C18.9785 98.0261 17.7551 94.0189 17.4738 89.9555C16.5738 72.5348 20.0613 55.1141 16.5879 37.6934H97.2223C101.23 55.1281 98.277 72.591 99.7254 90.0258C99.9926 94.033 101.216 97.998 103.368 101.71C103.368 101.724 103.382 101.752 103.41 101.766H103.424V101.794Z" fill="#ECF7F9"/>
<path d="M105.001 97.9135H23.0443C20.8225 94.3703 19.0084 90.4897 18.7412 86.6793C16.899 70.3553 19.5287 54.0313 15.0146 37.7073H97.224C101.766 54.0453 99.1225 70.4115 100.993 86.7496C101.26 90.5318 102.751 94.3562 104.958 97.8573C104.958 97.8713 104.972 97.8994 105.001 97.9135Z" fill="#CCEDF3"/>
<path d="M105.001 97.9135H23.0443C20.8225 94.3703 19.0084 90.4897 18.7412 86.6793C16.899 70.3553 19.5287 54.0313 15.0146 37.7073H97.224C101.766 54.0453 99.1225 70.4115 100.993 86.7496C101.26 90.5318 102.751 94.3562 104.958 97.8573C104.958 97.8713 104.972 97.8994 105.001 97.9135Z" fill="white" fill-opacity="0.9"/>
<path d="M25.4906 27.6684C27.1781 27.6684 28.5281 26.6138 28.5281 25.3062C28.5281 23.9986 27.1641 22.9441 25.4906 22.9441C23.8172 22.9441 22.4531 23.9986 22.4531 25.3062C22.4531 26.6138 23.8172 27.6684 25.4906 27.6684Z" fill="#2B1B44"/>
<path d="M27.3029 25.3203C27.3029 25.3203 27.3029 26.5013 25.4889 26.5013C23.6748 26.5013 23.6748 25.3203 23.6748 25.3203V15.9702C23.6748 15.4359 24.1107 15 24.6732 15H26.3045C26.8529 15 27.3029 15.4218 27.3029 15.9702V25.3203Z" fill="#564869"/>
<path d="M88.3646 27.6684C90.0521 27.6684 91.4022 26.6138 91.4022 25.3062C91.4022 23.9986 90.0381 22.9441 88.3646 22.9441C86.6912 22.9441 85.3271 23.9986 85.3271 25.3062C85.3271 26.6138 86.6912 27.6684 88.3646 27.6684Z" fill="#2B1B44"/>
<path d="M90.177 25.3203C90.177 25.3203 90.1769 26.5013 88.3629 26.5013C86.5488 26.5013 86.5488 25.3203 86.5488 25.3203V15.9702C86.5488 15.4359 86.9848 15 87.5473 15H89.1785C89.727 15 90.177 15.4218 90.177 15.9702V25.3203Z" fill="#564869"/>
<path d="M72.0363 23.6472H40.6348V25.686H72.0363V23.6472Z" fill="#EE868C"/>
<path d="M66.2877 27.7104H46.4033V29.7492H66.2877V27.7104Z" fill="#EE868C"/>
<path d="M32.5918 65.9405C32.5918 60.8928 33.6887 57.1387 35.8965 54.6782C38.0902 52.2176 41.2543 50.9944 45.3746 50.9944C53.784 50.9944 57.9887 55.9436 57.9887 65.8561C57.9887 70.8757 56.8918 74.6298 54.684 77.1044C52.4902 79.579 49.3262 80.8163 45.2059 80.8163C36.7965 80.8163 32.5918 75.8671 32.5918 65.9545V65.9405ZM49.8746 73.3081C50.859 71.8318 51.3512 69.3431 51.3512 65.8561C51.3512 62.3692 50.859 59.9227 49.8746 58.4604C48.8902 56.9981 47.3574 56.267 45.2902 56.267C43.223 56.267 41.6902 56.9981 40.7059 58.4745C39.7215 59.9508 39.2293 62.4395 39.2293 65.9264C39.2293 69.4134 39.7215 71.8599 40.7059 73.3221C41.6902 74.7844 43.223 75.5156 45.2902 75.5156C47.3574 75.5156 48.8902 74.7844 49.8746 73.3081Z" fill="#22004E"/>
<path d="M84.5826 80.0711H61.3514V75.2766C63.2357 73.969 64.9092 72.7879 66.3717 71.7474C67.8342 70.707 69.2264 69.6946 70.5764 68.7104C72.1373 67.5575 73.417 66.6014 74.4014 65.7999C75.3998 65.0126 76.1732 64.3095 76.7217 63.6909C77.2701 63.0722 77.6498 62.4958 77.8467 61.9474C78.0576 61.3991 78.1561 60.8085 78.1561 60.1899C78.1561 57.5465 76.4545 56.2108 73.0373 56.2108C71.4201 56.2108 70.1686 56.5342 69.2826 57.1669C68.3967 57.8137 67.7357 58.8682 67.2998 60.3445L61.1123 59.6415C61.6607 56.8013 62.9686 54.6501 65.0498 53.1738C67.1311 51.6974 69.8873 50.9663 73.3326 50.9663C76.7779 50.9663 79.7029 51.7256 81.7279 53.2441C83.7529 54.7626 84.7654 56.8857 84.7654 59.6134C84.7654 60.8929 84.5404 62.0739 84.0904 63.1566C83.6404 64.2392 82.867 65.3219 81.7561 66.4326C80.6451 67.5434 79.1264 68.8088 77.1857 70.257C76.1451 71.0163 75.1467 71.7474 74.1764 72.4223C73.2061 73.0972 72.0529 73.8987 70.717 74.7985H85.342L84.6107 80.043L84.5826 80.0711Z" fill="#22004E"/>
</g>
<defs>
<clipPath id="clip0_1_883">
<rect width="90" height="90" fill="white" transform="translate(15 15)"/>
</clipPath>
</defs>
</svg>
