<svg width="120" height="120" viewBox="0 0 120 120" fill="none" xmlns="http://www.w3.org/2000/svg">
<g clip-path="url(#clip0_1_834)">
<path d="M15 34.572H97.2234V103.285C97.2234 104.227 96.4219 105.014 95.4375 105.014H16.7859C15.8156 105.014 15 104.241 15 103.285V34.572Z" fill="#A7D8E5"/>
<path d="M17.475 15.9421H94.7766C96.1406 15.9421 97.2516 17.0248 97.2516 18.3324V37.6934H15V18.3324C15 17.0248 16.1109 15.9421 17.475 15.9421Z" fill="#E2425B"/>
<path d="M15 37.7075V18.3324C15 16.9967 16.1109 15.9421 17.475 15.9421H41.1281C41.1281 15.9421 43.35 28.6808 58.9453 37.7075" fill="#D02D4A"/>
<path d="M103.425 101.794H21.1873C18.9795 98.0261 17.7561 94.0189 17.4748 89.9555C16.5748 72.5348 20.0623 55.1141 16.5889 37.6934H97.2232C101.231 55.1281 98.2779 72.591 99.7264 90.0258C99.9936 94.033 101.217 97.998 103.369 101.71C103.369 101.724 103.383 101.752 103.411 101.766H103.425V101.794Z" fill="#ECF7F9"/>
<path d="M105.001 97.9135H23.0443C20.8225 94.3703 19.0084 90.4897 18.7412 86.6793C16.899 70.3553 19.5287 54.0313 15.0146 37.7073H97.224C101.766 54.0453 99.1225 70.4115 100.993 86.7496C101.26 90.5318 102.751 94.3562 104.958 97.8573C104.958 97.8713 104.972 97.8994 105.001 97.9135Z" fill="#CCEDF3"/>
<path d="M105.001 97.9135H23.0443C20.8225 94.3703 19.0084 90.4897 18.7412 86.6793C16.899 70.3553 19.5287 54.0313 15.0146 37.7073H97.224C101.766 54.0453 99.1225 70.4115 100.993 86.7496C101.26 90.5318 102.751 94.3562 104.958 97.8573C104.958 97.8713 104.972 97.8994 105.001 97.9135Z" fill="white" fill-opacity="0.9"/>
<path d="M25.4896 27.6684C27.1771 27.6684 28.5271 26.6138 28.5271 25.3062C28.5271 23.9986 27.1631 22.9441 25.4896 22.9441C23.8162 22.9441 22.4521 23.9986 22.4521 25.3062C22.4521 26.6138 23.8162 27.6684 25.4896 27.6684Z" fill="#2B1B44"/>
<path d="M27.3039 25.3203C27.3039 25.3203 27.3039 26.5013 25.4898 26.5013C23.6758 26.5013 23.6758 25.3203 23.6758 25.3203V15.9702C23.6758 15.4359 24.1117 15 24.6742 15H26.3055C26.8539 15 27.3039 15.4218 27.3039 15.9702V25.3203Z" fill="#564869"/>
<path d="M88.3646 27.6684C90.0521 27.6684 91.4022 26.6138 91.4022 25.3062C91.4022 23.9986 90.0381 22.9441 88.3646 22.9441C86.6912 22.9441 85.3271 23.9986 85.3271 25.3062C85.3271 26.6138 86.6912 27.6684 88.3646 27.6684Z" fill="#2B1B44"/>
<path d="M90.1779 25.3203C90.1779 25.3203 90.1779 26.5013 88.3639 26.5013C86.5498 26.5013 86.5498 25.3203 86.5498 25.3203V15.9702C86.5498 15.4359 86.9857 15 87.5482 15H89.1795C89.7279 15 90.1779 15.4218 90.1779 15.9702V25.3203Z" fill="#564869"/>
<path d="M72.0363 23.647H40.6348V25.6857H72.0363V23.647Z" fill="#EE868C"/>
<path d="M66.2867 27.7104H46.4023V29.7492H66.2867V27.7104Z" fill="#EE868C"/>
<path d="M34.8047 65.5749C34.8047 60.5272 35.9016 56.7872 38.0953 54.3266C40.2891 51.8661 43.4391 50.6428 47.5594 50.6428C55.9547 50.6428 60.1594 55.592 60.1594 65.4905C60.1594 70.51 59.0625 74.2501 56.8687 76.7106C54.675 79.1852 51.525 80.4085 47.4047 80.4085C39.0094 80.4085 34.8047 75.4593 34.8047 65.5608V65.5749ZM52.0594 72.9284C53.0437 71.4521 53.5359 68.9775 53.5359 65.4905C53.5359 62.0035 53.0437 59.5711 52.0594 58.1088C51.075 56.6466 49.5562 55.9154 47.475 55.9154C45.3937 55.9154 43.875 56.6466 42.8906 58.1229C41.9062 59.5992 41.4141 62.0738 41.4141 65.5608C41.4141 69.0478 41.9062 71.4802 42.8906 72.9425C43.875 74.4047 45.3937 75.1359 47.475 75.1359C49.5562 75.1359 51.075 74.4047 52.0594 72.9284Z" fill="#22004E"/>
<path d="M81.1824 79.6773H74.6012V58.7415L68.0621 62.9174L65.123 58.0104L75.5574 51.4302H81.1965V79.6914L81.1824 79.6773Z" fill="#22004E"/>
</g>
<defs>
<clipPath id="clip0_1_834">
<rect width="90" height="90" fill="white" transform="translate(15 15)"/>
</clipPath>
</defs>
</svg>
