<svg width="120" height="120" viewBox="0 0 120 120" fill="none" xmlns="http://www.w3.org/2000/svg">
<g clip-path="url(#clip0_1_1515)">
<path d="M38.1097 24.6365C45.6951 24.6365 51.8444 22.4793 51.8444 19.8182C51.8444 17.1572 45.6951 15 38.1097 15C30.5242 15 24.375 17.1572 24.375 19.8182C24.375 22.4793 30.5242 24.6365 38.1097 24.6365Z" fill="#FBE3D7"/>
<path d="M38.1097 100.479C45.6951 100.479 51.8444 98.3221 51.8444 95.661C51.8444 93 45.6951 90.8428 38.1097 90.8428C30.5242 90.8428 24.375 93 24.375 95.661C24.375 98.3221 30.5242 100.479 38.1097 100.479Z" fill="#FBE3D7"/>
<path d="M51.8444 20.0957H24.375V95.6608H51.8444V20.0957Z" fill="#FBE3D7"/>
<path d="M37.9354 22.8717C43.9652 22.8717 48.8533 21.5046 48.8533 19.8182C48.8533 18.1318 43.9652 16.7646 37.9354 16.7646C31.9057 16.7646 27.0176 18.1318 27.0176 19.8182C27.0176 21.5046 31.9057 22.8717 37.9354 22.8717Z" fill="#827691"/>
<path d="M77.087 45.0992C87.3135 45.0992 95.6037 42.7733 95.6037 39.9042C95.6037 37.0351 87.3135 34.7092 77.087 34.7092C66.8605 34.7092 58.5703 37.0351 58.5703 39.9042C58.5703 42.7733 66.8605 45.0992 77.087 45.0992Z" fill="#F9B38B"/>
<path d="M77.087 105C87.3135 105 95.6037 102.674 95.6037 99.8053C95.6037 96.9362 87.3135 94.6104 77.087 94.6104C66.8605 94.6104 58.5703 96.9362 58.5703 99.8053C58.5703 102.674 66.8605 105 77.087 105Z" fill="#F9B38B"/>
<path d="M95.6031 39.6465H58.5479V99.8051H95.6031V39.6465Z" fill="#F9B38B"/>
<path d="M76.8241 43.1957C84.9643 43.1957 91.5632 41.7221 91.5632 39.9043C91.5632 38.0864 84.9643 36.6128 76.8241 36.6128C68.6839 36.6128 62.085 38.0864 62.085 39.9043C62.085 41.7221 68.6839 43.1957 76.8241 43.1957Z" fill="#FCD6BC"/>
<path d="M95.6031 74.6232C95.6031 77.7362 87.2836 78.1725 87.2836 78.1725C85.7115 78.2121 84.1611 77.7561 84.1611 76.4078V59.6926C84.1611 58.9193 84.7289 58.2253 85.5805 57.9279C85.5805 57.9279 93.3758 57.8089 95.5812 54.5571V74.6232H95.6031Z" fill="white"/>
<path d="M72.8721 37.8818L81.3443 41.55" stroke="#F9B38B" stroke-width="0.9375" stroke-miterlimit="10" stroke-linecap="round"/>
<path d="M24.3753 41.3516C24.3753 41.3516 32.5201 71.2326 51.8447 87.5512V95.6609C51.8447 95.6609 51.7574 100.479 37.9353 100.479C24.1133 100.479 24.3753 95.6609 24.3753 95.6609V41.3516Z" fill="#FCD6BC"/>
<path d="M43.5256 46.5464H32.1055V69.091H43.5256V46.5464Z" fill="white"/>
<path d="M58.5479 61.1799V99.8052C58.5479 99.8052 59.1593 105 77.3047 105C77.3047 105 95.6031 104.643 95.6031 99.8052V92.3894C95.6031 92.3894 58.5479 91.1998 58.5479 61.1799Z" fill="#B78163"/>
</g>
<defs>
<clipPath id="clip0_1_1515">
<rect width="71.25" height="90" fill="white" transform="translate(24.375 15)"/>
</clipPath>
</defs>
</svg>
