<svg width="121" height="120" viewBox="0 0 121 120" fill="none" xmlns="http://www.w3.org/2000/svg">
<path d="M120.192 37.5H0V79.2496H120.192V37.5Z" fill="#ED1C24"/>
<path d="M120.192 79.25H0V83.8903H120.192V79.25Z" fill="#00539B"/>
<path d="M29.0176 48.9367C29.0176 48.8393 28.9934 48.7297 28.9691 48.6323C28.8477 48.2304 28.5929 48.0477 28.3622 47.9746C28.5565 48.6323 28.2288 49.2899 28.0831 49.5578C27.6827 50.2886 26.7846 50.995 26.0686 51.2142C25.3526 51.4213 24.2968 51.3604 24.2968 51.3604L23.0468 53.5039H22.9012L22.5371 54.125L23.6657 54.1737L24.9157 52.0302C24.9157 52.0302 25.9108 52.079 26.6148 51.8963L29.0176 48.9489" fill="#9E0B0F"/>
<path d="M25.8331 50.3718L26.719 48.8129H27.3743C27.4957 48.1796 26.8769 48.1309 26.8769 48.1309H26.1002L24.7773 50.4449C24.7773 50.4449 25.3719 50.4815 25.8088 50.3718" fill="#9E0917"/>
<path d="M89.7286 64.3193L88.0296 64.1489L87.9932 64.4655L90.4082 64.7456L90.481 63.9418L89.7772 63.8809L89.7286 64.3193Z" fill="#9E0B0F"/>
<path d="M89.294 59.8846L88.5791 59.8359L88.1914 63.3799L88.8941 63.453L89.294 59.8846Z" fill="#9E0B0F"/>
<path d="M77.2088 57.2064C80.2912 56.975 81.9417 55.8424 82.8762 54.3565L83.6408 48.8882C83.4101 48.3401 83.046 47.8286 82.5727 47.4023C83.0825 48.3523 83.2281 49.4606 83.0218 50.4471C82.4636 53.1265 81.165 55.7206 76.3107 56.0859C75.0364 56.1834 73.568 55.8302 72.5244 54.929C73.4102 56.6827 75.4855 57.3648 77.1966 57.2308" fill="#9E0B0F"/>
<path d="M74.1997 53.576C73.9813 52.967 73.957 52.1876 74.2361 51.2133C74.8187 49.1915 76.3478 47.8884 78.7264 47.7909C79.503 47.7544 80.0856 47.9371 80.5345 48.2416C80.1462 47.316 79.3452 46.5852 77.8283 46.6461C75.4497 46.7436 73.9206 48.0589 73.3381 50.0806C72.8284 51.8466 73.3017 52.967 74.1997 53.576Z" fill="#9E0B0F"/>
<path d="M70.7399 51.0441H67.7423L66.5167 55.4529L65.8734 55.4285L65.6064 56.3907L67.4753 56.4882L68.701 52.0915H71.1889C71.1646 51.6165 71.2132 51.0806 71.3345 50.4961H70.8613L70.7156 51.0441" fill="#9E0B0F"/>
<path d="M73.424 46.5859L72.1983 46.6225L72.1012 47.0122L68.8245 47.134L68.2178 49.448H69.4678L69.8076 48.1814L72.4774 48.084C72.7201 47.7673 72.9993 47.4385 73.3148 47.1218L73.4483 46.5859" fill="#9E0B0F"/>
<path d="M49.7924 54.6834L46.6249 54.5494L46.2852 55.3532L50.6662 55.5846L51.1758 54.1718L49.9986 54.123L49.7924 54.6834Z" fill="#9E0B0F"/>
<path d="M48.8087 53.1992L49.7675 50.7512L49.1365 50.532L49.9253 50.325L51.1268 47.2559L49.8768 47.268L47.6074 53.1505L48.8087 53.1992Z" fill="#9E0B0F"/>
<path d="M45.6434 53.9418L45.1459 53.9297L44.9274 54.4778L41.9056 54.3438L41.5537 55.0988L45.6798 55.3303L45.9953 54.5264L45.4128 54.502L45.6434 53.9418Z" fill="#9E0B0F"/>
<path d="M45.9592 48.5826L47.9009 48.5217L48.3985 47.3281L47.7309 47.3403L47.6097 47.6448L45.2068 47.7057L44.418 49.5934L45.5344 49.5813L45.9592 48.5826Z" fill="#9E0B0F"/>
<path d="M44.03 53.0521L44.661 51.6636L46.6027 51.6515L47.1003 50.4336L46.2265 50.4457L46.0931 50.7867H43.9086L42.9014 53.0033L44.03 53.0521Z" fill="#9E0B0F"/>
<path d="M41.0672 53.6723C40.8973 53.7332 40.7396 53.7698 40.5939 53.7942L40.5211 53.9525C40.5211 53.9525 38.7493 54.7928 37.5479 54.123C38.5065 56.1204 41.2856 54.7928 41.2856 54.7928L41.4798 54.3178L40.7759 54.2813L41.0551 53.6602" fill="#9E0B0F"/>
<path d="M37.9256 52.0178C37.9984 52.3224 38.2047 52.7486 38.7023 52.9313C38.7023 52.9069 38.6901 52.8826 38.678 52.8582C38.508 52.1031 39.2362 50.4224 40.6561 49.3019C41.8333 48.3885 42.7192 48.5468 43.2531 48.8269L43.8235 47.5603C43.7143 47.5238 43.5929 47.4994 43.4595 47.4629L43.0226 48.3885C43.0226 48.3885 42.0152 47.1584 40.3406 48.1449C40.0978 48.3032 39.8673 48.4737 39.6245 48.693C39.6002 48.7173 39.5881 48.7295 39.5639 48.7539C39.2847 49.0096 39.0178 49.3141 38.763 49.6429C38.1076 50.5442 37.8042 51.4941 37.9134 52.0178" fill="#9E0B0F"/>
<path d="M36.3111 48.716C36.3839 48.3628 36.2625 48.034 35.6921 47.9609L34.6606 48.0097L33.3984 50.4698C33.3984 50.4698 33.9082 50.5185 34.4663 50.4089L35.3159 48.7648L36.3111 48.7282" fill="#9E0B0F"/>
<path d="M38.2122 48.5574C38.1151 48.1555 37.836 47.9362 37.5569 47.8145C37.6176 48.0946 37.6054 48.4599 37.4476 48.9349C37.2657 49.483 36.6467 51.0662 34.6321 51.3829L35.4209 54.0379L34.5957 54.0136L34.7535 54.7565L36.0764 54.8296L35.2875 52.138C35.8093 52.0528 36.234 51.8822 36.586 51.6752C36.7802 50.6887 37.4355 49.483 38.2122 48.5574Z" fill="#9E0B0F"/>
<path d="M31.6402 53.8818L31.5066 53.8697L31.1426 54.5639L32.2955 54.6247L33.6789 51.9454L33.3755 50.4961L31.6402 53.8818Z" fill="#9E0B0F"/>
<path d="M50.0352 51.4937L54.3191 52.9674L54.3676 52.6751L54.5497 53.0526L55.0472 53.2232L54.2826 51.4693L54.9016 50.9578L54.6588 50.495L54.9623 50.2637L53.4453 50.6412L54.1492 52.261L51.1395 51.2136L50.0352 51.4937Z" fill="#9E0B0F"/>
<path d="M60.0114 49.0218L60.788 42.6035L59.5016 44.8323L59.1133 48.0232L59.6837 48.9366L60.0114 49.0218Z" fill="#9E0B0F"/>
<path d="M58.7246 47.8644L58.215 47.0605L57.4141 48.4368L57.596 48.7412L58.7246 47.8644Z" fill="#9E0917"/>
<path d="M55.5952 54.2095L55.3044 53.625L55.1953 54.3314L55.2559 54.4531L55.5952 54.2095Z" fill="#9E0917"/>
<path d="M56.0823 55.2092L54.6745 57.5719L54.1406 60.9941L58.4488 53.7598L56.1915 55.404L56.0823 55.2092Z" fill="#9E0B0F"/>
<path d="M65.7503 51.348L64.027 50.873L61.1265 51.5917L58.9785 53.3454L65.6653 51.6769L65.7503 51.348Z" fill="#9E0B0F"/>
<path d="M59.4069 51.2737L58.2904 49.3008L58.0356 49.4956L58.6909 50.6283L56.1182 52.577L56.5915 53.4903L57.5137 52.8084L57.1132 53.4903L58.8973 52.1507L58.0841 52.3578L59.4069 51.2737Z" fill="#9E0B0F"/>
<path d="M79.5838 62.4805C79.341 62.1882 79.2562 61.8593 79.3289 61.4574C79.4017 61.0433 79.6081 60.7023 79.9358 60.4222C80.2634 60.1299 80.6396 59.996 81.0765 59.996C81.1979 59.996 81.3192 60.0203 81.4284 60.0447C81.1979 59.8133 80.9066 59.7037 80.5304 59.6914C80.0935 59.6914 79.7173 59.8254 79.3896 60.1056C79.062 60.3979 78.8677 60.7389 78.7829 61.1529C78.71 61.5549 78.795 61.8837 79.0498 62.176C79.2198 62.3709 79.4382 62.5049 79.7051 62.5657C79.6687 62.5414 79.6445 62.517 79.6081 62.4805" fill="#9E0B0F"/>
<path d="M81.8159 59.3867C81.9129 59.4598 81.9978 59.5451 82.0828 59.6425C82.4711 60.081 82.641 60.629 82.5561 61.2379C82.4833 61.8591 82.1799 62.3828 81.6823 62.7847C81.1847 63.1745 80.6023 63.3572 79.959 63.3449C79.6921 63.3449 79.4373 63.2841 79.2188 63.1987C79.5707 63.4789 80.0076 63.6372 80.5173 63.6616C81.1726 63.686 81.7552 63.491 82.2405 63.1135C82.7381 62.7116 83.0415 62.1879 83.1143 61.5668C83.1871 60.9579 83.0293 60.4098 82.641 59.9713C82.4105 59.7034 82.1314 59.5207 81.8159 59.4111" fill="#9E0B0F"/>
<path d="M94.0396 60.4321C94.4763 60.834 94.7434 61.4307 94.6827 62.3319C94.5128 64.4633 92.7167 64.6216 91.576 64.4998L91.2483 64.4633L91.2119 64.8166L92.2313 64.9262C93.3841 65.0479 95.1682 64.8896 95.338 62.7461C95.4473 61.4307 94.8041 60.7609 94.0274 60.4199" fill="#9E0B0F"/>
<path d="M91.4062 63.6975L91.6853 63.7341C91.831 63.7463 91.9767 63.7585 92.1101 63.7585L92.3772 60.8721H92.6077C92.8868 60.9086 93.2508 60.9451 93.5786 61.0669C93.1539 60.592 92.4377 60.4824 91.9403 60.458L91.7096 60.4336L91.4062 63.6854" fill="#9E0B0F"/>
<path d="M87.0484 61.188C87.1333 60.4695 86.8299 59.9458 86.211 59.7266C86.4537 59.9945 86.5508 60.372 86.5022 60.8227C86.4172 61.5412 86.0289 62.0162 85.3857 62.1501L86.4658 63.977L85.8591 63.9161L86.041 64.2571L87.0119 64.3667L85.9198 62.5155C86.5629 62.3816 86.9512 61.8945 87.0362 61.1758" fill="#9E0B0F"/>
<path d="M85.7021 60.3735C85.6049 60.1421 85.3987 60.0203 85.0952 59.9959L84.3185 59.9473L83.821 63.7106L83.639 63.6862L83.6025 63.9907L84.3671 64.076L84.6099 62.2491L84.1608 61.4209C84.1608 61.4209 84.4156 61.4696 84.719 61.4575L84.8768 60.3004L85.6535 60.3492C85.6535 60.3492 85.6899 60.3492 85.7142 60.3613" fill="#9E0B0F"/>
<path d="M96.2242 53.6986C95.9815 53.2115 95.8116 52.6756 95.7509 52.0788C95.4718 49.8988 97.9232 48.1694 98.9547 47.8771C101.491 47.1585 103.324 48.0841 103.943 48.4738L103.918 46.2573C103.724 46.1842 103.421 46.0867 103.069 46.0137V47.2316C103.069 47.2316 101.006 45.5996 97.8626 46.4886C96.8309 46.7809 94.3796 48.4982 94.6587 50.6905C94.8165 51.9692 95.399 52.98 96.2363 53.7108" fill="#9E0B0F"/>
<path d="M104.029 57.1208V55.4157C103.798 55.5375 103.507 55.6715 103.179 55.7933V56.3413C99.4898 58.0951 96.0918 57.0112 94.1016 55.0625C95.6792 57.8028 99.769 59.8855 104.271 57.7297V57.1329H104.016" fill="#9E0B0F"/>
<path d="M113.471 58.899L113.337 56.6459L112.318 56.6094L112.379 57.4984L105.109 57.1696L105.134 58.4606L113.471 58.899Z" fill="#9E0B0F"/>
<path d="M106.527 49.2519H107.595L107.558 47.6565L112.413 47.5469L112.267 45.4277L111.272 45.4643L111.321 46.1463L106.454 46.2559L106.527 49.2519Z" fill="#9E0B0F"/>
<path d="M112.374 50.6523H111.343L111.367 51.4318L106.622 51.3953L106.743 55.0246L107.787 55.0734L107.714 52.7959L112.459 52.8324L112.374 50.6523Z" fill="#9E0B0F"/>
<path d="M31.564 51.7487L32.4134 47.8027L31.6489 47.8149L30.3626 53.8191L29.9864 53.807L29.8164 54.5012L30.9572 54.5499L31.1028 53.8557L30.4838 53.8314L31.564 51.7487Z" fill="#9E0B0F"/>
<path d="M28.5938 50.8963L29.9407 50.9084L30.5476 48.4727L28.5938 50.8963Z" fill="#9E0917"/>
<path d="M27.8143 51.8828L26.4431 53.6365H26.3217L25.7998 54.2942L27.0619 54.355L28.4333 52.5892L29.4891 52.6257L29.6589 51.9436L27.8143 51.8828Z" fill="#9E0B0F"/>
<path d="M88.422 46.6465C87.706 46.6465 86.1527 46.7439 86.1527 46.7439L84.8905 56.2679L84.2838 56.2435L84.126 57.3518L86.359 57.4736L87.0022 52.736L85.6551 50.7021C85.6551 50.7021 86.4075 50.763 87.2813 50.6168L87.6453 47.9496C87.6453 47.9496 89.1138 47.8644 89.8541 47.8522C89.6599 47.0971 88.9682 46.6587 88.422 46.6587" fill="#9E0B0F"/>
<path d="M90.4941 53.2839C91.2465 52.9793 91.9019 52.6262 92.4236 52.1998C92.3631 51.9319 92.3266 51.664 92.3145 51.4083C92.2659 49.7642 92.6543 48.5097 93.2489 47.5353C92.8605 46.902 92.2902 46.5367 91.7441 46.3418C92.1081 46.9386 92.3145 47.7667 92.1567 48.9481C91.9626 50.4583 90.7247 51.4204 88.9893 52.1146L92.3024 56.6087L90.2028 56.5113L91.0038 57.7292L93.8679 57.8753L90.4819 53.296" fill="#9E0B0F"/>
<path d="M110.837 62.2714L113.434 62.4541L113.385 61.6504L112.718 61.6016L112.73 61.8573L110.072 61.6746L110.145 63.1118L110.885 63.1727L110.837 62.2714Z" fill="#9E0B0F"/>
<path d="M113.385 63.9164L112.645 63.8555L112.67 64.1356L110.182 63.9285L110.267 65.5605L110.995 65.6336L110.946 64.5253L113.422 64.7324L113.385 63.9164Z" fill="#9E0B0F"/>
<path d="M113.665 66.4246L112.936 66.3516L112.961 66.6925L110.182 66.4246L110.206 66.9362L113.725 67.3016L113.665 66.4246Z" fill="#9E0B0F"/>
<path d="M107.706 61.4922C108.131 61.9306 108.434 62.5518 108.422 63.453C108.398 65.6452 106.432 66.035 105.34 65.9254L105 65.8888V66.3517L106.092 66.4613C107.184 66.5708 109.15 66.1811 109.175 63.9889C109.187 62.6126 108.495 61.8697 107.706 61.4922Z" fill="#9E0B0F"/>
<path d="M105.218 65.0852C105.449 65.1095 105.643 65.1095 105.813 65.1095L105.765 61.9186H105.886C106.481 61.9673 106.893 62.0526 107.221 62.1865C107.148 62.1013 107.063 62.0161 106.966 61.9308C106.578 61.6142 106.056 61.4436 105.121 61.3828H105L105.061 65.073C105.158 65.073 105.206 65.073 105.206 65.073" fill="#9E0B0F"/>
<path d="M103.106 60.8945L103.13 65.6808L102.997 65.6687V66.1437L103.845 66.2289L103.809 60.9432L103.106 60.8945Z" fill="#9E0B0F"/>
<path d="M99.5508 64.6955L99.9391 65.8403L102.027 60.8227L101.165 60.7617L99.5508 64.6955Z" fill="#9E0B0F"/>
<path d="M98.7704 60.2617L98.5039 60.8829L99.3398 63.2335L99.6065 62.5758L98.7704 60.2617Z" fill="#9E0B0F"/>
<path d="M97.0273 64.4156L97.4035 65.5725L98.4715 63.0272L98.0831 61.8945L97.0273 64.4156Z" fill="#9E0B0F"/>
<path d="M96.5162 60.4212L95.9951 60.3848L96.8433 63.0032L97.134 62.3456L96.5162 60.4212Z" fill="#9E0B0F"/>
<path d="M74.0523 58.7651L73.5312 58.7285L73.9917 60.9938L74.4037 60.3118L74.0523 58.7651Z" fill="#9E0B0F"/>
<path d="M76.0691 58.7891L75.7178 59.3249L76.154 60.9569L76.4811 60.3114L76.0691 58.7891Z" fill="#9E0B0F"/>
<path d="M76.2227 62.2842L76.4654 63.2098L78.6984 59.0932L77.9824 59.0566L76.2227 62.2842Z" fill="#9E0B0F"/>
<path d="M74.0254 62.0768L74.2196 62.9537L75.3968 61.0781L75.1783 60.25L74.0254 62.0768Z" fill="#9E0B0F"/>
<path d="M89.7552 74.0373C84.7067 72.0155 79.4034 70.3714 73.8695 69.0926C78.4933 69.4702 84.3305 70.2009 90.5925 72.3566C90.7261 72.6124 90.7625 72.8194 90.7261 72.9534C90.6411 73.343 90.3013 73.6963 89.7552 74.0251M85.1072 75.3161C81.2602 73.0507 77.3282 71.1022 73.3477 69.4945C78.8452 70.7489 84.1242 72.3566 89.1363 74.3417C88.1775 74.768 86.7941 75.0969 85.0951 75.3161M78.9666 75.5475C76.685 73.27 74.3549 71.2483 71.9885 69.5189C76.1389 71.1265 80.2286 73.0995 84.2334 75.4135C82.68 75.5596 80.9083 75.6206 78.9544 75.5475M72.4982 74.9385C71.9399 72.8194 71.3453 70.9195 70.702 69.251C73.2385 71.0168 75.7385 73.1117 78.1898 75.5231C76.418 75.4379 74.5006 75.243 72.4982 74.9385ZM69.0881 74.3174C68.0201 74.0982 66.9886 73.8424 65.9812 73.5745C67.4012 71.8207 68.7603 70.2983 70.071 69.0073C70.7385 70.7124 71.3089 72.6611 71.8913 74.8411C70.957 74.695 70.0589 74.5123 69.0881 74.3052M65.3867 73.404C63.4571 72.868 61.7095 72.2835 60.059 71.638C63.2507 70.4445 66.3696 69.531 69.3915 68.9464C68.1293 70.2253 66.7458 71.6989 65.3867 73.404ZM54.6465 69.1291C59.1732 68.642 63.6755 68.4958 68.105 68.6908C65.2531 69.3241 62.3163 70.2131 59.343 71.3579C57.5713 70.6393 55.9936 69.8843 54.6587 69.1291M50.7995 66.2915C56.1149 66.4863 61.4668 67.0952 66.855 68.1183C62.6076 67.9965 58.2751 68.2035 53.9305 68.6908C52.5591 67.8625 51.4912 67.0344 50.7995 66.2915ZM36.455 72.2835C35.46 70.6272 35.0595 69.0317 35.375 67.5702C35.4236 67.3632 35.5084 67.1317 35.6177 66.8882C40.3749 66.328 45.2171 66.1088 50.1078 66.2549C50.7145 67.0344 51.7339 67.8991 53.1053 68.7881C47.5593 69.4702 41.9889 70.6516 36.4672 72.2835M20.715 69.3241C21.4917 68.715 22.5111 68.1427 23.8825 67.6433C28.1663 66.2549 32.5352 65.1709 36.9769 64.428C36.2245 64.9761 35.6177 65.7069 35.2293 66.4254C30.3023 67.0221 25.4601 67.9965 20.7272 69.3241M19.4407 69.6772C17.6083 70.2253 15.7879 70.8464 13.9918 71.5041C16.1156 70.5297 18.2636 69.6285 20.4481 68.8247C20.0597 69.1048 19.732 69.3849 19.4407 69.6772ZM46.2243 63.3563C47.3166 63.3928 48.5059 63.4903 49.7679 63.6607C49.5859 63.8557 49.4767 64.0626 49.4281 64.2576C49.331 64.7082 49.4524 65.2075 49.7679 65.7434C45.1078 65.6216 40.4963 65.8286 35.9332 66.3523C36.5279 65.4146 37.4987 64.4646 38.5788 64.1845C41.1151 63.8069 43.6637 63.5268 46.2243 63.3685M49.9257 64.3672C49.9621 64.1845 50.1441 63.9653 50.4355 63.746C55.5203 64.4646 61.5397 66.0234 66.1391 67.4485C60.86 66.4863 55.6053 65.9261 50.399 65.7555C50.3626 65.7069 50.3262 65.6582 50.2898 65.6094C49.9743 65.1344 49.865 64.7082 49.9379 64.3549M52.0252 63.1736C54.1732 63.1736 56.3334 63.2466 58.4935 63.3928C61.5154 64.1722 65.0712 65.719 68.2022 67.5702C63.6269 66.0722 56.9159 64.2332 51.1879 63.3685C51.4305 63.2832 51.7096 63.2224 52.0252 63.1736ZM67.9108 64.5499C68.5419 65.512 69.2337 66.9734 69.6463 67.8625C66.9157 66.1209 63.7726 64.5986 60.8721 63.5999C63.2264 63.8191 65.5808 64.148 67.923 64.562M70.957 65.1344C71.7458 65.2928 72.5225 65.4755 73.2992 65.6582C72.1706 66.4498 70.872 67.6067 70.3258 68.1061C70.0225 67.424 69.3186 65.853 68.6026 64.6716C69.3915 64.8178 70.1803 64.964 70.957 65.1344ZM80.6655 67.7285C77.6923 67.485 74.3307 67.6311 71.0298 68.1548C71.7579 67.5094 72.9958 66.4498 73.9666 65.8286C76.2359 66.3888 78.469 67.0221 80.6655 67.7285ZM88.7358 70.7976C89.2698 71.0534 89.6581 71.3214 89.9615 71.5772C83.299 69.3971 77.1947 68.8125 72.5225 68.4593C76.1268 67.9965 79.719 67.96 82.7043 68.435C84.7432 69.1535 86.7577 69.9451 88.7358 70.8099M99.3546 76.2904C100.908 77.2281 102.425 78.2147 103.918 79.2499H104.803C94.6823 72.1495 83.3475 67.2292 71.0662 64.6594C55.4596 61.3833 39.4889 62.2358 24.6349 66.9004C24.4528 66.9491 24.2829 67.01 24.113 67.0709C18.6883 68.8125 13.4093 71.0656 8.3487 73.8059H8.32442C5.48466 75.3527 2.72985 77.0454 0.0478516 78.8968V79.2378H0.472602C3.09393 77.4352 5.80019 75.7667 8.56714 74.2565C11.9287 72.7707 15.3631 71.4918 18.8583 70.4201C18.1907 71.3335 17.851 72.2835 17.6568 73.1969C17.2564 75.0725 17.4505 77.0942 18.215 79.2378H18.931C18.1422 77.1308 17.9238 75.1577 18.3121 73.343C18.5305 72.2957 18.931 71.163 19.9262 70.1035C24.8411 68.6542 29.8775 67.619 34.9988 66.9734C34.9381 67.144 34.8774 67.3023 34.8531 67.4606C34.5133 69.0439 34.9017 70.7368 35.9089 72.4662C30.1445 74.22 24.4528 76.4852 18.931 79.2378H20.0839C25.3266 76.6923 30.7149 74.5732 36.176 72.9168C37.523 75.0238 39.8167 77.1673 42.8992 79.2378H44.0278C40.7025 77.1064 38.2269 74.9019 36.7948 72.7463C42.4501 71.0778 48.1781 69.8964 53.8577 69.2387C55.2048 70.0547 56.843 70.8707 58.7242 71.6624C53.9184 73.5745 48.9791 76.0956 44.0399 79.2499H45.0471C49.8772 76.2173 54.7072 73.7572 59.4037 71.9424C61.1513 72.6367 63.0202 73.2822 65.1197 73.8667C63.8454 75.4744 62.4862 77.2891 61.1392 79.262H61.9644C63.275 77.35 64.4643 75.5962 65.7143 74.0251C66.7943 74.3174 67.9108 74.5853 69.0638 74.829C70.1075 75.0481 71.0782 75.243 72.1099 75.4013C72.4254 76.6192 72.6802 77.9102 72.9715 79.262H73.6875C73.4084 77.9345 73.0201 76.6802 72.7166 75.4744C74.8161 75.7789 76.8792 75.9737 78.8088 76.059C79.816 77.0698 80.8233 78.1416 81.8063 79.262H82.4859C81.515 78.1537 80.5321 77.0942 79.549 76.0833C81.5757 76.1321 83.4446 76.059 85.0829 75.8763C86.8791 76.9358 88.6508 78.0685 90.4106 79.262H91.3085C89.5246 78.032 87.7163 76.8506 85.896 75.7667C87.5587 75.5231 88.9299 75.1334 89.8644 74.6219C93.2867 75.9981 96.5755 77.557 99.7551 79.262H100.847C97.4978 77.4231 94.0148 75.7546 90.3863 74.2809C90.8596 73.9277 91.1751 73.5257 91.2721 73.0751C91.3085 72.929 91.2964 72.7585 91.26 72.588C93.226 73.2944 95.2162 74.1347 97.2429 75.1577C97.2429 75.1577 98.8812 76.0468 99.3667 76.3148" fill="white"/>
<path d="M24.8049 50.4464L26.1278 48.1445H26.9044C26.9044 48.1445 27.5233 48.181 27.4019 48.8022C27.3776 48.9239 27.2806 49.1553 27.1957 49.3137C26.9407 49.7765 26.3826 50.2149 25.9335 50.3489C25.9092 50.3489 25.885 50.361 25.8485 50.3733C25.3995 50.4829 24.8171 50.4464 24.8171 50.4464M24.3073 51.3476C24.3073 51.3476 25.3631 51.4085 26.0792 51.2014C26.7952 50.9943 27.6933 50.2879 28.0937 49.545C28.2393 49.2893 28.5548 48.6195 28.3728 47.9618C28.1422 47.1458 27.3292 47.2311 27.3292 47.2311L25.533 47.3041L21.9287 53.4301L22.9118 53.4667H23.0573L24.3073 51.3232" fill="white"/>
<path d="M89.7828 63.8668L89.8071 63.5501L88.897 63.4526L88.193 63.3795L88.5814 59.8355L88.6178 59.4701L87.8411 59.4336L87.3193 64.0737L88.0353 64.1468L89.7344 64.3174L89.7828 63.8668Z" fill="white"/>
<path d="M73.3462 50.0812C73.9287 48.0595 75.4579 46.7563 77.8364 46.6467C79.3535 46.5858 80.1544 47.3166 80.5428 48.2422C80.919 49.1434 80.8825 50.2273 80.7126 50.9215C80.4699 51.8593 79.3656 54.0028 76.368 54.1124C75.567 54.1368 74.8025 53.9663 74.22 53.5766C73.322 52.9676 72.8487 51.8471 73.3584 50.0812M76.3316 56.0732C81.1859 55.708 82.4845 53.1137 83.0426 50.4344C83.249 49.4479 83.1033 48.3518 82.5936 47.3896C81.8655 46.0256 80.3728 44.9782 77.9942 45.0635C75.919 45.1365 74.3777 46.0621 73.3098 47.1095C72.9943 47.4262 72.7151 47.755 72.4724 48.0717C71.987 48.7293 71.6836 49.3505 71.5501 49.7888C71.4774 50.0325 71.4288 50.2517 71.3803 50.4831C71.2589 51.0677 71.2103 51.6036 71.2346 52.0908C71.2953 53.3452 71.8172 54.2708 72.5696 54.9163C73.6011 55.8176 75.0816 56.1707 76.3559 56.0732" fill="white"/>
<path d="M67.7434 51.0303L70.7409 51.0425L70.8866 50.4823L71.1535 49.4348H69.4545H68.2046L68.8114 47.1208L72.1002 46.9991L72.1973 46.6093L72.4642 45.5254L67.3187 45.7203L65.7532 51.3469L65.6682 51.6758L64.6367 55.3539L65.8867 55.4147L66.5299 55.4391L67.7434 51.0303Z" fill="white"/>
<path d="M49.8761 47.2675L50.2281 46.3906L48.7597 46.4272L48.3956 47.3284L47.898 48.5219L47.0971 50.4341L46.5995 51.6519L45.6408 53.9416L45.4102 54.5019L45.9927 54.5262L46.6237 54.5506L49.7912 54.6845L49.9975 54.1243L50.3009 53.2717L48.8082 53.1987L47.6068 53.15L49.8761 47.2675Z" fill="white"/>
<path d="M45.1458 53.9306L45.4614 53.1146L44.0293 53.0537L42.9007 53.005L43.908 50.7884H46.0924L46.226 50.4474L46.5657 49.5705L45.5341 49.5826L44.4177 49.5949L45.1944 47.7071L47.6094 47.6462L47.7308 47.3417L48.107 46.4648L44.2721 46.5988L40.7891 54.296L41.493 54.3202L41.9056 54.3446L44.9274 54.4787L45.1458 53.9306Z" fill="white"/>
<path d="M40.5331 53.9541L40.6059 53.7957L41.1521 52.4683C39.9628 53.0528 39.1982 53.1015 38.7128 52.931C38.203 52.7483 37.9968 52.3221 37.924 52.0175C37.8147 51.5061 38.1181 50.5561 38.7735 49.6427C38.9919 49.3382 39.2711 49.0337 39.5744 48.7536C39.5987 48.7292 39.623 48.7171 39.6351 48.6927C39.72 48.6075 39.805 48.5222 39.9021 48.4491C40.0599 48.3273 40.2055 48.2299 40.3511 48.1447C42.0259 47.1582 43.0331 48.3882 43.0331 48.3882L43.47 47.4626L43.652 47.0729C43.3122 46.5492 40.9579 45.9403 38.8342 47.8767C38.6157 48.0716 38.4094 48.303 38.203 48.5466C37.4264 49.4722 36.7711 50.6779 36.5768 51.6644C36.5161 51.981 36.492 52.2733 36.5404 52.5169C36.6982 53.3816 37.0866 53.8566 37.5478 54.1124C38.7492 54.7822 40.521 53.9418 40.521 53.9418" fill="white"/>
<path d="M53.4468 50.6417L53.3861 50.4956L55.1702 49.0098L49.9275 50.3251L49.1387 50.5321L49.7697 50.7392L51.1411 51.2142L54.1507 52.2615L53.4468 50.6417Z" fill="white"/>
<path d="M59.0642 48.4243L59.1127 48.0224L59.8894 41.6406L56.0303 48.3025L58.0205 46.7436L58.2147 47.0603L58.7244 47.8641L59.0642 48.4243Z" fill="white"/>
<path d="M56.5891 53.4918L55.5939 54.2103L55.2541 54.4539L55.1934 54.3322L54.5502 53.0533L54.3683 52.6758L54.3197 52.9681L53.2031 60.044L54.6838 57.5717L57.5114 52.8098L56.5891 53.4918Z" fill="white"/>
<path d="M65.4354 50.519L60.0106 49.021L59.683 48.9358L59.2825 48.8262L60.2898 50.5556L59.4039 51.2742L58.0811 52.3581L58.8942 52.151L61.1271 51.5908L64.0276 50.8723L65.4354 50.519Z" fill="white"/>
<path d="M104 55.4283L104.025 57.1212L104.267 57.1335L105.105 57.17L112.374 57.4988L112.313 56.6097L112.24 55.2456L107.787 55.0752L106.743 55.0265L106.622 51.3971L111.367 51.4336L111.282 49.2536H106.524L106.452 46.2576L111.318 46.148L111.27 45.466L111.172 44.041L103.879 44.3211L103.903 46.2698L103.927 48.4864L104 55.4283Z" fill="white"/>
<path d="M56.2984 50.2282L57.3785 48.377L54.9635 50.2647L54.6602 50.4961L56.2984 50.2282Z" fill="white"/>
<path d="M29.9361 50.9077H28.5889L30.5429 48.4719L29.9361 50.9077ZM31.6472 47.8264L31.8049 47.0957L30.5065 47.1322L29.0137 48.9469L26.6108 51.8943L26.5381 51.9795L25.2031 53.6115L26.3196 53.648H26.441L27.8123 51.882L29.6448 51.9551L29.487 52.6372L29.2201 53.782L29.9846 53.8063H30.3608L31.6472 47.8264Z" fill="white"/>
<path d="M34.4677 50.4102C33.9095 50.5198 33.4362 50.4833 33.3998 50.4711L34.6619 48.0109L35.6934 47.9622C36.276 48.0353 36.3853 48.3641 36.3124 48.7173C36.2396 49.0949 35.9605 49.5211 35.8027 49.6917C35.4265 50.1179 34.9168 50.3128 34.4677 50.4102ZM34.6377 51.3846C36.6522 51.08 37.2711 49.4846 37.4532 48.9365C37.611 48.4616 37.6231 48.0962 37.5624 47.8161C37.3318 46.8539 36.1182 46.9148 36.1182 46.9148L34.0309 47.0001L30.4873 53.8325L31.1062 53.8568H31.5067L31.6402 53.8812L33.3877 50.4955L34.1037 54.003H34.6134L35.4386 54.0395L34.6498 51.3846" fill="white"/>
<path d="M92.4278 52.2C92.6583 53.2109 93.2409 54.2217 94.1026 55.0621C96.0807 57.0108 99.4908 58.0825 103.18 56.3408V55.7929L103.156 53.8686C102.61 54.2583 101.117 54.855 99.7456 54.8794C98.3622 54.9159 97.1243 54.4896 96.2141 53.698C95.3767 52.9795 94.7943 51.9564 94.6365 50.6776C94.3695 48.4976 96.8088 46.7682 97.8524 46.4881C100.996 45.599 103.059 47.231 103.059 47.231V46.0131L103.047 44.9779C102.695 44.7221 100.437 44.1862 98.9082 44.2958C98.0103 44.3567 94.8428 44.917 93.253 47.5233C92.6583 48.4976 92.27 49.7643 92.3185 51.3962C92.3185 51.6641 92.3671 51.9199 92.4278 52.1878" fill="white"/>
<path d="M82.6318 56.1585L84.2823 56.2316L84.889 56.2558L86.1512 46.7319C86.1512 46.7319 87.7167 46.6467 88.4327 46.6345C88.9788 46.6345 89.6705 47.0607 89.8648 47.828C89.9133 48.0472 89.9376 48.2908 89.8891 48.5588C89.622 49.8984 88.36 50.4099 87.2919 50.5926C86.4181 50.7388 85.6657 50.678 85.6657 50.678L87.0128 52.7119L89.4886 56.4508L90.2288 56.4873L92.3283 56.5847L89.0152 52.0907C90.7506 51.3965 91.9884 50.4465 92.1827 48.9241C92.3404 47.7428 92.1341 46.9146 91.7701 46.3178C90.7991 44.7711 88.6755 44.8929 88.6755 44.8929L84.1852 45.0512L82.8866 54.3316L82.644 56.1341" fill="white"/>
<path d="M112.935 66.352L112.911 65.8283L110.993 65.6335L110.265 65.5604L110.18 63.9285L112.668 64.1354L112.644 63.8554L112.619 63.3194L110.884 63.1733L110.144 63.1125L110.071 61.6753L112.729 61.858L112.717 61.6023L112.68 61.0542L109.197 60.8105L109.44 66.3399L110.18 66.4251L112.959 66.7053L112.935 66.352Z" fill="white"/>
<path d="M105.072 65.0725L105.011 61.3822H105.133C106.067 61.4432 106.577 61.6259 106.977 61.9425C107.074 62.0155 107.159 62.1009 107.232 62.1982C107.451 62.4784 107.56 62.8315 107.596 63.3431C107.645 64.0738 107.39 64.4758 107.014 64.7558C106.844 64.8777 106.54 65.0969 105.837 65.1212C105.667 65.1212 105.473 65.1212 105.242 65.0969C105.242 65.0969 105.193 65.0969 105.096 65.0969M108.434 63.4771C108.434 62.5758 108.142 61.9547 107.718 61.5163C107.062 60.8586 106.104 60.6393 105.424 60.6028L104.198 60.5176L104.259 65.8398L105.011 65.9129L105.351 65.9494C106.443 66.059 108.409 65.6571 108.434 63.4771Z" fill="white"/>
<path d="M103.103 60.8953L103.091 60.4203L102.279 60.3594V65.6085L102.994 65.6695L103.127 65.6816L103.103 60.8953Z" fill="white"/>
<path d="M78.1395 58.7883L77.2657 58.7396L76.477 60.3106L76.1371 60.9562L75.7245 59.3242L75.4939 58.4717L74.3896 60.3106L73.9891 60.9927L73.5279 58.7274L73.4794 58.4959L72.7148 58.4473L73.6372 62.6856L75.1784 60.2498L75.8823 62.9048L77.9818 59.0563L78.1395 58.7883Z" fill="white"/>
<path d="M79.0293 62.1747C78.7865 61.8824 78.7017 61.5535 78.7623 61.1517C78.8472 60.7375 79.0415 60.3965 79.3691 60.1042C79.6968 59.8119 80.0851 59.678 80.5099 59.6902C80.8982 59.6902 81.1894 59.8242 81.4079 60.0434C81.4444 60.0677 81.4686 60.1042 81.5049 60.1286C81.7477 60.4331 81.8448 60.7741 81.7841 61.1883C81.7234 61.6145 81.5292 61.9554 81.1894 62.2235C80.8375 62.5035 80.4613 62.6253 80.0244 62.6131C79.891 62.6131 79.7696 62.5887 79.6603 62.5522C79.4055 62.4791 79.187 62.3574 79.0051 62.1625M81.6628 62.7837C82.1604 62.3818 82.4637 61.8581 82.5365 61.2369C82.6094 60.6279 82.4516 60.08 82.0632 59.6415C81.9783 59.544 81.8933 59.4588 81.7963 59.3857C81.4565 59.1056 81.0439 58.9594 80.5706 58.9473C79.9637 58.9473 79.4055 59.1544 78.9079 59.5684C78.3982 59.9825 78.0948 60.494 77.9856 61.0786C77.8886 61.6997 78.022 62.2235 78.3982 62.6497C78.6167 62.8933 78.8958 63.0637 79.1992 63.1856C79.4298 63.2708 79.6725 63.3195 79.9394 63.3316C80.5948 63.356 81.1773 63.1612 81.6628 62.7714" fill="white"/>
<path d="M85.4013 62.163C86.0323 62.029 86.4328 61.554 86.5178 60.8355C86.5785 60.3849 86.4692 60.0072 86.2266 59.7272C85.9716 59.447 85.5833 59.2643 85.0616 59.2401L83.6416 59.1426L83.0713 63.6367L83.6659 63.6975L83.848 63.7219L84.3454 59.9586L85.1221 60.0072C85.4256 60.0316 85.6319 60.1534 85.729 60.3849C85.7775 60.5066 85.8018 60.6407 85.7775 60.8355C85.7047 61.347 85.1707 61.4688 84.7459 61.4809C84.4426 61.4809 84.1877 61.4444 84.1877 61.4444L84.6368 62.2726L85.5469 63.9167L85.8988 63.9533L86.5057 64.0142L85.4256 62.1873" fill="white"/>
<path d="M91.7123 60.4449L91.943 60.4692C92.4406 60.4936 93.1566 60.6032 93.5813 61.0782C93.8118 61.334 93.9575 61.7115 93.909 62.2474C93.7876 63.5383 92.9866 63.7819 92.1007 63.7698C91.9551 63.7698 91.8216 63.7698 91.676 63.7454L91.3968 63.7088L91.7002 60.457L91.7123 60.4449ZM94.6856 62.3326C94.7585 61.4314 94.4793 60.8346 94.0425 60.4328C93.5085 59.9334 92.7318 59.7507 92.0885 59.702L90.9842 59.6289L90.5352 64.4031L91.2391 64.4761L91.5668 64.5127C92.7197 64.6344 94.5035 64.4761 94.6735 62.3448" fill="white"/>
<path d="M101.357 60.3111L100.544 60.2501L99.6093 62.5764L99.3422 63.234L98.4927 60.8834L98.1772 59.9822L96.8423 63.0027L95.9928 60.3842L95.8471 59.9457L95.0098 59.8848L96.7331 65.0974L97.0243 64.4032L98.0802 61.8944L98.4685 63.027L99.2695 65.3653L99.5486 64.6955L101.163 60.7617L101.357 60.3111Z" fill="white"/>
<path d="M55.9343 52.2362L56.2984 50.2266L54.6602 50.4945L54.9028 50.9573L55.8373 52.772L55.9343 52.2362Z" fill="#90A2CD"/>
<path d="M56.9775 50.3378L58.6886 50.6301L58.0333 49.4974L57.5964 48.7423L57.4144 48.4379L57.3902 48.377L56.2979 50.2282L56.9775 50.3378Z" fill="#90A2CD"/>
<path d="M56.297 50.2266L55.9329 52.2362L55.8359 52.772L56.115 52.5772L58.6877 50.6285L56.9767 50.3362L56.297 50.2266Z" fill="#00539B"/>
</svg>
