<svg width="120" height="120" viewBox="0 0 120 120" fill="none" xmlns="http://www.w3.org/2000/svg">
<path d="M60.0084 29.1094C35.1903 29.1094 15 44.295 15 62.9599C15 81.6248 35.1903 96.8104 60.0084 96.8104C84.8264 96.8104 105 81.6248 105 62.9599C105 44.295 84.8092 29.1094 60.0084 29.1094Z" fill="#CCEDF3"/>
<path d="M35.79 39.8731L40.2292 36.7366L35.79 39.8731Z" fill="#B68063"/>
<path d="M104.999 62.9601C104.999 55.5044 101.776 48.6143 96.3432 43.0269H31.333V89.0464C39.1315 93.8969 49.1238 96.8278 60.0074 96.8278C84.8254 96.8278 104.999 81.6422 104.999 62.9772V62.9601Z" fill="#FAE2D6"/>
<path d="M31.333 43.0267H96.3432C95.2634 41.9298 94.115 40.8671 92.881 39.873H35.7893L31.333 43.0267Z" fill="#FBD5BB"/>
<path d="M40.231 36.7365L40.8138 36.3251H87.7417C86.5934 35.6396 85.3936 35.0054 84.1424 34.4055H43.5218L40.2139 36.7365H40.231Z" fill="#FBD5BB"/>
<path d="M40.2306 36.7366L35.8086 39.856H92.866C91.272 38.5705 89.5581 37.3879 87.7242 36.3081H40.8133L40.2306 36.7195V36.7366Z" fill="#B68063"/>
<path d="M74.113 46.6775H45.3015C44.1372 46.6775 43.1934 47.6213 43.1934 48.7856V84.6758C43.1934 85.8401 44.1372 86.7839 45.3015 86.7839H74.113C75.2773 86.7839 76.2212 85.8401 76.2212 84.6758V48.7856C76.2212 47.6213 75.2773 46.6775 74.113 46.6775Z" fill="white"/>
<path d="M58.9298 75.9688H57.8672V82.3275H58.9298V75.9688Z" fill="#2E1A47"/>
<path d="M62.1486 75.969H61.0859V82.3278H62.1486V75.969Z" fill="#2E1A47"/>
<path d="M65.3712 75.9688H64.3086V82.3275H65.3712V75.9688Z" fill="#2E1A47"/>
<path d="M68.5939 75.9688H67.5312V82.3275H68.5939V75.9688Z" fill="#2E1A47"/>
<path d="M71.8166 75.969H70.7539V82.3278H71.8166V75.969Z" fill="#2E1A47"/>
<path d="M66.8087 75.9688H66.0889V82.3275H66.8087V75.9688Z" fill="#2E1A47"/>
<path d="M63.59 75.969H62.8701V82.3278H63.59V75.969Z" fill="#2E1A47"/>
<path d="M70.0353 75.9688H69.3154V82.3275H70.0353V75.9688Z" fill="#2E1A47"/>
<path d="M60.3673 75.9688H59.6475V82.3275H60.3673V75.9688Z" fill="#2E1A47"/>
<path d="M71.801 61.4861H47.6172V72.6953H71.801V61.4861Z" fill="#EBF8FA"/>
<path d="M71.2817 53.7217V59.0864H65.9171V53.7217H71.2817ZM71.7959 53.2075H65.3857V59.6177H71.7959V53.2075Z" fill="#2E1A47"/>
<path d="M67.6681 57.3726H66.6055V58.4352H67.6681V57.3726Z" fill="#2E1A47"/>
<path d="M67.6681 54.4072H66.6055V55.4699H67.6681V54.4072Z" fill="#2E1A47"/>
<path d="M68.1983 55.47H67.667V56.0013H68.1983V55.47Z" fill="#2E1A47"/>
<path d="M69.0038 54.4072H68.1982V54.9386H69.0038V54.4072Z" fill="#2E1A47"/>
<path d="M69.5352 55.47H69.0039V56.0013H69.5352V55.47Z" fill="#2E1A47"/>
<path d="M69.004 56.0012H68.4727V56.5325H69.004V56.0012Z" fill="#2E1A47"/>
<path d="M68.4726 56.8411H67.667V57.3724H68.4726V56.8411Z" fill="#2E1A47"/>
<path d="M69.2782 57.3723H68.4727V57.9036H69.2782V57.3723Z" fill="#2E1A47"/>
<path d="M70.0665 56.6526H69.5352V57.1839H70.0665V56.6526Z" fill="#2E1A47"/>
<path d="M67.6641 56.3098H67.1328V56.8411H67.6641V56.3098Z" fill="#2E1A47"/>
<path d="M70.5977 56.0012H70.0664V56.6697H70.5977V56.0012Z" fill="#2E1A47"/>
<path d="M70.3382 57.6467V58.1781H69.8069V57.6467H70.3382ZM70.5953 57.3896H69.5498V58.4352H70.5953V57.3896Z" fill="#2E1A47"/>
<path d="M70.5978 54.4072H69.5352V55.4699H70.5978V54.4072Z" fill="#2E1A47"/>
<path d="M59.9919 53.1904H47.6172V53.9103H59.9919V53.1904Z" fill="#2E1A47"/>
<path d="M56.3926 54.9387H47.6172V55.6586H56.3926V54.9387Z" fill="#2E1A47"/>
<path d="M60.5062 63.5256H49.6055V64.2455H60.5062V63.5256Z" fill="#2E1A47"/>
<path d="M60.5062 67.8105H49.6055V68.5304H60.5062V67.8105Z" fill="#2E1A47"/>
<path d="M57.7982 69.9529H49.6055V70.6727H57.7982V69.9529Z" fill="#2E1A47"/>
<path d="M52.6391 76.9116H47.6172V77.6315H52.6391V76.9116Z" fill="#2E1A47"/>
<path d="M50.5823 78.5398H47.6172V79.2597H50.5823V78.5398Z" fill="#2E1A47"/>
<path d="M65.0139 65.668H49.6055V66.3878H65.0139V65.668Z" fill="#2E1A47"/>
<g clip-path="url(#clip0_1_595)">
<path d="M86.9881 53.1048C95.5074 53.1048 102.414 46.1985 102.414 37.6792C102.414 29.1599 95.5074 22.2537 86.9881 22.2537C78.4688 22.2537 71.5625 29.1599 71.5625 37.6792C71.5625 46.1985 78.4688 53.1048 86.9881 53.1048Z" fill="#008000"/>
<path d="M83.4278 43.5044C83.2617 43.5044 83.0966 43.4407 82.9704 43.3145L78.5477 38.8918C78.2953 38.6394 78.2953 38.2295 78.5477 37.9771C78.8001 37.7246 79.21 37.7246 79.4635 37.9771L83.431 41.9446L93.8686 31.6105C94.1221 31.3592 94.532 31.3613 94.7845 31.6148C95.0358 31.8683 95.0336 32.2782 94.7801 32.5306L83.8852 43.3177C83.759 43.4429 83.5939 43.5054 83.43 43.5054L83.4278 43.5044Z" fill="white"/>
</g>
<defs>
<clipPath id="clip0_1_595">
<rect width="30.8511" height="30.8511" fill="white" transform="translate(71.5615 22.2537)"/>
</clipPath>
</defs>
</svg>
