<svg width="120" height="120" viewBox="0 0 120 120" fill="none" xmlns="http://www.w3.org/2000/svg">
<path d="M60.0075 29.1101C35.19 29.1101 15 44.2954 15 62.96C15 81.6246 35.19 96.8099 60.0075 96.8099C84.825 96.8099 104.998 81.6246 104.998 62.96C104.998 44.2954 84.8079 29.1101 60.0075 29.1101Z" fill="#CCEDF3"/>
<path d="M35.793 39.8735L40.2149 36.7371L35.793 39.8735Z" fill="#B68063"/>
<path d="M104.997 62.96C104.997 55.5044 101.775 48.6145 96.3419 43.0271H31.333V89.0458C39.1313 93.8962 49.1235 96.827 60.0069 96.827C84.8244 96.827 104.997 81.6417 104.997 62.9771V62.96Z" fill="#FAE2D6"/>
<path d="M31.333 43.0271H96.3419C95.2622 41.9302 94.1138 40.8676 92.8798 39.8735H35.8063L31.3502 43.0271H31.333Z" fill="#FBD5BB"/>
<path d="M40.2164 36.7369L40.7991 36.3256H87.7262C86.5779 35.64 85.3781 35.0059 84.127 34.406H43.5071L40.1992 36.7369H40.2164Z" fill="#FBD5BB"/>
<path d="M40.2149 36.7371L35.793 39.8564H92.8665C91.2725 38.571 89.5586 37.3884 87.7247 36.3086H40.7976L40.2149 36.7199V36.7371Z" fill="#B68063"/>
<path d="M31.3379 49.7285H57.3723C58.5378 49.7285 59.4804 50.6712 59.4804 51.8366V76.5856C59.4804 77.7511 58.5378 78.6937 57.3723 78.6937H31.3379V49.7285Z" fill="white"/>
<path d="M46.6432 62.0344H31.3379V74.1518H46.6432V62.0344Z" fill="#EBF8FA"/>
<path d="M38.5535 53.8418H31.3379V54.6131H38.5535V53.8418Z" fill="#2E1A47"/>
<path d="M36.4625 55.7273H31.3379V56.4986H36.4625V55.7273Z" fill="#2E1A47"/>
<path d="M51.3238 55.7273H46.1992V56.4986H51.3238V55.7273Z" fill="#2E1A47"/>
<path d="M38.125 64.2454H31.3379V65.0166H38.125V64.2454Z" fill="#2E1A47"/>
<path d="M38.125 68.873H31.3379V69.6443H38.125V68.873Z" fill="#2E1A47"/>
<path d="M36.4454 71.2039H31.3379V71.9751H36.4454V71.2039Z" fill="#2E1A47"/>
<path d="M54.921 74.9402H49.8135V75.7115H54.921V74.9402Z" fill="#2E1A47"/>
<path d="M43.541 66.5591H31.3379V67.3303H43.541V66.5591Z" fill="#2E1A47"/>
<path d="M71.4343 69.9195L55.4179 58.4614C53.8167 57.3159 51.5899 57.6853 50.4443 59.2866L41.9779 71.1211C40.8323 72.7224 41.2018 74.9492 42.8031 76.0947L58.8194 87.5528C60.4207 88.6984 62.6474 88.329 63.793 86.7277L72.2594 74.8932C73.405 73.2919 73.0356 71.0651 71.4343 69.9195Z" fill="#F2878F"/>
<path d="M68.965 70.8461L55.3323 61.0932C54.1159 60.223 52.4245 60.5036 51.5543 61.72L44.6435 71.38C43.7733 72.5963 44.0539 74.2878 45.2703 75.158L58.903 84.9109C60.1194 85.7811 61.8109 85.5004 62.681 84.2841L69.5918 74.6241C70.462 73.4077 70.1814 71.7162 68.965 70.8461Z" fill="white"/>
<path d="M60.4719 85.8577C59.8377 85.8577 59.2036 85.6692 58.6551 85.275L45.0123 75.5056C43.6069 74.4944 43.2813 72.5406 44.2925 71.1351L51.1996 61.4686C52.2108 60.0632 54.1647 59.7376 55.5701 60.7488L69.2129 70.5181C70.6183 71.5293 70.9439 73.4832 69.9327 74.8886L63.0256 84.5551C62.4086 85.4121 61.4488 85.8577 60.4719 85.8577ZM53.7533 61.023C53.0335 61.023 52.3479 61.3487 51.9023 61.9657L44.9952 71.6322C44.2754 72.6434 44.4982 74.0831 45.5265 74.8029L59.1693 84.5723C59.6663 84.9322 60.2662 85.0693 60.8661 84.9665C61.466 84.8636 61.9973 84.538 62.3401 84.0409L69.2472 74.3744C69.967 73.3632 69.7442 71.9235 68.7158 71.2037L55.073 61.4344C54.6788 61.143 54.2161 61.0059 53.7533 61.0059V61.023Z" fill="#D61440"/>
<path d="M51.457 76.9627C51.457 76.9627 51.5942 76.8427 51.8684 76.9113C52.1255 76.9799 52.8796 77.4769 53.1538 77.0998C53.428 76.7228 53.428 77.2712 53.5652 77.3741C53.7023 77.4769 54.2165 77.3226 53.9594 77.6826C53.7023 78.0425 54.4564 78.6595 54.5592 78.8309C54.6621 79.0023 54.6278 79.2422 54.6278 79.2422L51.457 76.9799V76.9627Z" fill="#D61440"/>
<path d="M57.5595 74.8204L54.6801 72.7637C54.6801 72.7637 55.3828 73.9634 54.9029 74.649L53.0176 77.2884L53.8231 77.8712L55.7084 75.2317C56.274 74.4262 57.5595 74.8204 57.5595 74.8204Z" fill="#D61440"/>
<path d="M59.1519 69.01L57.5066 69.3699L58.0721 69.9527L55.7069 70.5354L56.9924 69.5585L56.3068 69.0614L58.2607 68.393L56.3925 67.0562L54.9871 69.01C53.8045 70.6725 54.1816 72.9692 55.8441 74.1518C57.5066 75.3344 59.8032 74.9573 60.9858 73.2948L62.3912 71.3409L59.1348 69.01H59.1519Z" fill="#D61440"/>
<g clip-path="url(#clip0_1_737)">
<path d="M85.269 53.1049C93.7882 53.1049 100.694 46.1988 100.694 37.6797C100.694 29.1605 93.7882 22.2544 85.269 22.2544C76.7499 22.2544 69.8438 29.1605 69.8438 37.6797C69.8438 46.1988 76.7499 53.1049 85.269 53.1049Z" fill="#DC381F"/>
<path d="M91.1519 44.2596C90.9858 44.2596 90.8208 44.1959 90.6945 44.0697L78.829 32.2041C78.5765 31.9517 78.5765 31.5418 78.829 31.2894C79.0814 31.037 79.4913 31.037 79.7448 31.2894L91.6104 43.155C91.8628 43.4074 91.8628 43.8173 91.6104 44.0697C91.4841 44.1959 91.318 44.2596 91.153 44.2596H91.1519Z" fill="white"/>
<path d="M79.2877 44.2596C79.1216 44.2596 78.9544 44.196 78.8282 44.0676C78.5769 43.8141 78.5779 43.4042 78.8325 43.1518L90.7973 31.2862C91.0508 31.0349 91.4607 31.0359 91.7131 31.2905C91.9645 31.544 91.9634 31.9539 91.7088 32.2063L79.744 44.0719C79.6178 44.197 79.4527 44.2596 79.2888 44.2596H79.2877Z" fill="white"/>
</g>
<defs>
<clipPath id="clip0_1_737">
<rect width="30.8505" height="30.8505" fill="white" transform="translate(69.8438 22.2544)"/>
</clipPath>
</defs>
</svg>
