<svg width="120" height="120" viewBox="0 0 120 120" fill="none" xmlns="http://www.w3.org/2000/svg">
<g clip-path="url(#clip0_1_1226)">
<path d="M40.0768 80.0072C38.8071 76.1963 37.8174 72.2744 38.6203 67.631C39.1245 64.7451 41.3278 59.0288 41.3278 59.0288C41.3278 59.0288 40.973 57.1603 40.3755 56.7348C39.778 56.3094 41.4585 54.0154 42.3921 52.073C41.7573 49.3166 40.861 45.6906 40.5622 45.3392C40.5622 45.3392 40.4876 45.3392 40.3755 45.3392C39.3859 45.2837 37.9295 45.1727 37.4813 44.9137C36.9025 44.5807 33.8589 40.4923 34.4938 35.6454C34.5498 35.2569 34.4938 34.7205 34.4378 34.147C22.6929 41.1583 15 52.8685 15 66.1326C15 79.3967 23.3091 92.0134 35.8195 98.9137V80.4327L40.0768 80.0072Z" fill="#EAF7F9"/>
<path d="M75.3114 43.3044C73.9483 42.2869 72.2304 43.8039 71.1475 46.6528C71.5396 47.0413 71.8943 47.4483 72.2304 47.8738C73.1827 47.8368 74.247 47.9848 75.3114 48.2253C75.3114 48.2253 76.6744 44.3404 75.3114 43.3044Z" fill="#EAF7F9"/>
<path d="M52.0631 35.7935C51.8203 35.775 51.5776 35.7195 51.3535 35.6455C51.5963 35.7195 51.839 35.775 52.0631 35.7935Z" fill="#EAF7F9"/>
<path d="M104.999 66.1326C104.999 44.6546 84.8514 27.2651 59.9987 27.2651C58.729 27.2651 57.478 27.3206 56.227 27.4131C56.1709 27.7091 56.1149 27.9681 56.0589 28.2086C56.1523 28.3381 56.2456 28.4861 56.3203 28.6156C56.8992 29.7256 56.9925 31.15 56.507 32.5375C56.1149 33.629 55.4241 34.5169 54.5838 35.0904C54.5091 35.1459 54.4344 35.1644 54.3597 35.2199C54.4718 37.1254 55.256 39.0123 55.256 39.0123C54.1357 39.3083 52.7539 39.7153 51.3535 40.2888C52.866 39.7153 54.3597 39.2898 55.5548 39.0123C56.3203 38.8273 56.9738 38.6978 57.4593 38.6053C60.2415 38.1058 60.5402 40.0113 60.3909 41.3987L60.3162 41.6947C63.7892 42.2497 66.5714 43.5447 68.3826 44.6177C69.1108 45.0431 69.6709 45.4316 70.0631 45.7091C70.0817 45.7091 70.1191 45.7461 70.1377 45.7646C70.1564 45.7831 70.1938 45.8016 70.2124 45.8201C70.2498 45.8571 70.3058 45.8756 70.3431 45.9126C71.0153 44.2107 72.1917 40.8068 75.3099 41.3802C78.4282 41.9537 79.6046 45.3391 78.7643 49.3535C79.8099 49.779 80.6875 50.223 81.229 50.556C82.7415 51.4995 87.4282 59.3987 89.7809 71.3124C92.1336 83.2261 89.7809 86.593 89.7809 86.593C87.1294 90.6999 85.0195 89.6639 85.0195 89.6639V98.4697C97.0817 91.4953 105.017 79.6187 105.017 66.1511L104.999 66.1326Z" fill="#EAF7F9"/>
<path d="M72.2316 47.8551C74.9764 51.407 75.6112 55.8654 76.0967 57.4564C76.8249 60.0093 81.2316 67.0206 81.2316 68.0381L81.2876 68.3156C82.2959 68.1861 83.0614 68.0751 83.4722 68.0381C84.7606 67.9086 86.3664 75.5674 84.4432 75.5674H82.5386C82.7067 76.4739 82.4079 78.1943 81.8477 80.2847L85.0034 80.4512V89.627C85.0034 89.627 87.1133 90.663 89.7648 86.5561C89.7648 86.5561 92.1175 83.1707 89.7648 71.2755C87.4121 59.3803 82.7253 51.4625 81.2129 50.5191C80.6901 50.1861 79.7938 49.7606 78.7482 49.3166C77.7025 48.8911 76.4888 48.4841 75.2938 48.1881C74.2295 47.9476 73.1652 47.7811 72.2129 47.8366L72.2316 47.8551Z" fill="#22004E"/>
<path d="M85.001 89.6269V81.5981L81.5467 81.4316H81.2479C79.0072 89.7934 74.6753 101.43 73.7604 102.965C73.723 103.021 73.7043 103.095 73.667 103.169C77.7375 102.059 81.5467 100.449 85.001 98.4512V89.6454V89.6269Z" fill="#F7AB87"/>
<path d="M81.8466 80.3032C81.7532 80.6732 81.6599 81.0432 81.5479 81.4502L85.0022 81.6167V80.4882L81.8466 80.3217V80.3032Z" fill="#F7AB87"/>
<path d="M65.5078 72.0154C65.2837 72.4964 65.2463 73.1254 65.3397 73.7914C65.5824 75.7338 66.7961 78.0093 67.1136 78.0093C67.2816 78.0093 67.6924 77.6208 68.4953 77.1768C69.709 76.4738 71.819 75.5858 75.404 75.5858H84.4227C86.3273 75.5858 84.7215 67.9271 83.4517 68.0566C83.041 68.0936 82.2754 68.2046 81.2671 68.334C79.7547 68.519 77.7007 68.7595 75.4787 68.8705C74.6198 68.9075 73.7422 68.9445 72.8646 68.9445C68.1779 68.9445 66.8708 69.074 65.5264 72.0154H65.5078Z" fill="#F8C4CC"/>
<path d="M68.4966 77.1769C68.3472 77.7319 68.2165 78.5644 68.1045 79.5818L81.5298 80.2848H81.8286C82.3701 78.2129 82.6688 76.4924 82.5194 75.5859H75.4053C71.8203 75.5859 69.6916 76.4739 68.4966 77.1769Z" fill="#AE7D64"/>
<path d="M81.5468 80.2849C81.4534 80.6549 81.3414 81.0434 81.248 81.4319H81.5468C81.6588 81.0434 81.7522 80.6734 81.8456 80.3034H81.5468V80.2849Z" fill="#AE7D64"/>
<path d="M67.9182 80.8027C67.6941 84.5581 67.6008 89.109 67.5821 91.6989C67.5821 92.3464 67.5821 92.8829 67.5821 93.2344C67.5821 96.6938 65.6775 101.985 64.3145 104.815C67.5447 104.556 70.6817 103.983 73.6692 103.169C73.7066 103.113 73.7252 103.021 73.7626 102.965C74.6775 101.43 79.0281 89.7935 81.2501 81.4132L67.9929 80.8027H67.9182Z" fill="#AE7D64"/>
<path d="M68.1023 79.5632C68.0649 79.9517 68.0276 80.3587 67.9902 80.8027L81.2475 81.4132C81.3595 81.0247 81.4529 80.6362 81.5463 80.2662L68.1209 79.5632H68.1023Z" fill="#AE7D64"/>
<path d="M60.0558 42.731C69.3732 43.7484 71.5392 50.4822 68.589 53.1647C62.4832 58.659 62.8753 65.0598 66.8338 62.3774C71.3525 59.3065 73.5371 64.5234 75.479 68.8707C77.701 68.7597 79.755 68.5192 81.2674 68.3342L81.2114 68.0568C81.2114 67.0393 76.8047 60.028 76.0765 57.475C75.6097 55.8841 74.9749 51.4257 72.2114 47.8738C71.894 47.4483 71.5392 47.0413 71.1284 46.6528C70.867 46.3939 70.6056 46.1534 70.3255 45.9129C70.2881 45.8759 70.2508 45.8389 70.1948 45.8204C70.1761 45.8019 70.1388 45.7834 70.1201 45.7649C70.1014 45.7464 70.0641 45.7279 70.0454 45.7094C69.6533 45.4134 69.0931 45.0249 68.3649 44.6179C67.2819 44.0444 66.0496 43.6004 64.6305 43.3229C62.9126 43.0085 61.4002 42.8235 60.0371 42.7495L60.0558 42.731Z" fill="#F8C4CC"/>
<path d="M75.3125 43.3042C76.6756 44.3217 75.3125 48.2251 75.3125 48.2251C76.5075 48.5025 77.7212 48.928 78.7669 49.3535C79.6071 45.3391 78.4494 41.9537 75.3125 41.3802C72.1943 40.8068 71.0366 44.2107 70.3457 45.9126C70.6445 46.1531 70.9059 46.3936 71.1486 46.6526C72.2316 43.8037 73.9494 42.2867 75.3125 43.3042Z" fill="#22004E"/>
<path d="M65.5082 72.0154C66.8526 69.074 68.1596 68.9445 72.8463 68.9445C73.7239 68.9445 74.6202 68.9075 75.4604 68.8705C73.5185 64.5046 71.3339 59.3063 66.8152 62.3587C62.8567 65.0411 62.4646 58.6588 68.5704 53.146C71.5206 50.482 69.3546 43.7297 60.0372 42.7122C53.9501 42.4163 51.4853 44.6362 49.7675 47.7441C46.7986 53.1645 48.8152 58.7328 51.56 62.6732C54.4542 66.8171 62.7073 71.3495 62.7073 71.3495L65.2841 73.7729H65.3214C65.2281 73.1069 65.2654 72.4779 65.4895 71.9969L65.5082 72.0154Z" fill="#F2878F"/>
<path d="M52.7743 78.7494L67.9921 79.5634H68.1042C68.2162 78.5644 68.3469 77.7319 68.4963 77.1769C67.6934 77.6209 67.3013 78.0094 67.1145 78.0094C66.7971 78.0094 65.5647 75.7525 65.3407 73.7915H65.3033C65.3033 73.7915 55.5004 71.8121 49.2266 64.1533C46.295 60.5644 45.2681 55.847 45.9403 51.6291L44.6706 51.4626C44.5025 52.3876 43.1021 55.1995 43.1021 55.1995C43.1021 55.1995 42.7847 53.8121 42.3926 52.0731C41.4403 54.0156 39.7784 56.3095 40.376 56.735C40.9548 57.1605 41.3282 59.0289 41.3282 59.0289C41.3282 59.0289 39.1249 64.7268 38.6208 67.6312C37.8179 72.2746 38.8075 76.178 40.0772 80.0074L40.4693 79.9704L52.793 78.7494H52.7743Z" fill="#F2878F"/>
<path d="M67.918 80.8027H67.9927C68.03 80.3772 68.0673 79.9517 68.1047 79.5632H67.9927C67.9553 79.9517 67.9366 80.3772 67.918 80.8027Z" fill="#F2878F"/>
<path d="M65.0793 85.5942L65.6768 91.6805H67.5813C67.6 89.0906 67.6934 84.5582 67.9174 80.8028L52.793 80.0999V86.7967H55.127L65.0979 85.5942H65.0793Z" fill="#F7AB87"/>
<path d="M67.9923 79.5632L52.7744 78.7493V80.0997L67.8989 80.8027C67.9176 80.3772 67.9549 79.9517 67.9736 79.5632H67.9923Z" fill="#F7AB87"/>
<path d="M67.5816 91.699H65.677L55.5754 93.586L55.0899 86.8152H52.7559V104.519C55.1086 104.852 57.5173 105.019 59.982 105.019C61.4384 105.019 62.8762 104.963 64.2766 104.834C65.6397 101.985 67.5442 96.7124 67.5442 93.253C67.5442 92.9015 67.5442 92.365 67.5442 91.7176L67.5816 91.699Z" fill="#F7AB87"/>
<path d="M45.941 51.6291C45.2688 55.847 46.2958 60.5644 49.2274 64.1533C55.5012 71.7936 65.3041 73.7915 65.3041 73.7915L62.7274 71.3681C62.7274 71.3681 54.4742 66.8357 51.5801 62.6918C48.8352 58.7514 46.8186 53.1831 49.7875 47.7627C51.5054 44.6548 53.9701 42.4534 60.0572 42.7309C61.4016 42.7864 62.9327 42.9714 64.6506 43.3044C66.0697 43.5819 67.302 44.0259 68.385 44.5993C66.5738 43.5264 63.7917 42.2314 60.3186 41.6764C59.2357 41.4914 58.078 41.3989 56.8643 41.3989C50.6464 41.3989 46.8373 46.0793 45.941 51.6476V51.6291Z" fill="#22004E"/>
<path d="M55.1074 86.7967L55.5742 93.5675L65.6759 91.6806L65.0784 85.5942L55.1074 86.7967Z" fill="#F8DCCC"/>
<path d="M45.641 44.1739C45.4916 44.1924 45.3049 44.2294 45.1368 44.2664C44.67 44.8399 44.3153 45.4504 44.1099 46.1163C43.9231 47.8183 44.502 50.7967 44.6887 51.2222C44.7074 51.2592 44.6887 51.3517 44.6887 51.4812L45.9584 51.6477C46.836 46.0793 50.6451 41.3805 56.8816 41.399C58.0953 41.399 59.253 41.51 60.336 41.6765L60.4107 41.3805C60.5601 39.993 60.2613 38.0876 57.4792 38.587C56.9937 38.6795 56.3588 38.809 55.5746 38.994C54.3609 39.29 52.8671 39.697 51.3733 40.2705C49.2074 41.1585 47.004 42.4164 45.6783 44.1739H45.641Z" fill="#F2878F"/>
<path d="M50.215 28.1903C51.8208 27.8758 53.4639 27.6353 55.1257 27.4873C54.827 27.2098 54.4909 26.9878 54.1175 26.8398C54.1175 26.8398 54.1175 26.8213 54.1175 26.8028C53.9307 26.7473 53.744 26.7103 53.5386 26.6918C53.4079 26.6918 53.2772 26.6918 53.1465 26.6733C52.8477 26.6733 52.549 26.7103 52.2502 26.7843C51.9328 26.8768 51.6154 27.0063 51.3166 27.1728C50.9058 27.4133 50.5324 27.7648 50.1963 28.1718L50.215 28.1903Z" fill="#22004E"/>
<path d="M55.1284 27.4872C53.4666 27.6352 51.8234 27.8757 50.2176 28.1902C49.8068 28.6897 49.452 29.2632 49.228 29.9477C48.4251 32.3711 49.3213 34.924 51.2259 35.627C51.2632 35.627 51.3006 35.627 51.3379 35.6455C51.5807 35.7195 51.8234 35.775 52.0475 35.7935C52.8317 35.849 53.6346 35.59 54.3255 35.072C54.3255 35.109 54.3255 35.1645 54.3255 35.2015C54.4002 35.1645 54.4749 35.1275 54.5496 35.072C55.3898 34.4986 56.0807 33.6291 56.4728 32.5191C56.9583 31.1316 56.8649 29.7072 56.2861 28.5972C56.2114 28.4492 56.118 28.3012 56.0247 28.1717C55.9873 28.3197 55.95 28.4677 55.9126 28.5787C55.7072 28.1532 55.4271 27.7647 55.091 27.4688L55.1284 27.4872Z" fill="#22004E"/>
<path d="M54.1182 26.8027C54.1182 26.8027 54.2682 26.8027 54.3432 26.8402C54.2869 26.8215 54.1932 26.8027 54.1182 26.8027Z" fill="#430014"/>
<path d="M55.3884 27.5983C55.6685 27.5798 55.9486 27.5613 56.21 27.5428C56.5088 26.0813 56.6395 23.8614 55.9299 20.9384C55.0337 17.183 47.4154 17.1275 46.071 16.9056C44.7266 16.6836 42.2806 14.7966 38.6582 15.0186C35.0357 15.2406 31.4133 19.44 32.5897 21.7709C31.2266 22.6034 31.0586 26.8953 33.8781 27.4503C34.1395 26.8213 34.4943 26.2108 34.793 25.7483C34.9797 25.4708 35.1478 25.2488 35.2972 25.0823C34.8304 25.6928 38.3407 25.8593 43.905 23.6579C45.7349 22.9364 48.4611 22.4369 48.3304 23.5469C48.1996 24.6753 47.266 26.5068 47.5461 27.4873C47.6395 27.8573 47.9009 28.2642 48.1996 28.6342C48.8345 28.5047 49.488 28.3752 50.1229 28.2642C50.4963 27.8942 50.8884 27.5798 51.3552 27.3578C51.6353 27.2098 51.9154 27.0803 52.2142 27.0063C52.2142 26.9693 52.2142 26.9323 52.2142 26.9138C51.8781 26.9138 53.764 26.6548 53.5586 26.7103" fill="#430014"/>
<path d="M56.0617 28.1903C56.1177 27.9498 56.1738 27.6908 56.2298 27.3948C55.9497 27.4133 55.6696 27.4318 55.4082 27.4503C55.6696 27.6538 55.875 27.9128 56.0617 28.1903Z" fill="#430014"/>
<path d="M50.1244 28.2087C49.4709 28.3382 48.836 28.4677 48.2012 28.6157C48.5559 29.1522 48.9667 29.6147 49.1348 29.8182C49.3775 29.2077 49.7136 28.6712 50.1244 28.2087Z" fill="#430014"/>
<path d="M51.3378 27.1729C50.8897 27.4318 50.4789 27.7833 50.1055 28.1903C50.1428 28.1903 50.1802 28.1903 50.2175 28.1718C50.5536 27.7648 50.927 27.4133 51.3378 27.1729Z" fill="#430014"/>
<path d="M54.1182 26.8397C54.4916 26.9877 54.8277 27.2097 55.1265 27.4872C55.2198 27.4872 55.2945 27.4687 55.3879 27.4502C55.0704 27.1912 54.7343 26.9877 54.3422 26.8397C54.2675 26.8212 54.1929 26.8212 54.1182 26.8027C54.1182 26.8027 54.1182 26.8212 54.1182 26.8397Z" fill="#430014"/>
<path d="M55.3874 27.4502C55.3874 27.4502 55.2193 27.4687 55.126 27.4872C55.4621 27.8017 55.7422 28.1717 55.9476 28.5972C55.9849 28.4677 56.0222 28.3197 56.0596 28.1902C55.8729 27.9127 55.6488 27.6722 55.4061 27.4502H55.3874Z" fill="#430014"/>
<path d="M49.2243 29.9291C49.4484 29.2446 49.8032 28.6711 50.214 28.1716C50.1766 28.1716 50.1393 28.1716 50.1019 28.1901C49.6911 28.6526 49.355 29.1706 49.1123 29.7996C49.1683 29.8736 49.2243 29.9291 49.2243 29.9291Z" fill="#430014"/>
<path d="M47.5284 27.3023C47.2483 26.1924 48.7981 24.2314 48.9288 22.9549C49.0782 21.6785 45.7359 22.1225 43.906 22.9549C38.3417 25.4709 34.85 25.2674 35.2981 24.5829C35.1487 24.7679 34.9807 25.0269 34.7939 25.3414C35.5035 28.6158 36.7732 29.6148 36.9412 31.5017C36.9786 31.8532 36.8292 32.3527 36.6238 32.8892C40.1715 31.0207 44.0554 29.5778 48.1632 28.6158C47.8832 28.1903 47.6217 27.7278 47.5097 27.3023H47.5284Z" fill="#AE7D64"/>
<path d="M52.0649 35.7935C51.8221 35.7935 51.5794 35.7195 51.3553 35.6455C51.318 35.6455 51.262 35.6455 51.2246 35.627C49.1707 34.924 48.1997 32.3711 49.0773 29.9477C49.0773 29.9107 49.1147 29.8737 49.1333 29.8182C48.9466 29.6147 48.5545 29.1522 48.1997 28.6157C44.0918 29.5777 40.2267 31.0207 36.6603 32.8891C35.9881 34.6836 34.6811 37.0885 36.7723 37.3105C38.5275 37.4955 37.2765 40.1964 37.4819 42.0833C37.6873 43.9333 39.2744 44.5438 41.0669 44.6363C42.6354 44.5993 44.2225 44.3403 45.1935 44.1923C46.6126 42.4348 49.0026 41.1769 51.3367 40.2889C52.7371 39.7154 54.1188 39.2899 55.2391 39.0124C55.2391 39.0124 54.4549 37.1255 54.3429 35.22C53.6333 35.6455 52.8491 35.8675 52.0649 35.812V35.7935Z" fill="#AE7D64"/>
<path d="M45.1918 44.1737C45.1918 44.1737 45.1544 44.2292 45.1357 44.2662C45.3038 44.2292 45.5092 44.2107 45.6399 44.1737C46.9656 42.4162 49.1689 41.1582 51.3349 40.2703C48.9822 41.1582 46.6108 42.4162 45.1918 44.1737Z" fill="#AE7D64"/>
<path d="M49.0592 29.9293C48.2003 32.3527 49.1712 34.9057 51.2065 35.6086C51.2438 35.6086 51.2998 35.6086 51.3372 35.6271C51.2998 35.6271 51.2625 35.6271 51.2252 35.6086C49.3393 34.9057 48.4243 32.3527 49.2272 29.9293C49.2272 29.9293 49.1899 29.8738 49.1152 29.7998C49.1152 29.8368 49.0778 29.8738 49.0592 29.9293Z" fill="#AE7D64"/>
<path d="M52.0645 35.7935C52.8487 35.849 53.6329 35.627 54.3425 35.2015C54.3425 35.1645 54.3425 35.109 54.3425 35.072C53.6516 35.59 52.8487 35.849 52.0645 35.7935Z" fill="#AE7D64"/>
<path d="M53.166 26.6733C53.2973 26.6733 53.4285 26.6733 53.5598 26.6921C53.4285 26.6921 53.2973 26.6733 53.166 26.6733Z" fill="#22004E"/>
<path d="M52.7738 86.7966V80.0998L40.4502 81.1728C40.3195 80.7843 40.1887 80.3958 40.058 80.0073L35.8008 80.4328V98.9138C40.8609 101.707 46.5933 103.65 52.7551 104.501V86.7966H52.7738ZM42.5228 87.3331C42.4294 87.3331 42.3361 87.3331 42.224 87.3331C40.5809 87.3331 39.2551 86.3341 39.2551 85.0947C39.2551 84.0957 40.1514 83.2447 41.3651 82.9672C41.6452 82.9117 41.9253 82.8747 42.224 82.8747C43.8672 82.8747 45.2116 83.8737 45.2116 85.1132C45.2116 86.2602 44.0352 87.2221 42.5228 87.3331Z" fill="#6A301A"/>
<path d="M40.4517 79.9702L40.0596 80.0072C40.1903 80.3957 40.321 80.7842 40.4517 81.1727L52.7753 80.0997V78.7493L40.4517 79.9702Z" fill="#6A301A"/>
<path d="M44.6696 51.4626C44.6696 51.3331 44.6883 51.2406 44.6696 51.2036C44.4829 50.7781 43.8854 47.7997 44.0908 46.0977C44.3148 45.4318 44.6696 44.8213 45.1177 44.2478C44.0721 44.4328 42.6157 44.6733 41.2152 44.6178V45.3208C41.0099 45.3208 40.7298 45.3208 40.375 45.3023C40.5057 45.3393 40.5617 45.3393 40.5617 45.3393C40.8605 45.7093 41.7381 49.3352 42.3916 52.0731C42.8024 53.812 43.1011 55.1995 43.1011 55.1995C43.1011 55.1995 44.4829 52.3876 44.6696 51.4626Z" fill="#6A301A"/>
<path d="M45.1194 44.2663C45.1194 44.2663 45.1567 44.2108 45.1754 44.1738C44.2231 44.3218 42.6173 44.5993 41.0488 44.6178C41.1048 44.6178 41.1609 44.6178 41.2169 44.6178C42.6173 44.6548 44.0924 44.4328 45.1194 44.2478V44.2663Z" fill="#6A301A"/>
<path d="M42.2222 82.8933C41.9234 82.8933 41.6434 82.9303 41.3633 82.9858C41.6807 84.0032 41.9608 85.0207 42.2222 86.0567C42.3342 86.4822 42.4276 86.9076 42.521 87.3331C44.0147 87.2221 45.2098 86.2602 45.2098 85.1132C45.2098 83.8922 43.8654 82.8748 42.2222 82.8748V82.8933Z" fill="#D61440"/>
<path d="M41.3824 82.9858C40.1501 83.2633 39.2725 84.1143 39.2725 85.1133C39.2725 86.3527 40.5982 87.3517 42.2413 87.3517C42.3534 87.3517 42.4467 87.3517 42.5401 87.3517C42.4467 86.9262 42.3534 86.5007 42.2413 86.0753C41.9799 85.0393 41.6998 84.0033 41.3824 83.0043V82.9858Z" fill="#D61440"/>
<path d="M36.9582 31.5016C36.7901 29.6147 35.5017 28.6157 34.8109 25.3413C34.4934 25.8778 34.1573 26.5623 33.8959 27.2838C33.4665 28.4307 33.2237 29.6517 33.5038 30.4657C33.9706 31.7606 34.3067 33.0556 34.4374 34.1471C35.1656 33.7216 35.8938 33.2961 36.6594 32.8891C36.8648 32.3526 36.9955 31.8531 36.9768 31.5016H36.9582Z" fill="#6A301A"/>
<path d="M34.4919 35.6456C33.857 40.4924 36.9006 44.5808 37.4795 44.9138C37.9276 45.1728 39.384 45.2653 40.3736 45.3208V44.6363C40.6164 44.6363 40.8404 44.6363 41.0458 44.6363C39.2533 44.5438 37.6662 43.9519 37.4608 42.0834C37.2554 40.1965 38.5064 37.4955 36.7512 37.3105C34.6599 37.107 35.9857 34.7021 36.6392 32.8892C35.8923 33.2776 35.1454 33.7031 34.4172 34.1471C34.4919 34.7206 34.5292 35.2571 34.4732 35.6456H34.4919Z" fill="#6A301A"/>
<path d="M41.2142 44.6362C41.2142 44.6362 41.1021 44.6362 41.0461 44.6362C40.822 44.6362 40.6166 44.6547 40.3926 44.6362V45.3207C40.71 45.3207 41.0088 45.3392 41.1768 45.3392V44.6362H41.2142Z" fill="#6A301A"/>
<path d="M54.3405 28.597C54.3405 28.597 56.2824 21.2897 48.1787 19.1438C48.1787 19.1438 53.1642 21.5857 52.2493 28.6155" fill="#22004E"/>
</g>
<defs>
<clipPath id="clip0_1_1226">
<rect width="90" height="90" fill="white" transform="translate(15 15)"/>
</clipPath>
</defs>
</svg>
